SplineFontDB: 3.2
FontName: ChromSerif-BoldItalic
FullName: Chrom Serif Bold Italic
FamilyName: Chrom Serif
Weight: Bold
Copyright: Copyright 2014 PDFium Authors. All rights reserved. See LICENSE_FOXIT for details.
Version: 001.001
ItalicAngle: -14
UnderlinePosition: -100
UnderlineWidth: 50
Ascent: 800
Descent: 200
InvalidEm: 0
sfntRevision: 0x00000000
LayerCount: 2
Layer: 0 0 "Back" 1
Layer: 1 0 "Fore" 0
StyleMap: 0x0000
FSType: 0
OS2Version: 0
OS2_WeightWidthSlopeOnly: 0
OS2_UseTypoMetrics: 0
CreationTime: 0
ModificationTime: 1757284879
OS2TypoAscent: 0
OS2TypoAOffset: 0
OS2TypoDescent: 0
OS2TypoDOffset: 0
OS2TypoLinegap: 0
OS2WinAscent: 0
OS2WinAOffset: 0
OS2WinDescent: 0
OS2WinDOffset: 0
HheadAscent: 0
HheadAOffset: 0
HheadDescent: 0
HheadDOffset: 0
DEI: 91125
Encoding: AdobeStandard
UnicodeInterp: none
NameList: AGL For New Fonts
DisplaySize: -48
AntiAlias: 1
FitToEm: 0
BeginPrivate: 6
BlueValues 31 [-18 0 448 462 669 685 698 704]
OtherBlues 23 [-206 -204 0 0 264 273]
BlueScale 1 0
StdHW 4 [41]
StdVW 5 [120]
ForceBold 4 true
EndPrivate
BeginChars: 336 229

StartChar: exclam
Encoding: 33 33 1
Width: 389
Flags: HMW
HStem: -25 144 -13 144<122.5 160.5 122.5 162.5> 651 20G 664 20G<282.5 328>
VStem: 67 148<39 76 39 80.5>
LayerCount: 2
Fore
SplineSet
67 57 m 0
 67 104 106 131 139 131 c 0
 182 131 215 95 215 57 c 0
 215 21 185 -13 140 -13 c 0
 96 -13 67 18 67 57 c 0
167 212 m 1
 187 315 198 444 215 559 c 0
 221 601 253 684 312 684 c 0
 344 684 370 655 370 614 c 0
 370 596 364 575 356 554 c 0
 344 524 267 369 196 204 c 1
 167 212 l 1
EndSplineSet
EndChar

StartChar: quotedbl
Encoding: 34 34 2
Width: 555
Flags: HMW
HStem: 398 21G<136 136 136 176 404 442 404 404> 665 20G<201 238.5 469 504>
LayerCount: 2
Fore
SplineSet
404 398 m 1
 420 612 l 2
 423 650 450 685 488 685 c 0
 520 685 536 659 536 632 c 0
 536 615 533 597 527 584 c 2
 442 398 l 1
 404 398 l 1
136 398 m 1
 152 612 l 2
 155 650 182 685 220 685 c 0
 257 685 270 662 270 637 c 0
 270 618 265 598 259 584 c 2
 176 398 l 1
 136 398 l 1
EndSplineSet
EndChar

StartChar: numbersign
Encoding: 35 35 3
Width: 500
Flags: HMW
HStem: 0 21G<-22 48 48 48 176 247 247 247> 210 63<-13 63 63 63 159 261 261 261 358 429 429 429> 210 73 417 73 427 63<71 153 153 153 252 351 351 351 451 513 513 513> 680 20G<263 332 263 263 461 531 461 461>
LayerCount: 2
Fore
SplineSet
159 273 m 1
 223 427 l 1
 351 427 l 1
 287 273 l 1
 159 273 l 1
-22 0 m 1
 48 0 l 1
 133 210 l 1
 261 210 l 1
 176 0 l 1
 247 0 l 1
 332 210 l 1
 429 210 l 1
 449 273 l 1
 358 273 l 1
 422 427 l 1
 513 427 l 1
 533 490 l 1
 451 490 l 1
 531 700 l 1
 461 700 l 1
 380 490 l 1
 252 490 l 1
 332 700 l 1
 263 700 l 1
 182 490 l 1
 71 490 l 1
 51 427 l 1
 153 427 l 1
 89 273 l 1
 -13 273 l 1
 -33 210 l 1
 63 210 l 1
 -22 0 l 1
EndSplineSet
EndChar

StartChar: dollar
Encoding: 36 36 4
Width: 500
Flags: HMW
HStem: -100 21G<98 150 150 150> 1 31<186 229.5 186 252.5> 637 33<248 285.5 213.5 290.5> 713 20G<331 381 331 331>
VStem: 79 99<504.5 546> 323 109<129.5 198.5>
LayerCount: 2
Fore
SplineSet
186 32 m 1
 253 274 l 1
 288 245 323 228 323 169 c 0
 323 90 273 32 186 32 c 1
248 422 m 1
 193 461 178 487 178 522 c 0
 178 570 213 637 283 637 c 0
 298 637 296 638 303 635 c 1
 248 422 l 1
127 7 m 1
 98 -100 l 1
 150 -100 l 1
 178 1 l 1
 327 1 432 60 432 169 c 0
 432 258 372 327 292 396 c 1
 351 625 l 1
 439 601 437 515 434 470 c 1
 455 465 l 1
 497 598 l 1
 468 622 403 656 361 661 c 1
 381 733 l 1
 331 733 l 1
 313 668 l 1
 300 669 291 670 280 670 c 0
 147 670 79 614 79 522 c 0
 79 462 104 380 211 303 c 1
 137 42 l 1
 60 77 47 129 44 222 c 1
 22 228 l 1
 -20 86 l 1
 45 26 86 18 127 7 c 1
EndSplineSet
EndChar

StartChar: percent
Encoding: 37 37 5
Width: 833
Flags: HMW
HStem: -15 21G<118 178 118 118> -14 26<582.5 618 582.5 651> 320 22 650 26<276.5 309.5> 657 20G<715 775 775 775>
VStem: 108 84<374 502.5> 332 84<499.5 623.5> 478 84<40 168.5> 702 84<165.5 289.5>
LayerCount: 2
Fore
SplineSet
775 677 m 1
 178 -15 l 1
 118 -15 l 1
 715 677 l 1
 775 677 l 1
225 346 m 0
 271 346 283 415 293 450 c 0
 305 490 332 575 332 613 c 0
 332 634 320 650 299 650 c 0
 254 650 238 575 228 541 c 0
 218 506 192 417 192 385 c 0
 192 363 200 346 225 346 c 0
222 320 m 0
 145 320 108 378 108 449 c 0
 108 556 183 676 299 676 c 0
 372 676 416 623 416 553 c 0
 416 446 340 320 222 320 c 0
595 12 m 0
 641 12 653 81 663 116 c 0
 675 156 702 241 702 279 c 0
 702 300 690 316 669 316 c 0
 624 316 608 241 598 207 c 0
 588 172 562 83 562 51 c 0
 562 29 570 12 595 12 c 0
592 -14 m 0
 515 -14 478 44 478 115 c 0
 478 222 553 342 669 342 c 0
 742 342 786 289 786 219 c 0
 786 112 710 -14 592 -14 c 0
EndSplineSet
EndChar

StartChar: ampersand
Encoding: 38 38 6
Width: 778
Flags: HMW
HStem: -19 21G<170 214.5> -18 70 -18 81<493.5 626.5> 44 36 133 36 649 33<390 438.5>
VStem: 26 133 234 121<515 531> 477 80<550.5 585> 535 22
LayerCount: 2
Fore
SplineSet
366 434 m 1
 458 482 477 532 477 569 c 0
 477 601 459 649 418 649 c 0
 362 649 355 588 355 527 c 0
 355 503 359 477 366 434 c 1
362 80 m 1
 330 130 285 202 253 343 c 1
 194 313 138 280 138 187 c 0
 138 134 174 52 265 52 c 0
 308 52 339 69 362 80 c 1
390 44 m 1
 315 -12 237 -19 192 -19 c 0
 148 -19 5 0 5 156 c 0
 5 300 132 322 245 384 c 1
 240 411 234 443 234 476 c 0
 234 586 299 682 418 682 c 0
 511 682 557 624 557 569 c 0
 557 468 420 415 375 396 c 1
 385 315 432 211 461 169 c 1
 493 209 535 251 535 286 c 0
 535 319 506 321 479 326 c 1
 479 361 l 1
 691 361 l 1
 691 326 l 1
 654 318 638 315 597 268 c 0
 573 241 574 251 486 133 c 1
 510 96 567 63 614 63 c 0
 639 63 661 74 673 101 c 1
 699 80 l 1
 664 39 618 -18 530 -18 c 0
 457 -18 414 20 390 44 c 1
EndSplineSet
EndChar

StartChar: quotesingle
Encoding: 169 39 7
Width: 278
Flags: HMW
HStem: 398 21G<128 167 128 128> 665 20G<197.5 236.5>
VStem: 141 119
LayerCount: 2
Fore
SplineSet
167 398 m 1
 128 398 l 1
 149 612 l 2
 152 651 178 685 217 685 c 0
 256 685 268 660 268 633 c 0
 268 614 263 597 256 584 c 2
 167 398 l 1
EndSplineSet
EndChar

StartChar: parenleft
Encoding: 40 40 8
Width: 333
Flags: HMW
HStem: -179 21G<170 170> 665 20G<326 344>
VStem: 28 94<94.5 223>
LayerCount: 2
Fore
SplineSet
170 -179 m 1
 129 -122 28 -30 28 159 c 0
 28 287 59 501 326 685 c 1
 344 665 l 1
 268 597 122 475 122 159 c 0
 122 30 166 -116 193 -164 c 1
 170 -179 l 1
EndSplineSet
EndChar

StartChar: parenright
Encoding: 41 41 9
Width: 333
Flags: HMW
HStem: -179 21G<-27 -27> 665 20G<128 128>
VStem: 177 94<195 338>
LayerCount: 2
Fore
SplineSet
-44 -159 m 1
 -27 -179 l 1
 152 -62 271 94 271 296 c 0
 271 447 212 580 128 685 c 1
 105 670 l 1
 168 575 177 380 177 296 c 0
 177 87 95 -23 -44 -159 c 1
EndSplineSet
EndChar

StartChar: asterisk
Encoding: 42 42 10
Width: 500
Flags: HMW
HStem: 249 21G<248.5 276.5> 333 108 495 106 665 20G<241.5 274>
VStem: 213 99 406 50
LayerCount: 2
Fore
SplineSet
243 448 m 1
 253 444 l 1
 253 408 243 384 234 365 c 0
 223 342 209 327 210 304 c 0
 211 263 236 249 261 249 c 0
 292 249 308 275 308 303 c 0
 308 327 298 340 286 367 c 0
 278 386 270 407 270 442 c 1
 278 448 l 1
 305 435 317 417 336 392 c 0
 363 355 375 334 406 334 c 0
 411 334 456 339 456 383 c 0
 456 423 406 437 362 440 c 0
 326 443 304 450 287 462 c 1
 287 472 l 1
 308 488 337 494 364 495 c 0
 409 498 456 506 456 554 c 0
 456 570 441 601 406 601 c 0
 373 601 362 580 342 551 c 0
 326 528 312 508 281 487 c 1
 269 492 l 1
 269 535 278 557 289 576 c 0
 300 595 309 609 309 632 c 0
 309 663 288 685 260 685 c 0
 223 685 211 656 211 632 c 0
 211 608 220 593 231 574 c 0
 242 555 252 534 252 493 c 1
 245 488 l 1
 232 489 207 516 182 547 c 0
 161 573 148 601 120 601 c 0
 77 601 65 578 65 550 c 0
 65 500 102 504 154 496 c 0
 179 493 219 484 235 473 c 1
 235 464 l 1
 220 445 189 442 157 439 c 0
 97 436 66 429 66 380 c 0
 66 349 91 333 116 333 c 0
 148 333 168 371 184 392 c 0
 199 409 214 429 243 448 c 1
EndSplineSet
EndChar

StartChar: plus
Encoding: 43 43 11
Width: 570
Flags: HMW
HStem: 0 21G<249 313 249 249> 220 65<33 249 33 249 33 313 313 537> 486 20G<249 313 313 313>
VStem: 239 90 249 64<0 220 0 220 285 506>
LayerCount: 2
Fore
SplineSet
33 220 m 1
 33 285 l 1
 249 285 l 1
 249 506 l 1
 313 506 l 1
 313 285 l 1
 537 285 l 1
 537 220 l 1
 313 220 l 1
 313 0 l 1
 249 0 l 1
 249 220 l 1
 33 220 l 1
EndSplineSet
EndChar

StartChar: comma
Encoding: 44 44 12
Width: 250
Flags: HMW
HStem: -182 21G<-47 -47> 114 20G<37.5 71.5>
VStem: -12 156<46 79 -27.5 82> 58 86<-68 79>
LayerCount: 2
Fore
SplineSet
-60 -158 m 1
 -41 -148 58 -96 58 -40 c 0
 58 -18 38 -8 19 5 c 0
 3 17 -12 31 -12 61 c 0
 -12 103 17 134 58 134 c 0
 85 134 144 119 144 39 c 0
 144 -94 -32 -178 -47 -182 c 1
 -60 -158 l 1
EndSplineSet
EndChar

StartChar: hyphen
Encoding: 45 45 13
Width: 333
Flags: HMW
HStem: 166 116<2 271 28 246>
LayerCount: 2
Fore
SplineSet
2 166 m 1
 28 282 l 1
 271 282 l 1
 246 166 l 1
 2 166 l 1
EndSplineSet
EndChar

StartChar: period
Encoding: 46 46 14
Width: 250
Flags: HMW
HStem: -13 148<43.5 85.5 43.5 85.5>
VStem: -9 148<40.5 81>
LayerCount: 2
Fore
SplineSet
-9 61 m 0
 -9 101 22 135 65 135 c 0
 106 135 139 102 139 61 c 0
 139 19 106 -13 65 -13 c 0
 21 -13 -9 20 -9 61 c 0
EndSplineSet
EndChar

StartChar: slash
Encoding: 47 47 15
Width: 278
Flags: HMW
HStem: -18 21G<-64 2 -64 -64> 665 20G<272 342 342 342>
LayerCount: 2
Fore
SplineSet
2 -18 m 1
 -64 -18 l 1
 272 685 l 1
 342 685 l 1
 2 -18 l 1
EndSplineSet
EndChar

StartChar: zero
Encoding: 48 48 16
Width: 500
Flags: HMW
HStem: -14 29<109.5 227 109.5 251> 654 29<295.5 342.5>
VStem: 374 103<341 597.5>
LayerCount: 2
Fore
SplineSet
201 444 m 0
 195 424 50 15 169 15 c 0
 285 15 374 505 374 573 c 0
 374 622 361 654 324 654 c 0
 267 654 224 518 201 444 c 0
17 207 m 0
 17 413 145 683 324 683 c 0
 413 683 477 587 477 458 c 0
 477 224 333 -14 169 -14 c 0
 42 -14 17 116 17 207 c 0
EndSplineSet
EndChar

StartChar: one
Encoding: 49 49 17
Width: 500
Flags: HMW
HStem: 0 33<5 5 322 350> 663 20G<419 419>
LayerCount: 2
Fore
SplineSet
5 0 m 1
 5 33 l 1
 50 34 113 37 124 79 c 2
 256 578 l 2
 257 582 257 586 257 589 c 0
 257 612 222 613 214 613 c 0
 194 613 167 611 147 608 c 1
 149 631 l 1
 296 653 353 667 419 683 c 1
 253 79 l 2
 252 74 251 70 251 66 c 0
 251 36 294 33 350 33 c 1
 350 0 l 1
 5 0 l 1
EndSplineSet
EndChar

StartChar: two
Encoding: 50 50 18
Width: 500
Flags: HMW
HStem: 0 111<106 255 255 295.5 106 340> 171 20G<394 419 419 419> 593 90<220.5 265.5>
VStem: 312 134<450.5 498.5>
LayerCount: 2
Fore
SplineSet
-27 0 m 1
 -27 24 l 1
 156 207 156 207 205 266 c 0
 262 336 312 412 312 489 c 0
 312 508 312 593 219 593 c 0
 143 593 100 528 86 507 c 1
 64 519 l 1
 92 578 158 683 283 683 c 0
 388 683 446 614 446 489 c 0
 446 410 370 336 302 278 c 2
 106 111 l 1
 255 111 l 2
 336 111 360 129 394 191 c 1
 419 191 l 1
 340 0 l 1
 -27 0 l 1
EndSplineSet
EndChar

StartChar: three
Encoding: 51 51 19
Width: 500
Flags: HMW
HStem: -13 40<158.5 198> 103 20G<33.5 53.5> 612 71<252 267>
VStem: 285 123<163.5 260> 321 129<513 554>
LayerCount: 2
Fore
SplineSet
128 347 m 1
 132 369 l 1
 176 377 321 417 321 534 c 0
 321 574 298 612 236 612 c 0
 172 612 145 572 118 537 c 1
 97 550 l 1
 137 614 200 683 304 683 c 0
 369 683 450 626 450 534 c 0
 450 492 433 448 331 397 c 1
 375 365 408 311 408 210 c 0
 408 84 276 -13 120 -13 c 0
 -8 -13 -15 52 -15 63 c 0
 -15 116 25 123 42 123 c 0
 65 123 81 100 100 77 c 0
 120 52 141 27 176 27 c 0
 234 27 285 117 285 210 c 0
 285 310 228 347 128 347 c 1
EndSplineSet
EndChar

StartChar: four
Encoding: 52 52 20
Width: 500
Flags: HMW
HStem: 0 21G<188 316 188 188> 150 98<53 229 -15 256 384 426> 663 20G<437 503 503 503>
VStem: 188 128<0 0> 437 66<683 683>
LayerCount: 2
Fore
SplineSet
332 525 m 1
 53 248 l 1
 256 248 l 1
 334 523 l 1
 332 525 l 1
229 150 m 1
 -15 150 l 1
 13 255 l 1
 437 683 l 1
 503 683 l 1
 384 248 l 1
 453 248 l 1
 426 150 l 1
 358 150 l 1
 316 0 l 1
 188 0 l 1
 229 150 l 1
EndSplineSet
EndChar

StartChar: five
Encoding: 53 53 21
Width: 500
Flags: HMW
HStem: -13 40<157 192.5> -13 136<34 192.5> 372 112<73 235> 560 109<204 451 197 487>
VStem: 307 105<169 238>
LayerCount: 2
Fore
SplineSet
73 372 m 1
 204 669 l 1
 487 669 l 1
 451 560 l 1
 197 560 l 1
 163 484 l 1
 307 484 412 344 412 253 c 0
 412 85 267 -13 118 -13 c 0
 22 -13 -11 33 -11 63 c 0
 -11 107 20 123 48 123 c 0
 83 123 100 102 114 79 c 0
 130 54 142 27 172 27 c 0
 250 27 307 112 307 187 c 0
 307 289 223 372 73 372 c 1
EndSplineSet
EndChar

StartChar: six
Encoding: 54 54 22
Width: 500
Flags: HMW
HStem: -15 32<164 207.5 164 262.5> 382 39<234 346.5> 659 20G<503 503>
VStem: 23 112<82.5 292> 295 124
LayerCount: 2
Fore
SplineSet
135 95 m 0
 135 70 136 17 192 17 c 0
 223 17 248 41 266 88 c 0
 269 99 319 235 319 311 c 0
 319 331 319 382 256 382 c 0
 212 382 210 374 178 291 c 0
 157 232 135 155 135 95 c 0
231 409 m 1
 255 418 285 421 314 421 c 0
 379 421 443 374 443 250 c 0
 443 94 324 -15 201 -15 c 0
 43 -15 23 125 23 201 c 0
 23 383 174 631 503 679 c 1
 509 655 l 1
 361 601 279 508 231 409 c 1
EndSplineSet
EndChar

StartChar: seven
Encoding: 55 55 23
Width: 500
Flags: HMW
HStem: 0 21G<52 144 52 52> 556 113<196.5 251 251 374>
VStem: 83 468
LayerCount: 2
Fore
SplineSet
144 0 m 1
 52 0 l 1
 374 556 l 1
 251 556 l 2
 142 556 118 540 83 479 c 1
 57 479 l 1
 144 669 l 1
 525 669 l 1
 144 0 l 1
EndSplineSet
EndChar

StartChar: eight
Encoding: 56 56 24
Width: 500
Flags: HMW
HStem: -13 30<159 234 159 258.5> 650 33<272.5 325.5>
VStem: 3 97<134 184.5 115 214> 109 111<522.5 565> 306 113<131.5 175> 383 93<510 577>
LayerCount: 2
Fore
SplineSet
310 403 m 1
 345 440 383 478 383 542 c 0
 383 612 349 650 302 650 c 0
 243 650 220 595 220 553 c 0
 220 492 262 448 310 403 c 1
209 321 m 1
 151 282 100 232 100 137 c 0
 100 93 118 17 200 17 c 0
 268 17 306 82 306 145 c 0
 306 205 285 231 209 321 c 1
183 340 m 1
 183 345 l 1
 150 380 109 452 109 529 c 0
 109 601 192 683 302 683 c 0
 356 683 476 651 476 542 c 0
 476 455 410 412 333 381 c 1
 333 376 l 1
 360 347 419 284 419 194 c 0
 419 69 317 -13 200 -13 c 0
 19 -13 3 118 3 150 c 0
 3 278 133 323 183 340 c 1
EndSplineSet
EndChar

StartChar: nine
Encoding: 57 57 25
Width: 500
Flags: HMW
HStem: -10 21G<-6 -6> 225 20G<158.5 217.5> 651 32<296 338.5>
LayerCount: 2
Fore
SplineSet
-6 -10 m 1
 -12 15 l 1
 105 47 211 142 265 259 c 1
 247 251 231 245 204 245 c 0
 113 245 53 313 53 412 c 0
 53 528 140 683 313 683 c 0
 423 683 475 598 475 466 c 0
 475 316 354 41 -6 -10 c 1
177 356 m 0
 177 289 227 288 242 288 c 0
 273 288 288 293 320 377 c 0
 360 479 363 572 363 575 c 0
 363 604 364 651 313 651 c 0
 279 651 252 622 232 583 c 0
 196 513 177 377 177 356 c 0
EndSplineSet
EndChar

StartChar: colon
Encoding: 58 58 26
Width: 333
Flags: HMW
HStem: -13 146<75.5 117.5 75.5 117.5> 312 147<168.5 210.5 168.5 210.5>
VStem: 23 148<40.5 81> 116 148<365.5 406>
LayerCount: 2
Fore
SplineSet
116 386 m 0
 116 426 147 459 190 459 c 0
 231 459 264 427 264 386 c 0
 264 344 231 312 190 312 c 0
 146 312 116 345 116 386 c 0
23 61 m 0
 23 101 54 133 97 133 c 0
 138 133 171 102 171 61 c 0
 171 19 138 -13 97 -13 c 0
 53 -13 23 20 23 61 c 0
EndSplineSet
EndChar

StartChar: semicolon
Encoding: 59 59 27
Width: 333
Flags: HMW
HStem: -183 21G<-12 -12> 113 20G<72.5 107> 312 147<168.5 210.5 168.5 210.5>
VStem: 23 156<43.5 76.5 -29 80.5> 93 86<-70.5 76.5> 116 148<365.5 406>
LayerCount: 2
Fore
SplineSet
116 386 m 0
 116 345 146 312 190 312 c 0
 231 312 264 343 264 386 c 0
 264 427 231 459 190 459 c 0
 147 459 116 426 116 386 c 0
-25 -159 m 1
 -12 -183 l 1
 3 -179 179 -95 179 37 c 0
 179 116 121 133 93 133 c 0
 52 133 23 102 23 59 c 0
 23 28 39 14 56 2 c 0
 75 -11 93 -19 93 -42 c 0
 93 -99 -6 -148 -25 -159 c 1
EndSplineSet
EndChar

StartChar: less
Encoding: 60 60 28
Width: 570
Flags: HMW
HStem: -8 21G<489 489> 494 20G<539 539>
VStem: 31 508<225 514 281 514>
LayerCount: 2
Fore
SplineSet
489 -8 m 1
 31 225 l 1
 31 281 l 1
 539 514 l 1
 539 446 l 1
 119 253 l 1
 489 60 l 1
 489 -8 l 1
EndSplineSet
EndChar

StartChar: equal
Encoding: 61 61 29
Width: 570
Flags: HMW
HStem: 102 90 274 89 327 68
LayerCount: 2
Fore
SplineSet
33 107 m 1
 33 172 l 1
 487 172 l 1
 487 107 l 1
 33 107 l 1
83 331 m 1
 83 399 l 1
 537 399 l 1
 537 331 l 1
 83 331 l 1
EndSplineSet
EndChar

StartChar: greater
Encoding: 62 62 30
Width: 570
Flags: HMW
HStem: -8 21G<31 31> 494 20G<81 81>
LayerCount: 2
Fore
SplineSet
539 225 m 1
 31 -8 l 1
 31 60 l 1
 451 253 l 1
 81 446 l 1
 81 514 l 1
 539 281 l 1
 539 225 l 1
EndSplineSet
EndChar

StartChar: question
Encoding: 63 63 31
Width: 500
Flags: HMW
HStem: -13 148<131.5 173.5 131.5 173.5> 488 196<162.5 357.5> 653 31<269 298.5>
VStem: 79 148<40.5 81> 119 122<536 557 530 588> 343 127<544 563.5 501 604>
LayerCount: 2
Fore
SplineSet
79 61 m 0
 79 101 110 135 153 135 c 0
 194 135 227 102 227 61 c 0
 227 19 194 -13 153 -13 c 0
 109 -13 79 20 79 61 c 0
167 215 m 1
 170 248 177 298 238 374 c 0
 317 467 343 517 343 571 c 0
 343 637 314 653 283 653 c 0
 255 653 212 636 212 615 c 0
 212 606 218 599 225 590 c 0
 233 580 241 567 241 547 c 0
 241 513 212 488 180 488 c 0
 145 488 119 518 119 554 c 0
 119 622 174 684 283 684 c 0
 432 684 470 587 470 540 c 0
 470 462 411 413 278 326 c 0
 235 298 220 267 196 208 c 1
 167 215 l 1
EndSplineSet
EndChar

StartChar: at
Encoding: 64 64 32
Width: 832
Flags: HMW
HStem: -18 46<359.5 485> 123 20G<355.5 400> 142 37<581.5 635.5 581.5 641.5> 142 48 195 20G<488 490 488 488> 467 48<460 497 404.5 498.5> 646 39<361 526.5>
VStem: 63 91<248.5 427> 272 76<248 316> 724 46<340.5 442>
LayerCount: 2
Fore
SplineSet
490 215 m 1
 488 215 l 1
 477 199 430 143 370 143 c 0
 341 143 272 167 272 278 c 0
 272 354 336 515 473 515 c 0
 521 515 531 488 545 463 c 1
 556 501 l 1
 627 501 l 1
 562 244 l 2
 561 237 560 231 560 224 c 0
 560 204 566 179 597 179 c 0
 674 179 724 297 724 384 c 0
 724 500 618 646 435 646 c 0
 287 646 154 544 154 317 c 0
 154 173 274 28 445 28 c 0
 536 28 588 49 647 76 c 1
 660 41 l 1
 595 10 525 -18 445 -18 c 0
 179 -18 63 180 63 317 c 0
 63 537 235 685 435 685 c 0
 623 685 770 556 770 384 c 0
 770 280 702 142 581 142 c 0
 513 142 490 202 490 215 c 1
348 278 m 0
 348 218 376 190 409 190 c 0
 453 190 528 260 528 402 c 0
 528 445 513 467 484 467 c 0
 436 467 348 398 348 278 c 0
EndSplineSet
EndChar

StartChar: A
Encoding: 65 65 33
Width: 667
Flags: HMW
HStem: 0 35<107 129 -67 -67 289 311.5> 208 40<161 346 161 353 138 346> 663 20G<388 413 413 413>
VStem: -75 660
LayerCount: 2
Fore
SplineSet
309 491 m 1
 161 248 l 1
 346 248 l 1
 309 491 l 1
129 0 m 1
 -67 0 l 1
 -67 35 l 1
 -38 44 -22 32 16 91 c 2
 388 683 l 1
 413 683 l 1
 509 91 l 2
 517 44 532 40 593 35 c 1
 593 0 l 1
 289 0 l 1
 289 35 l 1
 334 35 368 43 368 91 c 0
 368 111 369 102 353 208 c 1
 138 208 l 1
 69 91 l 2
 66 84 64 79 64 74 c 0
 64 54 85 35 129 35 c 1
 129 0 l 1
EndSplineSet
EndChar

StartChar: B
Encoding: 66 66 34
Width: 667
Flags: HMW
HStem: 0 32<240 259> 338 30<277 305> 637 35
VStem: 426 153 477 95 477 147<468.5 556>
LayerCount: 2
Fore
SplineSet
277 368 m 1
 357 368 477 365 477 529 c 0
 477 583 457 637 387 637 c 0
 349 637 343 613 338 593 c 2
 277 368 l 1
269 338 m 1
 203 94 l 2
 199 83 198 75 198 67 c 0
 198 42 221 32 259 32 c 0
 394 32 419 164 419 208 c 0
 419 317 341 338 269 338 c 1
-24 0 m 1
 -24 35 l 1
 11 40 39 45 56 107 c 2
 189 589 l 1
 189 629 158 634 116 634 c 1
 116 669 l 1
 388 669 l 2
 447 669 624 668 624 529 c 0
 624 408 504 372 438 356 c 1
 438 354 l 1
 489 338 572 310 572 208 c 0
 572 51 406 0 259 0 c 2
 -24 0 l 1
EndSplineSet
EndChar

StartChar: C
Encoding: 67 67 35
Width: 667
Flags: HMW
HStem: -18 53<323 369> 650 35<370.5 478.5 329.5 495>
VStem: 32 154<144.5 322.5 144.5 345>
LayerCount: 2
Fore
SplineSet
546 153 m 1
 576 131 l 1
 525 54 434 -18 304 -18 c 0
 174 -18 32 53 32 234 c 0
 32 456 208 685 451 685 c 0
 506 685 544 674 571 665 c 0
 586 660 598 656 607 656 c 0
 629 656 637 669 647 685 c 1
 677 685 l 1
 626 451 l 1
 594 457 l 1
 596 470 597 483 597 495 c 0
 597 584 539 650 451 650 c 0
 290 650 186 411 186 234 c 0
 186 55 316 35 330 35 c 0
 409 35 473 61 546 153 c 1
EndSplineSet
EndChar

StartChar: D
Encoding: 68 68 36
Width: 722
Flags: HMW
HStem: 0 34<215 240> 638 31<368.5 384 384 456.5>
VStem: 538 147<340 438.5>
LayerCount: 2
Fore
SplineSet
-46 0 m 1
 -46 35 l 1
 -13 40 19 48 41 126 c 0
 159 545 167 570 167 590 c 0
 167 623 156 625 94 634 c 1
 94 669 l 1
 384 669 l 2
 571 669 685 571 685 391 c 0
 685 224 558 1 240 0 c 2
 -46 0 l 1
190 126 m 2
 184 105 180 87 180 72 c 0
 180 48 194 34 236 34 c 0
 495 34 538 289 538 391 c 0
 538 486 537 638 376 638 c 0
 361 638 329 641 318 600 c 2
 190 126 l 2
EndSplineSet
EndChar

StartChar: E
Encoding: 69 69 37
Width: 667
Flags: HMW
HStem: 0 32<233 320 233 527> 338 32<275 275 275 322> 637 32<373 488.5>
LayerCount: 2
Fore
SplineSet
-27 0 m 1
 -27 35 l 1
 13 42 36 45 53 107 c 2
 186 592 l 1
 186 624 175 626 113 634 c 1
 113 669 l 1
 653 669 l 1
 610 479 l 1
 583 484 l 1
 583 558 583 637 394 637 c 0
 352 637 344 621 336 593 c 2
 275 370 l 1
 422 369 437 395 480 476 c 1
 508 472 l 1
 434 199 l 1
 406 204 l 1
 408 220 410 234 410 247 c 0
 410 310 378 338 266 338 c 1
 205 107 l 2
 200 88 192 72 192 59 c 0
 192 42 206 32 260 32 c 0
 380 32 492 73 561 199 c 1
 586 194 l 1
 527 0 l 1
 -27 0 l 1
EndSplineSet
EndChar

StartChar: F
Encoding: 70 70 38
Width: 667
Flags: HMW
HStem: 0 21G<-13 -13 -13 282> 338 32<289 335> 637 32<389.5 499.5>
LayerCount: 2
Fore
SplineSet
-13 0 m 1
 -8 35 l 1
 32 42 63 44 72 80 c 2
 200 592 l 2
 201 598 202 603 202 607 c 0
 202 624 177 628 127 634 c 1
 127 669 l 1
 660 669 l 1
 617 479 l 1
 590 484 l 1
 590 552 590 637 409 637 c 0
 370 637 359 625 350 593 c 2
 289 370 l 1
 431 370 443 392 487 476 c 1
 515 472 l 1
 441 199 l 1
 413 204 l 1
 415 219 417 233 417 246 c 0
 417 307 390 338 280 338 c 1
 216 80 l 2
 215 76 215 72 215 69 c 0
 215 46 241 35 287 35 c 1
 282 0 l 1
 -13 0 l 1
EndSplineSet
EndChar

StartChar: G
Encoding: 71 71 39
Width: 722
Flags: HMW
HStem: -18 38<321.5 360 321.5 360> 294 36<419 706 419 706> 649 36<362 476 311.5 497.5>
VStem: 21 156<155.5 341>
LayerCount: 2
Fore
SplineSet
419 294 m 1
 419 330 l 1
 706 330 l 1
 706 294 l 1
 653 290 645 291 627 222 c 2
 579 41 l 1
 567 32 l 1
 513 7 398 -18 322 -18 c 0
 157 -18 21 64 21 241 c 0
 21 441 181 685 442 685 c 0
 510 685 545 674 569 665 c 0
 584 660 595 655 608 655 c 0
 636 655 645 675 650 685 c 1
 681 685 l 1
 630 464 l 1
 601 468 l 1
 601 569 553 649 442 649 c 0
 282 649 177 452 177 241 c 0
 177 70 305 20 338 20 c 0
 382 20 425 33 439 56 c 0
 443 63 486 187 493 222 c 0
 495 232 496 242 496 249 c 0
 496 287 465 290 419 294 c 1
EndSplineSet
EndChar

StartChar: H
Encoding: 72 72 40
Width: 778
Flags: HMW
HStem: 0 35<-24 -24 -24 272> 329 44<278 505 266 517> 634 35<116 433 116 433>
LayerCount: 2
Fore
SplineSet
-24 0 m 1
 -24 35 l 1
 13 41 46 46 57 87 c 2
 189 572 l 2
 190 578 191 583 191 588 c 0
 191 611 167 627 116 634 c 1
 116 669 l 1
 433 669 l 1
 433 634 l 1
 377 632 348 632 332 572 c 2
 278 373 l 1
 517 373 l 1
 574 572 l 2
 575 577 576 582 576 587 c 0
 576 610 554 626 501 634 c 1
 501 669 l 1
 799 669 l 1
 799 634 l 1
 759 628 734 634 718 572 c 2
 585 87 l 2
 584 83 584 79 584 76 c 0
 584 48 623 36 657 35 c 1
 657 0 l 1
 340 0 l 1
 340 35 l 1
 416 38 434 55 442 87 c 2
 505 329 l 1
 266 329 l 1
 200 87 l 2
 199 82 198 78 198 74 c 0
 198 48 227 38 272 35 c 1
 272 0 l 1
 -24 0 l 1
EndSplineSet
EndChar

StartChar: I
Encoding: 73 73 41
Width: 389
Flags: HMW
HStem: 0 21G<-32 -32 -32 264> 634 35<108 406 108 406>
LayerCount: 2
Fore
SplineSet
-32 0 m 1
 -32 35 l 1
 11 41 38 51 49 93 c 2
 181 576 l 2
 182 580 183 585 184 590 c 0
 187 607 166 629 108 634 c 1
 108 669 l 1
 406 669 l 1
 406 634 l 1
 368 629 349 627 334 576 c 2
 193 93 l 2
 192 88 192 83 192 78 c 0
 192 53 221 37 264 35 c 1
 264 0 l 1
 -32 0 l 1
EndSplineSet
EndChar

StartChar: J
Encoding: 74 74 42
Width: 500
Flags: HMW
HStem: -70 171 649 20G<227 524 524 524>
VStem: -46 127 -46 570
LayerCount: 2
Fore
SplineSet
227 634 m 1
 227 669 l 1
 524 669 l 1
 524 634 l 1
 477 626 462 629 443 572 c 2
 335 163 l 2
 308 61 257 -29 125 -29 c 0
 44 -29 -26 10 -26 71 c 0
 -26 114 2 142 37 142 c 0
 72 142 101 116 101 80 c 0
 101 61 96 54 89 47 c 0
 82 40 78 36 78 23 c 0
 78 9 83 2 93 2 c 0
 117 2 163 44 195 163 c 2
 300 572 l 2
 301 579 302 584 302 588 c 0
 302 612 277 627 227 634 c 1
EndSplineSet
EndChar

StartChar: K
Encoding: 75 75 43
Width: 667
Flags: HMW
HStem: 0 21G<-21 -21 -21 268 332 332 332 612> 649 20G<119 429 429 429 491 702 702 702>
LayerCount: 2
Fore
SplineSet
-21 0 m 1
 -21 35 l 1
 14 40 41 43 59 107 c 2
 192 572 l 2
 194 578 194 584 194 589 c 0
 194 612 169 627 119 634 c 1
 119 669 l 1
 429 669 l 1
 429 634 l 1
 379 630 351 630 335 572 c 2
 275 351 l 1
 280 350 l 1
 319 405 547 581 547 606 c 0
 547 628 530 630 491 634 c 1
 491 669 l 1
 702 669 l 1
 702 634 l 1
 666 629 653 628 608 586 c 2
 392 398 l 1
 549 70 l 2
 563 40 586 38 612 35 c 1
 612 0 l 1
 332 0 l 1
 332 35 l 1
 390 42 397 43 397 66 c 0
 397 69 385 92 276 325 c 1
 268 327 l 1
 204 98 l 2
 203 92 202 87 202 82 c 0
 202 48 229 35 268 35 c 1
 268 0 l 1
 -21 0 l 1
EndSplineSet
EndChar

StartChar: L
Encoding: 76 76 44
Width: 611
Flags: HMW
HStem: 0 32<238 325 238 531> 634 35<118 435 118 435>
LayerCount: 2
Fore
SplineSet
-22 0 m 1
 -22 35 l 1
 21 41 42 50 58 107 c 2
 191 572 l 2
 193 578 193 584 193 589 c 0
 193 611 170 627 118 634 c 1
 118 669 l 1
 435 669 l 1
 435 634 l 1
 379 631 350 632 334 572 c 2
 205 94 l 2
 202 81 198 70 198 61 c 0
 198 43 211 32 265 32 c 0
 385 32 497 74 566 199 c 1
 590 194 l 1
 531 0 l 1
 -22 0 l 1
EndSplineSet
EndChar

StartChar: M
Encoding: 77 77 45
Width: 889
Flags: HMW
HStem: -12 21G<285 313 285 285> 0 35<-29 -29 148.5 178 748 775> 172 20G<395 397 397 397> 649 20G<120 341 341 341 705 917 917 917>
LayerCount: 2
Fore
SplineSet
-29 0 m 1
 -29 35 l 1
 20 47 32 40 72 178 c 2
 192 599 l 1
 192 630 173 632 120 634 c 1
 120 669 l 1
 341 669 l 1
 395 192 l 1
 397 192 l 1
 705 669 l 1
 917 669 l 1
 917 634 l 1
 877 628 852 624 836 562 c 2
 713 117 l 2
 708 97 704 80 704 67 c 0
 704 46 721 35 775 35 c 1
 775 0 l 1
 463 0 l 1
 463 35 l 1
 519 39 547 58 563 117 c 2
 686 552 l 1
 684 554 l 1
 313 -12 l 1
 285 -12 l 1
 219 542 l 1
 217 542 l 1
 117 178 l 2
 109 150 101 118 101 92 c 0
 101 59 119 35 178 35 c 1
 178 0 l 1
 -29 0 l 1
EndSplineSet
EndChar

StartChar: N
Encoding: 78 78 46
Width: 722
Flags: HMW
HStem: -15 21G<475 503 475 475> 0 35<-27 -27 152 181> 634 35<111 306>
LayerCount: 2
Fore
SplineSet
-27 0 m 1
 -27 35 l 1
 27 48 38 32 68 138 c 2
 194 589 l 1
 175 633 164 629 111 634 c 1
 111 669 l 1
 306 669 l 1
 521 204 l 1
 601 491 l 2
 609 517 615 550 615 578 c 0
 615 610 603 635 567 635 c 0
 559 635 550 636 539 634 c 1
 539 669 l 1
 748 669 l 1
 748 634 l 1
 695 621 685 629 646 491 c 2
 503 -15 l 1
 475 -15 l 1
 218 534 l 1
 113 138 l 2
 108 121 105 105 105 90 c 0
 105 53 123 35 181 35 c 1
 181 0 l 1
 -27 0 l 1
EndSplineSet
EndChar

StartChar: O
Encoding: 79 79 47
Width: 722
Flags: HMW
HStem: -18 34<247.5 366 247.5 391.5> 651 34<348 492>
VStem: 27 144<158.5 196 100 329.5> 547 144<466 529 345 534.5>
LayerCount: 2
Fore
SplineSet
27 207 m 0
 27 452 228 685 447 685 c 0
 556 685 691 616 691 442 c 0
 691 248 516 -18 267 -18 c 0
 100 -18 27 110 27 207 c 0
171 150 m 0
 171 50 218 16 277 16 c 0
 455 16 547 408 547 524 c 0
 547 545 544 651 440 651 c 0
 256 651 171 242 171 150 c 0
EndSplineSet
EndChar

StartChar: P
Encoding: 80 80 48
Width: 611
Flags: HMW
HStem: 0 21G<-27 -27 -27 267> 322 32<269 332.5> 637 32<362.5 400 400 424.5>
VStem: 467 146<460 522.5>
LayerCount: 2
Fore
SplineSet
-27 0 m 1
 -27 35 l 1
 13 42 46 75 63 137 c 2
 186 592 l 2
 187 597 188 602 188 606 c 0
 188 624 164 627 113 634 c 1
 113 669 l 1
 400 669 l 2
 506 669 613 638 613 512 c 0
 613 347 406 322 259 322 c 1
 205 137 l 2
 202 123 199 110 199 98 c 0
 199 59 218 35 267 35 c 1
 267 0 l 1
 -27 0 l 1
269 354 m 1
 412 354 467 408 467 512 c 0
 467 533 467 637 382 637 c 0
 343 637 337 614 333 593 c 2
 269 354 l 1
EndSplineSet
EndChar

StartChar: Q
Encoding: 81 81 49
Width: 722
Flags: HMW
HStem: -208 93<468.5 470> -161 178<143.5 364> -17 34<252 364 245.5 373> 651 34<350 494>
VStem: 27 144<165.5 196 100 329.5> 547 144<468 531 340 536.5>
LayerCount: 2
Fore
SplineSet
28 -165 m 1
 200 -22 200 -22 203 -16 c 1
 199 -11 199 -11 189 -7 c 0
 76 24 27 124 27 207 c 0
 27 452 230 685 449 685 c 0
 558 685 691 618 691 444 c 0
 691 236 494 -17 252 -17 c 1
 237 -31 206 -60 206 -65 c 0
 206 -69 228 -70 265 -75 c 0
 299 -79 344 -87 396 -103 c 0
 423 -112 454 -115 483 -115 c 0
 544 -115 602 -91 634 -40 c 1
 655 -59 l 1
 611 -120 540 -208 400 -208 c 0
 351 -208 315 -200 283 -190 c 0
 240 -177 205 -161 154 -161 c 0
 133 -161 99 -166 42 -189 c 1
 28 -165 l 1
171 150 m 0
 171 50 216 17 275 17 c 0
 453 17 547 410 547 526 c 0
 547 547 546 651 442 651 c 0
 258 651 171 242 171 150 c 0
EndSplineSet
EndChar

StartChar: R
Encoding: 82 82 50
Width: 667
Flags: HMW
HStem: 0 21G<-29 -29 -29 267 400 400 400 602> 637 32<361.5 387 387 410>
VStem: 472 151<486 554>
LayerCount: 2
Fore
SplineSet
-29 0 m 1
 -29 35 l 1
 15 40 35 50 51 107 c 2
 184 583 l 2
 185 590 186 594 186 598 c 0
 186 618 163 627 111 634 c 1
 111 669 l 1
 387 669 l 2
 447 669 623 669 623 524 c 0
 623 448 562 364 431 343 c 1
 514 107 l 2
 536 42 554 40 602 35 c 1
 602 0 l 1
 400 0 l 1
 293 331 l 1
 264 331 l 1
 209 107 l 2
 206 94 204 84 204 75 c 0
 204 38 230 35 267 35 c 1
 267 0 l 1
 -29 0 l 1
273 363 m 1
 392 363 472 422 472 524 c 0
 472 584 442 637 378 637 c 0
 345 637 338 616 333 593 c 2
 273 363 l 1
EndSplineSet
EndChar

StartChar: S
Encoding: 83 83 51
Width: 556
Flags: HMW
HStem: -18 34<201.5 278 201 300> 650 35<267 332.5 251.5 375> 661 20G<496 526 526 526>
VStem: 102 121<515.5 538.5> 347 121<172 214>
LayerCount: 2
Fore
SplineSet
2 -18 m 1
 38 206 l 1
 67 204 l 1
 67 32 180 16 222 16 c 0
 334 16 347 162 347 182 c 0
 347 246 285 283 224 323 c 0
 163 363 102 408 102 488 c 0
 102 589 185 685 318 685 c 0
 347 685 374 677 397 669 c 0
 420 662 437 655 452 655 c 0
 456 655 483 656 496 681 c 1
 526 681 l 1
 486 480 l 1
 459 484 l 1
 459 540 432 650 318 650 c 0
 216 650 223 555 223 543 c 0
 223 488 291 445 355 394 c 0
 413 349 468 294 468 222 c 0
 468 90 378 -18 222 -18 c 0
 181 -18 150 -7 123 2 c 0
 100 10 85 17 72 17 c 0
 47 17 43 5 32 -18 c 1
 2 -18 l 1
EndSplineSet
EndChar

StartChar: T
Encoding: 84 84 52
Width: 611
Flags: HMW
HStem: 0 35<50 52 52 52 354 381> 634 35<255.5 303 449 475.5>
LayerCount: 2
Fore
SplineSet
50 0 m 1
 52 35 l 1
 97 33 138 38 157 107 c 2
 303 634 l 1
 208 634 137 593 86 491 c 1
 61 498 l 1
 99 669 l 1
 650 669 l 1
 614 477 l 1
 587 479 l 1
 587 628 502 634 449 634 c 1
 311 107 l 2
 307 92 304 80 304 71 c 0
 304 41 325 35 383 35 c 1
 381 0 l 1
 50 0 l 1
EndSplineSet
EndChar

StartChar: U
Encoding: 85 85 53
Width: 722
Flags: HMW
HStem: -18 56<278.5 390.5> 635 34<555.5 582.5>
VStem: 67 138<111 160 111 197>
LayerCount: 2
Fore
SplineSet
98 634 m 1
 98 669 l 1
 409 669 l 1
 409 634 l 1
 358 631 332 626 315 562 c 2
 233 272 l 2
 221 228 205 180 205 140 c 0
 205 82 229 38 328 38 c 0
 471 38 509 157 537 263 c 2
 617 558 l 2
 618 563 619 569 619 575 c 0
 619 600 606 635 559 635 c 0
 552 635 544 635 536 634 c 1
 536 669 l 1
 744 669 l 1
 744 634 l 1
 694 623 676 607 662 558 c 2
 576 263 l 2
 536 124 495 -18 286 -18 c 0
 179 -18 67 34 67 154 c 0
 67 240 171 516 171 562 c 0
 171 594 160 626 98 634 c 1
EndSplineSet
EndChar

StartChar: V
Encoding: 86 86 54
Width: 667
Flags: HMW
HStem: -25 21G 146 20G 165 20G<339 341 341 341> 621 35
VStem: 72 650
LayerCount: 2
Fore
SplineSet
231 -18 m 1
 142 565 l 2
 133 623 125 632 65 634 c 1
 65 669 l 1
 363 669 l 1
 363 634 l 1
 315 630 287 628 287 600 c 0
 287 593 287 584 288 573 c 2
 339 185 l 1
 341 185 l 1
 588 598 l 1
 588 629 570 630 523 634 c 1
 523 669 l 1
 715 669 l 1
 715 634 l 1
 678 623 662 603 656 594 c 2
 263 -18 l 1
 231 -18 l 1
EndSplineSet
EndChar

StartChar: W
Encoding: 87 87 55
Width: 889
Flags: HMW
HStem: -18 21G<220 220 220 249 541 541 541 570> 209 20G<321 323 323 323 645 647 647 647> 634 35<65 342>
LayerCount: 2
Fore
SplineSet
220 -18 m 1
 142 561 l 2
 131 633 129 624 65 635 c 1
 65 669 l 1
 342 669 l 1
 342 634 l 1
 310 631 281 622 281 585 c 0
 281 578 281 570 282 561 c 2
 321 229 l 1
 323 229 l 1
 471 537 l 1
 471 634 451 627 400 635 c 1
 400 669 l 1
 669 669 l 1
 669 634 l 1
 621 633 607 617 607 586 c 0
 607 567 609 546 612 521 c 2
 645 229 l 1
 647 229 l 1
 801 553 l 2
 811 573 816 590 816 604 c 0
 816 627 798 637 753 634 c 1
 753 669 l 1
 940 669 l 1
 940 635 l 1
 909 630 878 617 846 553 c 2
 570 -18 l 1
 541 -18 l 1
 482 468 l 1
 480 468 l 1
 249 -18 l 1
 220 -18 l 1
EndSplineSet
EndChar

StartChar: X
Encoding: 88 88 56
Width: 667
Flags: HMW
HStem: 0 35<-24 -24 -24 190> 634 35<100 405 100 405>
LayerCount: 2
Fore
SplineSet
-24 0 m 1
 -24 35 l 1
 7 44 14 48 36 67 c 0
 104 126 215 246 275 309 c 1
 191 571 l 2
 176 621 152 629 100 634 c 1
 100 669 l 1
 405 669 l 1
 405 634 l 1
 346 628 331 605 331 571 c 0
 331 552 367 473 382 421 c 1
 546 587 l 2
 550 591 551 595 551 599 c 0
 551 615 524 631 491 634 c 1
 491 669 l 1
 694 669 l 1
 694 634 l 1
 671 630 647 627 595 573 c 2
 396 378 l 1
 470 151 l 2
 497 65 510 42 586 35 c 1
 586 0 l 1
 278 0 l 1
 278 35 l 1
 314 38 346 40 346 74 c 0
 346 117 299 224 289 264 c 1
 115 77 l 1
 115 42 167 37 190 35 c 1
 190 0 l 1
 -24 0 l 1
EndSplineSet
EndChar

StartChar: Y
Encoding: 89 89 57
Width: 611
Flags: HMW
HStem: 0 35<73 73 73 395> 634 35<73 356 333 356>
LayerCount: 2
Fore
SplineSet
73 0 m 1
 73 35 l 1
 131 40 156 43 174 107 c 2
 234 313 l 1
 146 571 l 2
 128 626 121 627 73 634 c 1
 73 669 l 1
 356 669 l 1
 356 634 l 1
 310 634 281 625 281 598 c 0
 281 591 284 580 288 570 c 0
 298 544 296 552 363 352 c 1
 518 566 l 2
 528 579 532 591 532 601 c 0
 532 620 508 631 451 634 c 1
 451 669 l 1
 659 669 l 1
 659 634 l 1
 616 626 594 601 568 565 c 2
 378 308 l 1
 318 79 l 1
 318 38 349 37 395 35 c 1
 395 0 l 1
 73 0 l 1
EndSplineSet
EndChar

StartChar: Z
Encoding: 90 90 58
Width: 611
Flags: HMW
HStem: 0 35<156 226 226 277.5> 634 35<273 345 345 423>
LayerCount: 2
Fore
SplineSet
-11 0 m 1
 -11 39 l 1
 423 634 l 1
 345 634 l 2
 201 634 140 553 93 487 c 1
 65 491 l 1
 122 669 l 1
 590 669 l 1
 590 630 l 1
 156 35 l 1
 226 35 l 2
 329 35 465 67 527 199 c 1
 554 194 l 1
 495 0 l 1
 -11 0 l 1
EndSplineSet
EndChar

StartChar: bracketleft
Encoding: 91 91 59
Width: 333
Flags: HMW
HStem: -159 45<109 182> 629 45<265.5 284 284 355>
LayerCount: 2
Fore
SplineSet
-37 -159 m 1
 162 674 l 1
 362 674 l 1
 355 629 l 1
 284 629 l 2
 247 629 248 625 234 566 c 2
 76 -90 l 1
 76 -114 97 -114 109 -114 c 2
 189 -114 l 1
 182 -159 l 1
 -37 -159 l 1
EndSplineSet
EndChar

StartChar: backslash
Encoding: 92 92 60
Width: 278
Flags: HMW
HStem: -157 21G<138 138 138 197> -18 21G 665 20G<49 108 108 108>
LayerCount: 2
Fore
SplineSet
138 -157 m 1
 49 685 l 1
 108 685 l 1
 197 -157 l 1
 138 -157 l 1
EndSplineSet
EndChar

StartChar: bracketright
Encoding: 93 93 61
Width: 333
Flags: HMW
HStem: -157 45<-39 29 29 47.5 -39 153 -46 29> 629 45<133 204 126 353>
LayerCount: 2
Fore
SplineSet
-39 -112 m 1
 29 -112 l 2
 66 -112 68 -107 82 -49 c 2
 239 604 l 1
 239 626 215 629 204 629 c 2
 126 629 l 1
 133 674 l 1
 353 674 l 1
 153 -157 l 1
 -46 -157 l 1
 -39 -112 l 1
EndSplineSet
EndChar

StartChar: asciicircum
Encoding: 94 94 62
Width: 570
Flags: HMW
HStem: 304 21G<67 67 67 156 414 414 414 503> 649 20G<245 325 325 325>
LayerCount: 2
Fore
SplineSet
67 304 m 1
 245 669 l 1
 325 669 l 1
 503 304 l 1
 414 304 l 1
 285 573 l 1
 156 304 l 1
 67 304 l 1
EndSplineSet
EndChar

StartChar: underscore
Encoding: 95 95 63
Width: 500
Flags: HMW
HStem: -125 50<0 500 0 500>
LayerCount: 2
Fore
SplineSet
0 -75 m 1
 500 -75 l 1
 500 -125 l 1
 0 -125 l 1
 0 -75 l 1
EndSplineSet
EndChar

StartChar: grave
Encoding: 193 96 64
Width: 333
Flags: HMW
HStem: 516 21G<252 252 252 297> 677 20G<117.5 144.5>
LayerCount: 2
Fore
SplineSet
252 516 m 1
 119 605 l 2
 106 614 85 633 85 654 c 0
 85 675 104 697 131 697 c 0
 158 697 175 676 186 663 c 2
 297 516 l 1
 252 516 l 1
EndSplineSet
EndChar

StartChar: a
Encoding: 97 97 65
Width: 500
Flags: HMW
HStem: -14 21G<294.5 334.5> -13 71<38.5 189.5> 420 42<218 264.5> 436 20G<344 455 455 455>
VStem: -21 123<100.5 147.5 92 190.5>
LayerCount: 2
Fore
SplineSet
102 115 m 0
 102 69 132 58 146 58 c 0
 233 58 303 297 303 371 c 0
 303 413 269 420 260 420 c 0
 176 420 102 180 102 115 c 0
250 115 m 1
 248 114 l 1
 222 70 171 -13 88 -13 c 0
 -11 -13 -21 84 -21 117 c 0
 -21 264 138 462 260 462 c 0
 320 462 321 419 325 394 c 1
 327 394 l 1
 344 456 l 1
 455 456 l 1
 384 220 l 2
 370 173 350 108 350 72 c 0
 350 63 354 58 360 58 c 0
 380 58 423 99 434 127 c 1
 455 112 l 1
 422 60 365 -14 304 -14 c 0
 285 -14 237 0 237 52 c 0
 237 68 242 86 250 115 c 1
EndSplineSet
EndChar

StartChar: b
Encoding: 98 98 66
Width: 500
Flags: HMW
HStem: -13 33<138.5 197.5 138.5 208.5> 394 68<221 365> 679 20G<284 284>
VStem: 319 125<283.5 334.5>
LayerCount: 2
Fore
SplineSet
109 51 m 0
 109 20 136 20 141 20 c 0
 254 20 319 241 319 326 c 0
 319 343 319 394 273 394 c 0
 169 394 109 52 109 51 c 0
198 376 m 1
 232 422 271 462 334 462 c 0
 396 462 444 404 444 326 c 0
 444 157 292 -13 125 -13 c 0
 40 -13 -14 27 -14 47 c 0
 -14 76 139 571 139 609 c 0
 139 643 110 643 76 642 c 1
 76 669 l 1
 150 677 211 685 284 699 c 1
 196 378 l 1
 198 376 l 1
EndSplineSet
EndChar

StartChar: c
Encoding: 99 99 67
Width: 444
Flags: HMW
HStem: -13 64<181.5 197> 302 160<315.5 316.5 208 348> 429 33<226.5 274.5>
VStem: -5 128<101 176.5 101 217.5>
LayerCount: 2
Fore
SplineSet
318 141 m 1
 346 123 l 1
 301 59 250 -13 144 -13 c 0
 78 -13 -5 30 -5 141 c 0
 -5 294 139 462 277 462 c 0
 356 462 392 418 392 374 c 0
 392 329 367 302 329 302 c 0
 302 302 272 320 272 354 c 0
 272 367 276 377 281 386 c 0
 287 396 293 404 293 412 c 0
 293 425 279 429 270 429 c 0
 183 429 123 212 123 141 c 0
 123 61 167 51 196 51 c 0
 241 51 278 83 318 141 c 1
EndSplineSet
EndChar

StartChar: d
Encoding: 100 100 68
Width: 500
Flags: HMW
HStem: -13 72<125 128> -11 21G<296.5 335> 420 42<214.5 276.5> 679 20G<517 517>
VStem: -21 124<111.5 149 111.5 191.5>
LayerCount: 2
Fore
SplineSet
103 114 m 0
 103 109 105 59 145 59 c 0
 240 59 308 339 308 368 c 0
 308 374 295 420 258 420 c 0
 171 420 103 184 103 114 c 0
250 115 m 1
 248 114 l 1
 219 65 171 -13 85 -13 c 0
 2 -13 -21 70 -21 114 c 0
 -21 269 142 462 258 462 c 0
 301 462 309 443 323 429 c 1
 345 512 370 598 370 613 c 0
 370 637 351 643 308 643 c 1
 308 670 l 1
 436 680 482 691 517 699 c 1
 349 73 l 2
 349 64 352 60 357 60 c 0
 378 60 432 124 427 131 c 1
 449 115 l 1
 425 76 370 -11 300 -11 c 0
 293 -11 240 -11 240 50 c 0
 240 66 243 84 250 115 c 1
EndSplineSet
EndChar

StartChar: e
Encoding: 101 101 69
Width: 444
Flags: HMW
HStem: -13 64<192 209> 448 33
VStem: 5 130<93.5 142.5 93.5 201> 306 92<356 386.5>
LayerCount: 2
Fore
SplineSet
148 214 m 1
 279 249 306 330 306 382 c 0
 306 391 306 429 277 429 c 0
 215 429 164 287 148 214 c 1
141 182 m 1
 137 164 135 152 135 133 c 0
 135 54 182 51 202 51 c 0
 256 51 292 105 317 142 c 1
 346 125 l 1
 315 74 263 -13 155 -13 c 0
 89 -13 5 21 5 133 c 0
 5 269 132 462 295 462 c 0
 330 462 398 454 398 382 c 0
 398 327 334 212 141 182 c 1
EndSplineSet
EndChar

StartChar: f
Encoding: 102 102 70
Width: 333
Flags: HMW
HStem: -205 31<-73.5 -44 -73.5 15.5> 407 42<39 121 48 112 236 319> 669 29<319.5 349>
LayerCount: 2
Fore
SplineSet
39 407 m 1
 48 449 l 1
 121 449 l 1
 156 585 222 698 348 698 c 0
 436 698 446 638 446 618 c 0
 446 579 418 565 394 565 c 0
 367 565 346 586 346 615 c 0
 346 626 350 634 354 641 c 0
 358 648 362 652 362 655 c 0
 362 666 353 669 345 669 c 0
 294 669 263 560 236 449 c 1
 328 449 l 1
 319 407 l 1
 229 407 l 1
 143 6 103 -205 -72 -205 c 0
 -124 -205 -169 -181 -169 -121 c 0
 -169 -90 -141 -72 -118 -72 c 0
 -105 -72 -68 -85 -68 -121 c 0
 -68 -132 -72 -140 -76 -147 c 0
 -80 -154 -84 -159 -84 -162 c 0
 -84 -169 -79 -174 -68 -174 c 0
 -20 -174 -5 -121 24 15 c 0
 51 132 91 327 112 407 c 1
 39 407 l 1
EndSplineSet
EndChar

StartChar: g
Encoding: 103 103 71
Width: 500
Flags: HMW
HStem: -203 34<94.5 154.5 94.5 217.5> -6 21G<110.5 127> 141 20G<142.5 152.5> 153 31<191.5 230 173 251.5> 431 31<216.5 272>
VStem: -52 87<-118.5 -74.5 -118.5 -63.5> 266 109<-89.5 -72.5> 300 117<274 382.5>
LayerCount: 2
Fore
SplineSet
151 248 m 0
 151 230 151 184 195 184 c 0
 265 184 300 321 300 369 c 0
 300 396 290 431 254 431 c 0
 179 431 151 281 151 248 c 0
113 -6 m 0
 108 -6 35 -49 35 -100 c 0
 35 -137 57 -169 132 -169 c 0
 177 -169 266 -159 266 -99 c 0
 266 -46 141 -6 113 -6 c 0
78 8 m 1
 63 13 19 29 19 72 c 0
 19 117 51 135 115 170 c 1
 64 189 35 228 35 283 c 0
 35 360 111 462 259 462 c 0
 307 462 343 448 367 429 c 1
 478 429 l 1
 478 373 l 1
 411 373 l 1
 415 358 417 350 417 330 c 0
 417 218 306 153 197 153 c 0
 186 153 178 154 170 157 c 0
 163 160 156 161 149 161 c 0
 136 161 122 138 122 127 c 0
 122 111 135 99 226 72 c 0
 304 51 375 24 375 -55 c 0
 375 -124 303 -203 132 -203 c 0
 52 -203 -52 -176 -52 -100 c 0
 -52 -27 15 -10 78 6 c 1
 78 8 l 1
EndSplineSet
EndChar

StartChar: h
Encoding: 104 104 72
Width: 556
Flags: HMW
HStem: -9 21G<308.5 371> 0 21G<-13 -13 -13 108> 390 72<309 408> 679 20G<294 294>
LayerCount: 2
Fore
SplineSet
-13 0 m 1
 149 609 l 1
 149 644 119 642 86 642 c 1
 86 669 l 1
 163 676 219 684 294 699 c 1
 188 289 l 1
 190 288 l 1
 288 434 347 462 397 462 c 0
 419 462 475 446 475 367 c 0
 475 347 451 272 427 203 c 0
 405 139 384 81 384 76 c 0
 384 65 388 60 394 60 c 0
 417 60 473 122 476 142 c 1
 498 127 l 1
 457 63 412 -9 330 -9 c 0
 287 -9 265 19 265 52 c 0
 265 87 283 148 302 208 c 0
 326 282 353 353 353 367 c 0
 353 375 349 390 330 390 c 0
 288 390 237 311 209 268 c 0
 168 206 133 88 108 0 c 1
 -13 0 l 1
EndSplineSet
EndChar

StartChar: i
Encoding: 105 105 73
Width: 278
Flags: HMW
HStem: -9 21G<42 108> 550 134<171.5 213 171.5 213.5>
LayerCount: 2
Fore
SplineSet
128 618 m 0
 128 642 149 684 194 684 c 0
 232 684 263 653 263 616 c 0
 263 580 233 550 194 550 c 0
 147 550 128 592 128 618 c 0
216 141 m 1
 238 127 l 1
 187 49 145 -9 71 -9 c 0
 13 -9 2 34 2 58 c 0
 2 102 80 352 80 375 c 0
 80 407 50 407 21 407 c 1
 21 434 l 1
 61 437 155 446 223 462 c 1
 184 319 123 108 123 76 c 0
 123 66 127 62 133 62 c 0
 157 62 213 116 216 141 c 1
EndSplineSet
EndChar

StartChar: j
Encoding: 106 106 74
Width: 278
Flags: HMW
HStem: -207 21G<-125.5 -38.5> 550 134<187.5 229 187.5 229.5>
LayerCount: 2
Fore
SplineSet
144 618 m 0
 144 642 165 684 210 684 c 0
 248 684 279 653 279 616 c 0
 279 580 249 550 210 550 c 0
 163 550 144 592 144 618 c 0
31 407 m 1
 31 434 l 1
 153 445 169 447 239 462 c 1
 125 24 l 2
 81 -145 6 -207 -83 -207 c 0
 -168 -207 -189 -158 -189 -130 c 0
 -189 -98 -164 -77 -140 -77 c 0
 -129 -77 -91 -86 -91 -126 c 0
 -91 -138 -95 -144 -99 -150 c 0
 -103 -155 -106 -160 -106 -164 c 0
 -106 -169 -94 -176 -84 -176 c 0
 -48 -176 -33 -130 -11 -45 c 2
 93 376 l 1
 93 401 79 407 31 407 c 1
EndSplineSet
EndChar

StartChar: k
Encoding: 107 107 75
Width: 500
Flags: HMW
HStem: -8 71<273 377> 0 21G<-23 -23 -23 99> 429 20G<276 483 483 483> 679 20G<286 286>
LayerCount: 2
Fore
SplineSet
-23 0 m 1
 141 609 l 1
 141 644 111 642 78 642 c 1
 78 669 l 1
 140 675 223 687 286 699 c 1
 164 244 l 1
 166 242 l 1
 204 272 327 354 327 389 c 0
 327 412 302 414 276 414 c 1
 276 449 l 1
 483 449 l 1
 483 414 l 1
 447 409 424 415 348 348 c 2
 285 293 l 1
 316 135 330 63 364 63 c 0
 390 63 413 106 425 127 c 1
 447 116 l 1
 423 72 381 -8 312 -8 c 0
 234 -8 210 93 188 215 c 1
 149 188 l 1
 99 0 l 1
 -23 0 l 1
EndSplineSet
EndChar

StartChar: l
Encoding: 108 108 76
Width: 278
Flags: HMW
HStem: -9 21G<36 110> 679 20G<290 290>
LayerCount: 2
Fore
SplineSet
216 141 m 1
 238 127 l 1
 194 60 150 -9 70 -9 c 0
 2 -9 2 44 2 58 c 0
 2 118 144 566 144 613 c 0
 144 644 111 642 81 642 c 1
 81 669 l 1
 161 676 211 684 290 699 c 1
 145 176 l 2
 139 154 123 96 123 76 c 0
 123 66 127 62 134 62 c 0
 158 62 213 116 216 141 c 1
EndSplineSet
EndChar

StartChar: m
Encoding: 109 109 77
Width: 778
Flags: HMW
HStem: -9 21G<556.5 605> 0 21G<-14 -14 -14 107 227 227 227 347> 389 73<314.5 391.5>
LayerCount: 2
Fore
SplineSet
-14 0 m 1
 43 209 88 348 88 381 c 0
 88 410 49 407 34 407 c 1
 34 434 l 1
 140 443 165 445 234 461 c 1
 174 275 l 1
 177 273 l 1
 235 362 300 462 389 462 c 0
 394 462 455 462 455 395 c 0
 455 356 441 322 432 299 c 1
 433 297 l 1
 484 378 543 462 625 462 c 0
 680 462 704 427 704 383 c 0
 704 348 679 275 656 208 c 0
 635 148 615 92 615 74 c 0
 615 65 619 60 624 60 c 0
 645 60 697 111 700 135 c 1
 722 122 l 1
 691 69 645 -9 565 -9 c 0
 548 -9 495 -9 495 56 c 0
 495 85 509 137 526 190 c 0
 551 269 583 352 583 366 c 0
 583 385 577 393 568 393 c 0
 534 392 451 279 448 273 c 0
 411 209 397 164 347 0 c 1
 227 0 l 1
 301 235 363 389 318 389 c 0
 311 389 200 364 107 0 c 1
 -14 0 l 1
EndSplineSet
EndChar

StartChar: n
Encoding: 110 110 78
Width: 556
Flags: HMW
HStem: -9 21G<328 375> 0 21G<-6 -6 -6 115> 390 72<316.5 410>
LayerCount: 2
Fore
SplineSet
-6 0 m 1
 45 191 96 356 96 381 c 0
 96 407 69 407 42 407 c 1
 42 434 l 1
 64 434 163 443 242 461 c 1
 182 275 l 1
 185 273 l 1
 257 379 311 462 398 462 c 0
 422 462 474 460 474 383 c 0
 474 349 450 276 428 210 c 0
 407 148 387 91 387 77 c 0
 387 65 392 60 399 60 c 0
 420 60 461 102 471 135 c 1
 493 122 l 1
 461 68 414 -9 336 -9 c 0
 320 -9 266 -9 266 56 c 0
 266 87 285 146 305 206 c 0
 335 297 365 390 329 390 c 0
 304 390 203 340 115 0 c 1
 -6 0 l 1
EndSplineSet
EndChar

StartChar: o
Encoding: 111 111 79
Width: 500
Flags: HMW
HStem: -13 29<140 214 140 235> 433 29<222 289>
VStem: -3 119<88 118 76 213> 322 119<331.5 375 233.5 394>
LayerCount: 2
Fore
SplineSet
-3 136 m 0
 -3 290 128 462 286 462 c 0
 324 462 441 442 441 308 c 0
 441 159 315 -13 155 -13 c 0
 73 -13 -3 40 -3 136 c 0
116 86 m 0
 116 66 114 16 166 16 c 0
 262 16 322 294 322 369 c 0
 322 419 302 433 276 433 c 0
 168 433 116 150 116 86 c 0
EndSplineSet
EndChar

StartChar: p
Encoding: 112 112 80
Width: 500
Flags: HMW
HStem: -205 37<-120 -103 111.5 129 -120 -103> -13 35<157.5 201.5 146 241> 391 71<216 292>
VStem: 321 125<304 356>
LayerCount: 2
Fore
SplineSet
101 9 m 1
 93 -24 64 -112 64 -134 c 0
 64 -166 94 -168 129 -168 c 1
 129 -205 l 1
 -120 -205 l 1
 -120 -168 l 1
 -86 -168 -56 -168 -48 -134 c 0
 12 117 77 358 77 380 c 0
 77 405 59 407 23 407 c 1
 23 434 l 1
 106 444 145 448 216 462 c 1
 182 359 l 1
 185 356 l 1
 237 435 292 462 335 462 c 0
 395 462 446 428 446 336 c 0
 446 181 312 -13 170 -13 c 0
 145 -13 132 -7 101 9 c 1
113 61 m 0
 113 29 139 22 153 22 c 0
 250 22 321 268 321 340 c 0
 321 372 303 391 281 391 c 0
 242 391 204 346 186 308 c 0
 163 260 113 86 113 61 c 0
EndSplineSet
EndChar

StartChar: q
Encoding: 113 113 81
Width: 500
Flags: HMW
HStem: -205 37<353.5 371 104 104> -13 72<53.5 213.5> 419 43<248 302 206.5 303> 429 20G<362 471 471 471>
VStem: 1 125<120.5 170.5 120.5 195.5>
LayerCount: 2
Fore
SplineSet
126 133 m 0
 126 108 126 59 167 59 c 0
 260 59 325 314 325 369 c 0
 325 392 317 419 289 419 c 0
 207 419 126 208 126 133 c 0
104 -168 m 1
 156 -165 186 -168 194 -138 c 2
 254 89 l 1
 252 91 l 1
 224 45 179 -13 106 -13 c 0
 1 -13 1 100 1 133 c 0
 1 258 143 462 270 462 c 0
 334 462 341 426 346 394 c 1
 348 394 l 1
 362 449 l 1
 471 449 l 1
 433 302 306 -117 306 -138 c 0
 306 -168 336 -168 371 -168 c 1
 371 -205 l 1
 104 -205 l 1
 104 -168 l 1
EndSplineSet
EndChar

StartChar: r
Encoding: 114 114 82
Width: 389
Flags: HMW
HStem: 0 21G<-21 -21 -21 100> 442 20G<227 227 298 333>
LayerCount: 2
Fore
SplineSet
-21 0 m 1
 32 180 81 348 81 380 c 0
 81 405 63 407 27 407 c 1
 27 434 l 1
 129 443 160 445 227 462 c 1
 171 284 l 1
 206 342 265 462 331 462 c 0
 335 462 389 462 389 396 c 0
 389 350 361 323 330 323 c 0
 311 323 298 335 289 345 c 0
 282 353 276 361 270 361 c 0
 242 361 190 261 168 208 c 0
 142 141 132 93 100 0 c 1
 -21 0 l 1
EndSplineSet
EndChar

StartChar: s
Encoding: 115 115 83
Width: 389
Flags: HMW
HStem: -13 21G<-19 8 -19 -19 114 158> 432 33 441 20G<304 333 333 333>
VStem: 3 27<150 153> 183 96<72.5 93.5> 304 29<461 461>
LayerCount: 2
Fore
SplineSet
8 -13 m 1
 -19 -13 l 1
 3 153 l 1
 30 150 l 1
 45 17 117 17 126 17 c 0
 164 17 183 47 183 72 c 0
 183 115 145 162 110 209 c 0
 78 252 47 296 47 337 c 0
 47 426 126 462 191 462 c 0
 216 462 229 457 240 451 c 0
 251 446 260 440 276 440 c 0
 291 440 294 444 304 461 c 1
 333 461 l 1
 310 308 l 1
 283 310 l 1
 275 360 250 429 191 429 c 0
 138 429 142 380 142 375 c 0
 142 341 183 299 220 251 c 0
 251 211 279 168 279 121 c 0
 279 24 190 -13 126 -13 c 0
 102 -13 85 -7 70 -2 c 0
 58 3 48 7 37 7 c 0
 33 7 13 4 8 -13 c 1
EndSplineSet
EndChar

StartChar: t
Encoding: 116 116 84
Width: 278
Flags: HMW
HStem: -9 21G<25 100> 407 42<198 281 209 281 209 281> 574 20G<213 248 248 248>
LayerCount: 2
Fore
SplineSet
203 141 m 1
 225 127 l 1
 188 69 139 -9 61 -9 c 0
 -11 -9 -11 51 -11 58 c 0
 -11 99 37 249 81 407 c 1
 30 407 l 1
 30 442 l 1
 69 457 145 488 213 594 c 1
 248 594 l 1
 209 449 l 1
 281 449 l 1
 281 407 l 1
 198 407 l 1
 165 285 111 110 111 76 c 0
 111 66 115 62 122 62 c 0
 147 62 201 123 203 141 c 1
EndSplineSet
EndChar

StartChar: u
Encoding: 117 117 85
Width: 556
Flags: HMW
HStem: -9 72<53.5 177> 429 20G<370 488 488 488> 442 20G<243 243>
LayerCount: 2
Fore
SplineSet
286 155 m 1
 210 49 168 -9 92 -9 c 0
 15 -9 15 46 15 69 c 0
 15 104 34 168 53 230 c 0
 71 290 90 349 90 378 c 0
 90 404 68 407 34 407 c 1
 34 434 l 1
 123 438 229 461 243 462 c 1
 149 154 l 2
 138 118 117 63 157 63 c 0
 197 63 258 158 271 182 c 0
 316 263 339 342 370 449 c 1
 488 449 l 1
 468 379 385 110 385 78 c 0
 385 65 389 59 396 59 c 0
 420 59 473 121 471 133 c 1
 492 120 l 1
 473 86 417 -9 333 -9 c 0
 318 -9 266 -9 266 47 c 0
 266 90 278 124 288 154 c 1
 286 155 l 1
EndSplineSet
EndChar

StartChar: v
Encoding: 118 118 86
Width: 444
Flags: HMW
HStem: -13 21G<85 85 85 111> 442 20G<326 352>
VStem: 79 123 284 117<394.5 415.5 344 421.5>
LayerCount: 2
Fore
SplineSet
85 -13 m 1
 74 352 l 2
 74 359 73 365 73 370 c 0
 73 403 47 407 16 407 c 1
 16 434 l 1
 71 442 111 447 171 462 c 1
 193 382 202 314 202 128 c 1
 306 244 328 287 328 315 c 0
 328 333 316 344 304 358 c 0
 294 370 284 384 284 405 c 0
 284 438 314 462 338 462 c 0
 366 462 401 437 401 394 c 0
 401 294 281 145 111 -13 c 1
 85 -13 l 1
EndSplineSet
EndChar

StartChar: w
Encoding: 119 119 87
Width: 667
Flags: HMW
HStem: -13 21G<95 95 95 122 315 315 315 342> 170 20G<204 206 206 206> 442 20G<360 387 387 387 536.5 565>
VStem: 85 119 538 76<288.5 420>
LayerCount: 2
Fore
SplineSet
95 -13 m 1
 75 352 l 2
 75 360 74 367 74 373 c 0
 74 407 48 407 16 407 c 1
 16 434 l 1
 80 443 126 453 171 462 c 1
 191 388 204 316 204 190 c 1
 206 190 l 1
 257 281 303 371 360 462 c 1
 387 462 l 1
 419 130 l 1
 454 171 538 268 538 309 c 0
 538 327 527 341 517 355 c 0
 507 369 497 383 497 403 c 0
 497 430 520 462 553 462 c 0
 577 462 614 443 614 397 c 0
 614 272 384 31 342 -13 c 1
 315 -13 l 1
 313 12 296 223 292 269 c 1
 290 269 l 1
 281 250 201 108 122 -13 c 1
 95 -13 l 1
EndSplineSet
EndChar

StartChar: x
Encoding: 120 120 88
Width: 500
Flags: HMW
HStem: -13 21G<-10.5 43.5 248.5 305> 61 20G<65 82> 82 20G<-8.5 17> 442 20G<208 208 387 429.5>
LayerCount: 2
Fore
SplineSet
173 142 m 1
 135 60 71 -13 16 -13 c 0
 -37 -13 -46 31 -46 47 c 0
 -46 71 -26 102 9 102 c 0
 25 102 35 97 43 93 c 0
 53 87 59 81 71 81 c 0
 93 81 108 105 162 192 c 1
 132 346 l 2
 119 413 94 413 75 413 c 0
 64 413 51 412 41 411 c 1
 41 438 l 1
 208 462 l 1
 228 434 237 402 253 324 c 1
 327 429 361 462 413 462 c 0
 446 462 469 424 469 400 c 0
 469 374 445 348 412 348 c 0
 398 348 390 353 383 358 c 0
 375 363 368 368 356 368 c 0
 321 368 278 293 264 273 c 1
 296 117 l 2
 304 80 319 66 338 66 c 0
 357 66 379 88 400 123 c 1
 421 109 l 1
 395 71 338 -13 272 -13 c 0
 225 -13 193 24 173 142 c 1
EndSplineSet
EndChar

StartChar: y
Encoding: 121 121 89
Width: 444
Flags: HMW
HStem: -205 115<-53.5 -32 -61 14.5> 93 20G<241 243 243 243> 442 20G<313 345.5>
VStem: 328 64<295 416.5>
LayerCount: 2
Fore
SplineSet
241 113 m 1
 243 113 l 1
 287 198 328 277 328 313 c 0
 328 335 314 343 301 352 c 0
 287 362 273 373 273 406 c 0
 273 431 297 462 329 462 c 0
 362 462 392 433 392 400 c 0
 392 283 263 75 254 60 c 0
 152 -109 64 -205 -35 -205 c 0
 -72 -205 -94 -172 -94 -145 c 0
 -94 -127 -81 -90 -41 -90 c 0
 -23 -90 -9 -98 4 -106 c 0
 19 -115 33 -125 51 -125 c 0
 78 -125 142 -62 142 -6 c 0
 142 43 105 223 97 259 c 0
 63 411 53 411 14 411 c 1
 14 438 l 1
 72 443 126 452 163 462 c 1
 182 415 214 268 241 113 c 1
EndSplineSet
EndChar

StartChar: z
Encoding: 122 122 90
Width: 389
Flags: HMW
HStem: -78 21G<212.5 277> 356 93<83.5 104 104 249>
LayerCount: 2
Fore
SplineSet
-18 -23 m 1
 -43 -1 l 1
 249 356 l 1
 104 356 l 2
 63 356 50 319 41 295 c 1
 13 298 l 1
 56 449 l 1
 368 449 l 1
 368 439 l 1
 87 104 l 1
 145 81 170 43 187 11 c 0
 204 -22 214 -49 242 -49 c 0
 255 -49 263 -41 263 -34 c 0
 263 -25 256 -20 250 -11 c 0
 246 -5 243 3 243 15 c 0
 243 38 264 65 292 65 c 0
 310 65 346 52 346 11 c 0
 346 -22 315 -78 239 -78 c 0
 186 -78 147 -54 114 -32 c 0
 85 -13 60 5 35 5 c 0
 20 5 20 5 -18 -23 c 1
EndSplineSet
EndChar

StartChar: braceleft
Encoding: 123 123 91
Width: 348
Flags: HMW
HStem: -187 21G<138.5 210> 666 20G<369.5 436>
VStem: 28 104<-113 -66.5> 89 102<154.5 193 144.5 195.5>
LayerCount: 2
Fore
SplineSet
213 -175 m 1
 210 -187 l 1
 67 -187 28 -159 28 -95 c 0
 28 -38 89 135 89 174 c 0
 89 217 62 235 5 249 c 1
 97 268 125 299 142 365 c 2
 188 544 l 2
 219 666 303 686 436 686 c 1
 433 674 l 1
 348 659 313 614 295 544 c 2
 250 365 l 2
 232 294 205 268 103 250 c 1
 103 248 l 1
 171 231 191 215 191 171 c 0
 191 118 132 -37 132 -95 c 0
 132 -131 145 -165 213 -175 c 1
EndSplineSet
EndChar

StartChar: bar
Encoding: 124 124 92
Width: 220
Flags: HMW
HStem: -188 21G<-28 40 40 40> -18 21G 665 20G<201 201 201 269>
VStem: 37 88
LayerCount: 2
Fore
SplineSet
201 685 m 1
 -28 -188 l 1
 40 -188 l 1
 269 685 l 1
 201 685 l 1
EndSplineSet
EndChar

StartChar: braceright
Encoding: 125 125 93
Width: 348
Flags: HMW
HStem: -187 21G<-129 -62.5> 666 20G<97 168.5>
VStem: 116 102<303.5 345 303.5 351.5> 188 104
LayerCount: 2
Fore
SplineSet
-126 -175 m 1
 -129 -187 l 1
 4 -187 87 -172 119 -51 c 2
 165 120 l 2
 183 186 209 231 302 250 c 1
 245 265 218 282 218 325 c 0
 218 365 279 535 279 592 c 0
 279 656 240 686 97 686 c 1
 94 674 l 1
 162 663 175 629 175 592 c 0
 175 533 116 378 116 325 c 0
 116 282 136 267 204 251 c 1
 204 249 l 1
 103 230 76 192 57 120 c 2
 12 -51 l 2
 -7 -121 -41 -159 -126 -175 c 1
EndSplineSet
EndChar

StartChar: asciitilde
Encoding: 126 126 94
Width: 570
Flags: HMW
HStem: 173 21G<100 100> 175 21G 177 84<387.5 422 387.5 432> 245 84<162 204.5> 313 20G<490 490>
LayerCount: 2
Fore
SplineSet
100 173 m 1
 64 243 l 1
 86 285 122 329 189 329 c 0
 223 329 263 311 302 293 c 0
 338 277 373 261 402 261 c 0
 442 261 467 298 490 333 c 1
 526 263 l 1
 496 221 463 177 401 177 c 0
 358 177 324 196 289 214 c 0
 258 230 225 245 184 245 c 0
 140 245 116 208 100 173 c 1
EndSplineSet
EndChar

StartChar: exclamdown
Encoding: 161 161 95
Width: 389
Flags: HMW
HStem: -205 21G<69.5 116.5> 348 144<230 270>
VStem: 19 149 178 144<400 440>
LayerCount: 2
Fore
SplineSet
178 420 m 0
 178 460 210 492 250 492 c 0
 290 492 322 460 322 420 c 0
 322 380 290 348 250 348 c 0
 210 348 178 380 178 420 c 0
193 275 m 1
 222 267 l 1
 202 164 177 6 168 -109 c 0
 165 -151 146 -205 87 -205 c 0
 52 -205 19 -170 19 -124 c 0
 19 -109 24 -92 33 -75 c 0
 49 -45 130 110 193 275 c 1
EndSplineSet
EndChar

StartChar: cent
Encoding: 162 162 96
Width: 500
Flags: HMW
HStem: -143 21G<144 178 144 144> -13 21G<163 190> 430 33<273.5 325.5> 556 20G<396 431 431 431>
VStem: 12 127
LayerCount: 2
Fore
SplineSet
190 -13 m 1
 136 -13 42 29 42 151 c 0
 42 309 188 463 323 463 c 0
 335 463 345 462 355 460 c 1
 396 576 l 1
 431 576 l 1
 386 450 l 1
 421 433 439 403 439 371 c 0
 439 329 407 303 376 303 c 0
 358 303 346 308 339 314 c 1
 247 52 l 1
 294 53 333 93 365 141 c 1
 392 123 l 1
 350 64 307 3 225 -10 c 1
 178 -143 l 1
 144 -143 l 1
 190 -13 l 1
214 57 m 1
 339 414 l 2
 339 421 336 430 315 430 c 0
 232 430 169 218 169 151 c 0
 169 125 174 74 214 57 c 1
EndSplineSet
EndChar

StartChar: sterling
Encoding: 163 163 97
Width: 500
Flags: HMW
HStem: -12 31 -12 104<293 324> -12 174 -11 21G<29.5 86.5> 100 20G<39 64> 135 20G<409 434 434 434> 310 60<45 144 35 150 280 384> 649 34<381 394>
VStem: -32 30<50.5 89 50 102.5>
LayerCount: 2
Fore
SplineSet
113 90 m 1
 100 102 79 120 49 120 c 0
 29 120 -2 111 -2 67 c 0
 -2 33 32 19 54 19 c 0
 91 19 107 57 113 90 c 1
156 49 m 1
 141 25 118 -11 55 -11 c 0
 4 -11 -32 28 -32 73 c 0
 -32 132 14 162 60 162 c 0
 92 162 106 156 125 148 c 1
 131 195 136 257 144 310 c 1
 35 310 l 1
 45 370 l 1
 150 370 l 1
 200 669 363 683 399 683 c 0
 450 683 510 656 510 591 c 0
 510 547 477 524 449 524 c 0
 428 524 396 539 396 575 c 0
 396 583 397 592 399 601 c 0
 404 625 408 649 380 649 c 0
 349 649 328 621 319 572 c 2
 280 370 l 1
 394 370 l 1
 384 310 l 1
 269 310 l 1
 259 260 228 177 194 124 c 1
 209 118 274 92 312 92 c 0
 381 92 393 119 409 155 c 1
 434 155 l 1
 416 57 370 -12 278 -12 c 0
 233 -12 188 20 156 49 c 1
EndSplineSet
EndChar

StartChar: currency
Encoding: 168 164 98
Width: 500
Flags: HMW
HStem: 50 21G 131 74 414 74 541 20G
VStem: 72 80 353 79
LayerCount: 2
Fore
SplineSet
54 62 m 1
 2 114 l 1
 90 202 l 1
 69 230 56 268 56 311 c 0
 56 354 71 393 90 420 c 1
 2 508 l 1
 54 558 l 1
 140 472 l 1
 168 491 209 501 250 501 c 0
 294 501 330 491 359 472 c 1
 446 558 l 1
 498 508 l 1
 410 420 l 1
 429 392 443 354 443 311 c 0
 443 268 432 229 411 202 c 1
 498 114 l 1
 446 62 l 1
 360 150 l 1
 332 131 294 116 251 116 c 0
 208 116 168 131 140 150 c 1
 54 62 l 1
136 312 m 0
 136 247 184 190 249 190 c 0
 316 190 364 245 364 310 c 0
 364 373 317 427 251 427 c 0
 187 427 136 375 136 312 c 0
EndSplineSet
EndChar

StartChar: yen
Encoding: 165 165 99
Width: 500
Flags: HMW
HStem: 0 25<46 46 46 368> 164 50<47 174 33 188 320 458> 292 50<82 207 82 210 68 207 369 491> 644 25<56 336 304.5 336 418 448>
LayerCount: 2
Fore
SplineSet
46 0 m 1
 46 25 l 1
 109 30 135 28 147 69 c 2
 174 164 l 1
 33 164 l 1
 47 214 l 1
 188 214 l 1
 210 292 l 1
 68 292 l 1
 82 342 l 1
 207 342 l 1
 130 605 l 1
 108 644 109 637 56 644 c 1
 56 669 l 1
 336 669 l 1
 336 644 l 1
 273 644 261 631 261 608 c 0
 261 590 314 398 337 344 c 1
 488 580 l 2
 495 591 500 602 500 611 c 0
 500 629 478 644 418 644 c 1
 418 669 l 1
 618 669 l 1
 618 644 l 1
 573 636 551 611 525 575 c 2
 369 342 l 1
 504 342 l 1
 491 292 l 1
 341 292 l 1
 320 214 l 1
 472 214 l 1
 458 164 l 1
 306 164 l 1
 300 141 287 98 287 69 c 0
 287 28 318 27 368 25 c 1
 368 0 l 1
 46 0 l 1
EndSplineSet
EndChar

StartChar: brokenbar
Encoding: 256 166 100
Width: 220
Flags: HMW
HStem: -98 21G<-26 -26 -26 47> -18 21G 220 20G<75 143 143 143> 234 20G 665 20G<202 274 274 274>
VStem: 66 88
LayerCount: 2
Fore
SplineSet
-26 -98 m 1
 75 240 l 1
 143 240 l 1
 47 -98 l 1
 -26 -98 l 1
106 353 m 1
 202 685 l 1
 274 685 l 1
 174 353 l 1
 106 353 l 1
EndSplineSet
EndChar

StartChar: section
Encoding: 167 167 101
Width: 500
Flags: HMW
HStem: -143 21G<137 224.5> -140 20G<170 194.5> 121 27<286 317.5 312 317.5 290.5 347.5> 400 25<119 224.5> 653 22
VStem: 36 114<-40.5 -18.5> 168 70<568.5 590.5> 268 77<-47.5 -25> 364 71<207.5 239.5>
LayerCount: 2
Fore
SplineSet
206 218 m 0
 259 160 276 148 305 148 c 0
 330 148 364 167 364 210 c 0
 364 269 252 400 197 400 c 0
 165 400 139 379 139 340 c 0
 139 289 203 221 206 218 c 0
286 121 m 1
 306 96 345 50 345 -9 c 0
 345 -86 268 -143 181 -143 c 0
 93 -143 36 -95 36 -38 c 0
 36 1 65 22 93 22 c 0
 113 22 150 12 150 -29 c 0
 150 -52 141 -61 132 -69 c 0
 123 -77 115 -81 115 -92 c 0
 115 -110 159 -120 181 -120 c 0
 208 -120 268 -106 268 -45 c 0
 268 -5 249 15 119 175 c 0
 36 274 65 425 173 425 c 0
 178 425 208 423 221 419 c 1
 223 422 l 1
 212 433 168 486 168 550 c 0
 168 631 234 685 318 685 c 0
 418 685 459 632 459 588 c 0
 459 540 422 526 401 526 c 0
 370 526 346 552 346 579 c 0
 346 599 355 609 366 616 c 0
 374 623 382 627 382 636 c 0
 382 648 354 663 318 663 c 0
 262 663 238 626 238 589 c 0
 238 548 274 506 375 386 c 0
 394 362 435 308 435 245 c 0
 435 170 377 121 318 121 c 0
 306 121 296 122 288 125 c 1
 286 121 l 1
EndSplineSet
EndChar

StartChar: dieresis
Encoding: 200 168 102
Width: 333
Flags: HMW
HStem: 525 130<92 128 304 340>
VStem: 45 130<572 608> 259 130
LayerCount: 2
Fore
SplineSet
257 590 m 0
 257 626 286 655 322 655 c 0
 358 655 387 626 387 590 c 0
 387 554 358 525 322 525 c 0
 286 525 257 554 257 590 c 0
45 590 m 0
 45 626 74 655 110 655 c 0
 146 655 175 626 175 590 c 0
 175 554 146 525 110 525 c 0
 74 525 45 554 45 590 c 0
EndSplineSet
EndChar

StartChar: copyright
Encoding: 257 169 103
Width: 747
Flags: HMW
HStem: -18 46<295.5 452.5 295.5 470.5> 140 23<344 426.5 344 427.5> 230 20G<526 544 526 526> 518 20<353 425.5 320 437> 639 46<295 452.5>
VStem: 20 61 30 61<251 414.5 251 430.5> 180 85<288.5 384.5> 657 61<250 414>
LayerCount: 2
Fore
SplineSet
544 250 m 1
 526 250 l 1
 506 202 459 163 394 163 c 0
 294 163 265 235 265 342 c 0
 265 441 307 518 399 518 c 0
 475 518 502 471 510 428 c 1
 527 428 l 1
 527 499 l 2
 527 508 520 515 505 520 c 0
 478 529 452 538 399 538 c 0
 241 538 180 427 180 342 c 0
 180 201 274 140 394 140 c 0
 461 140 498 151 527 178 c 1
 544 250 l 1
91 333 m 0
 91 496 216 639 374 639 c 0
 531 639 657 496 657 332 c 0
 657 168 531 28 374 28 c 0
 217 28 91 169 91 333 c 0
30 333 m 0
 30 137 181 -18 374 -18 c 0
 567 -18 718 136 718 332 c 0
 718 528 567 685 374 685 c 0
 181 685 30 528 30 333 c 0
EndSplineSet
EndChar

StartChar: ordfeminine
Encoding: 227 170 104
Width: 266
Flags: HMW
HStem: 399 21G<222 248> 400 45<114.5 115> 658 27<175.5 203.5>
VStem: 16 78<468 499.5 463 522>
LayerCount: 2
Fore
SplineSet
94 477 m 0
 94 449 113 445 116 445 c 0
 173 445 218 589 218 629 c 0
 218 646 208 658 199 658 c 0
 152 658 94 522 94 477 c 0
192 475 m 1
 190 477 l 1
 175 450 142 400 88 400 c 0
 23 400 16 458 16 478 c 0
 16 566 111 685 193 685 c 0
 232 685 239 659 242 644 c 1
 244 644 l 1
 254 677 l 1
 330 680 l 1
 284 540 l 2
 275 512 262 473 262 451 c 0
 262 445 264 443 267 443 c 0
 279 443 307 472 313 484 c 1
 326 475 l 1
 305 444 268 399 228 399 c 0
 216 399 185 408 185 439 c 0
 185 449 188 459 192 475 c 1
EndSplineSet
EndChar

StartChar: guillemotleft
Encoding: 171 171 105
Width: 500
Flags: HMW
HStem: 32 21G<196 203 382 388.5> 395 20G<265 276.5 451 462.5>
LayerCount: 2
Fore
SplineSet
197 217 m 1
 197 226 l 1
 247 262 328 322 378 358 c 0
 399 374 442 415 460 415 c 0
 465 415 468 412 468 403 c 0
 468 367 380 286 321 220 c 1
 395 48 l 1
 395 36 391 32 386 32 c 0
 378 32 366 40 357 51 c 0
 308 104 251 162 197 217 c 1
12 217 m 1
 12 226 l 1
 62 262 143 322 193 358 c 0
 214 373 256 415 274 415 c 0
 279 415 283 412 283 403 c 0
 283 367 195 286 136 220 c 1
 210 48 l 1
 210 35 206 32 200 32 c 0
 192 32 181 41 172 51 c 0
 123 104 66 162 12 217 c 1
EndSplineSet
EndChar

StartChar: logicalnot
Encoding: 258 172 106
Width: 606
Flags: HMW
HStem: 108 21G<483 555 483 483> 309 67<51 555 51 483> 309 90
VStem: 465 90 483 72<108 309 309 309>
LayerCount: 2
Fore
SplineSet
51 309 m 1
 51 376 l 1
 555 376 l 1
 555 108 l 1
 483 108 l 1
 483 309 l 1
 51 309 l 1
EndSplineSet
EndChar

StartChar: registered
Encoding: 259 174 107
Width: 747
Flags: HMW
HStem: -18 46<295.5 453 295.5 470.5> 151 186<210 369 328 369 369 376 328 493 328 562> 506 21<328 368 328 328> 639 46<295 453>
VStem: 30 61<253 417 253 432.5> 257 71<215 317 337 464 464 484.5> 437 73<408 458> 657 61<249 413>
LayerCount: 2
Fore
SplineSet
328 337 m 1
 369 337 l 2
 417 337 437 376 437 429 c 0
 437 487 407 506 368 506 c 2
 328 506 l 1
 328 337 l 1
210 151 m 1
 210 167 l 1
 259 172 257 173 257 215 c 2
 257 464 l 2
 257 505 259 506 210 511 c 1
 210 527 l 1
 393 527 l 2
 455 527 510 498 510 433 c 0
 510 383 477 343 429 328 c 1
 513 211 542 177 562 151 c 1
 492 151 l 1
 494 151 433 226 372 317 c 1
 328 317 l 1
 328 215 l 2
 328 173 327 172 376 167 c 1
 376 151 l 1
 210 151 l 1
91 335 m 0
 91 171 217 28 374 28 c 0
 532 28 657 167 657 331 c 0
 657 495 532 639 374 639 c 0
 216 639 91 499 91 335 c 0
30 335 m 0
 30 530 181 685 374 685 c 0
 567 685 718 527 718 331 c 0
 718 135 567 -18 374 -18 c 0
 181 -18 30 139 30 335 c 0
EndSplineSet
EndChar

StartChar: macron
Encoding: 197 175 108
Width: 333
Flags: HMW
HStem: 553 70<51 393 70 375>
LayerCount: 2
Fore
SplineSet
51 553 m 1
 70 623 l 1
 393 623 l 1
 375 553 l 1
 51 553 l 1
EndSplineSet
EndChar

StartChar: degree
Encoding: 260 176 109
Width: 400
Flags: HMW
HStem: 397 21G<186.5 265.5> 663 20G<186.5 265.5>
LayerCount: 2
Fore
SplineSet
83 542 m 0
 83 621 147 683 226 683 c 0
 305 683 369 617 369 538 c 0
 369 459 305 397 226 397 c 0
 147 397 83 463 83 542 c 0
EndSplineSet
EndChar

StartChar: plusminus
Encoding: 261 177 110
Width: 570
Flags: HMW
HStem: 0 89 108 20G<252 252 252 317> 270 89 280 62<33 252 33 252 317 537> 486 20G<252 317 317 317>
VStem: 241 88 252 65<128 280 128 280 342 506>
LayerCount: 2
Fore
SplineSet
33 0 m 1
 33 68 l 1
 537 68 l 1
 537 0 l 1
 33 0 l 1
252 128 m 1
 252 280 l 1
 33 280 l 1
 33 342 l 1
 252 342 l 1
 252 506 l 1
 317 506 l 1
 317 342 l 1
 537 342 l 1
 537 280 l 1
 317 280 l 1
 317 128 l 1
 252 128 l 1
EndSplineSet
EndChar

StartChar: twosuperior
Encoding: 262 178 111
Width: 300
Flags: HMW
HStem: 274 69<98 185 185 211 98 240> 622 61<164.5 190.5>
LayerCount: 2
Fore
SplineSet
2 274 m 1
 2 293 l 1
 118 403 118 410 150 445 c 0
 187 487 220 517 220 553 c 0
 220 565 220 622 161 622 c 0
 114 622 88 583 79 574 c 1
 61 585 l 1
 79 621 122 683 207 683 c 0
 275 683 313 630 313 583 c 0
 313 526 264 476 221 445 c 2
 98 345 l 1
 98 343 l 1
 185 343 l 2
 237 343 253 354 275 388 c 1
 291 388 l 1
 240 274 l 1
 2 274 l 1
EndSplineSet
EndChar

StartChar: threesuperior
Encoding: 263 179 112
Width: 300
Flags: HMW
HStem: 265 21G<63 154.5> 632 51<190 200>
VStem: 210 84<376 417> 233 88<588.5 591.5>
LayerCount: 2
Fore
SplineSet
110 481 m 1
 112 495 l 1
 141 500 233 517 233 580 c 0
 233 603 220 632 180 632 c 0
 139 632 120 609 103 590 c 1
 89 603 l 1
 115 642 156 683 224 683 c 0
 266 683 321 657 321 601 c 0
 321 576 309 542 242 511 c 1
 271 492 294 468 294 419 c 0
 294 333 205 265 104 265 c 0
 22 265 17 304 17 311 c 0
 17 338 30 356 54 356 c 0
 72 356 85 347 112 309 c 0
 120 297 129 293 139 293 c 0
 173 293 210 353 210 387 c 0
 210 447 175 481 110 481 c 1
EndSplineSet
EndChar

StartChar: acute
Encoding: 194 180 113
Width: 333
Flags: HMW
HStem: 516 21G<139 139 139 189> 677 20G<319 340.5>
LayerCount: 2
Fore
SplineSet
139 516 m 1
 261 647 l 2
 287 674 308 697 330 697 c 0
 351 697 379 682 379 650 c 0
 379 627 363 616 340 603 c 2
 189 516 l 1
 139 516 l 1
EndSplineSet
EndChar

StartChar: mu
Encoding: 264 181 114
Width: 576
Flags: HMW
HStem: -207 21G<-24 11> -13 21G<315 374.5> 0 70<145.5 165.5> 92 20G<281 283 281 281> 429 20G<105 240 240 240 381 516 516 516>
VStem: -60 119<-147 -126.5>
LayerCount: 2
Fore
SplineSet
283 112 m 1
 281 112 l 1
 258 71 192 0 139 0 c 0
 104 0 95 7 72 24 c 1
 55 -26 59 -79 59 -122 c 0
 59 -172 31 -207 -9 -207 c 0
 -39 -207 -60 -189 -60 -146 c 0
 -60 -107 -50 -52 -6 74 c 1
 105 449 l 1
 240 449 l 1
 147 137 l 2
 141 114 131 70 160 70 c 0
 216 70 289 163 330 285 c 2
 381 449 l 1
 516 449 l 1
 412 113 l 2
 404 81 410 72 421 72 c 0
 439 72 471 108 482 134 c 1
 503 118 l 1
 461 62 414 -13 335 -13 c 0
 295 -13 273 19 273 49 c 0
 273 66 275 81 283 112 c 1
EndSplineSet
EndChar

StartChar: paragraph
Encoding: 182 182 115
Width: 500
Flags: HMW
HStem: -216 21G<125 125 125 174 263 263 263 312> 624 38<415 504 415 415>
VStem: 39 208<210 438> 174 89<-216 -216> 415 89<624 624>
LayerCount: 2
Fore
SplineSet
125 -216 m 1
 247 210 l 1
 140 212 39 243 39 370 c 0
 39 506 150 662 358 662 c 2
 655 662 l 1
 650 644 l 1
 560 644 553 628 525 530 c 2
 312 -216 l 1
 263 -216 l 1
 504 624 l 1
 415 624 l 1
 174 -216 l 1
 125 -216 l 1
EndSplineSet
EndChar

StartChar: periodcentered
Encoding: 180 183 116
Width: 250
Flags: HMW
HStem: 257 148<103.5 145.5 103.5 145.5>
VStem: 51 148<310.5 351>
LayerCount: 2
Fore
SplineSet
51 331 m 0
 51 371 82 405 125 405 c 0
 166 405 199 372 199 331 c 0
 199 289 166 257 125 257 c 0
 81 257 51 290 51 331 c 0
EndSplineSet
EndChar

StartChar: cedilla
Encoding: 203 184 117
Width: 333
Flags: HMW
HStem: -218 41<-5.5 24.5 -5.5 35.5> -188 77 -177 77<12 24.5> -15 20G<41 85 85 85>
LayerCount: 2
Fore
SplineSet
41 5 m 1
 85 5 l 1
 40 -62 l 1
 48 -60 61 -60 75 -60 c 0
 111 -60 156 -79 156 -131 c 0
 156 -194 62 -218 9 -218 c 0
 -43 -218 -63 -200 -80 -193 c 1
 -58 -160 l 1
 -36 -170 -20 -177 9 -177 c 0
 40 -177 65 -162 65 -136 c 0
 65 -132 65 -100 19 -100 c 0
 5 -100 -4 -102 -12 -104 c 1
 -25 -92 l 1
 41 5 l 1
EndSplineSet
EndChar

StartChar: onesuperior
Encoding: 265 185 118
Width: 300
Flags: HMW
HStem: 274 21G 384 21G<30 30 30 254> 663 20G
LayerCount: 2
Fore
SplineSet
30 384 m 1
 30 403 l 1
 54 403 91 403 105 430 c 0
 121 459 191 598 191 613 c 0
 191 639 151 631 122 631 c 1
 124 652 l 1
 219 666 256 674 301 683 c 1
 273 617 213 476 195 430 c 0
 187 409 213 403 254 403 c 1
 254 384 l 1
 30 384 l 1
EndSplineSet
EndChar

StartChar: ordmasculine
Encoding: 235 186 119
Width: 300
Flags: HMW
HStem: 400 20<151 196 151 212> 665 20<207.5 248>
VStem: 266 81<606.5 633 548 644>
LayerCount: 2
Fore
SplineSet
56 489 m 0
 56 582 143 685 246 685 c 0
 271 685 347 673 347 593 c 0
 347 503 264 400 160 400 c 0
 107 400 56 432 56 489 c 0
137 459 m 0
 137 447 137 420 165 420 c 0
 227 420 266 584 266 629 c 0
 266 659 253 665 243 665 c 0
 172 665 137 498 137 459 c 0
EndSplineSet
EndChar

StartChar: guillemotright
Encoding: 187 187 120
Width: 500
Flags: HMW
HStem: 32 21G<18.5 30 202.5 214> 395 20G<92 99 277 284>
LayerCount: 2
Fore
SplineSet
158 227 m 1
 85 399 l 1
 85 412 89 415 95 415 c 0
 103 415 114 406 123 396 c 0
 172 343 229 285 283 230 c 1
 283 221 l 1
 233 185 152 125 102 89 c 0
 81 74 39 32 21 32 c 0
 16 32 12 35 12 44 c 0
 12 80 99 161 158 227 c 1
343 227 m 1
 270 399 l 1
 270 412 274 415 280 415 c 0
 288 415 299 406 308 396 c 0
 357 343 414 285 468 230 c 1
 468 221 l 1
 418 185 337 125 287 89 c 0
 266 73 223 32 205 32 c 0
 200 32 197 35 197 44 c 0
 197 80 284 161 343 227 c 1
EndSplineSet
EndChar

StartChar: onequarter
Encoding: 266 188 121
Width: 750
Flags: HMW
HStem: -14 21G<136 136 136 194> 0 149<513 557 425 599 513 513> 88 61<381 557 425 540 643 671> 660 20G<571 629 629 629> 663 20G<278 278>
LayerCount: 2
Fore
SplineSet
7 274 m 1
 7 293 l 1
 31 293 66 294 82 332 c 0
 118 446 168 598 168 613 c 0
 168 640 128 631 99 631 c 1
 101 652 l 1
 196 666 233 674 278 683 c 1
 178 353 l 2
 175 341 172 331 172 323 c 0
 172 300 185 293 231 293 c 1
 231 274 l 1
 7 274 l 1
136 -14 m 1
 571 680 l 1
 629 680 l 1
 629 678 l 1
 194 -14 l 1
 136 -14 l 1
425 149 m 1
 557 149 l 1
 608 313 l 1
 607 313 l 1
 605 315 l 1
 425 149 l 1
381 88 m 1
 397 155 l 1
 675 410 l 1
 721 410 l 1
 643 149 l 1
 688 149 l 1
 671 88 l 1
 627 88 l 1
 599 0 l 1
 513 0 l 1
 540 88 l 1
 381 88 l 1
EndSplineSet
EndChar

StartChar: onehalf
Encoding: 267 189 122
Width: 750
Flags: HMW
HStem: -14 21G<121 121 121 179> 0 69<508 595 595 621 508 650> 94 20G<685 701 701 701> 348 61<574.5 600.5> 660 20G<556 614 614 614> 663 20G<262 262>
LayerCount: 2
Fore
SplineSet
-9 274 m 1
 -9 293 l 1
 15 293 50 294 66 332 c 0
 102 446 152 598 152 613 c 0
 152 639 112 631 83 631 c 1
 85 652 l 1
 180 666 217 674 262 683 c 1
 162 353 l 2
 158 339 156 328 156 319 c 0
 156 298 171 293 215 293 c 1
 215 274 l 1
 -9 274 l 1
412 0 m 1
 412 16 l 1
 528 126 528 126 560 161 c 0
 597 203 630 243 630 279 c 0
 630 291 630 348 571 348 c 0
 524 348 498 309 489 300 c 1
 471 311 l 1
 489 347 532 409 617 409 c 0
 685 409 723 356 723 309 c 0
 723 252 674 201 631 170 c 2
 508 71 l 1
 508 69 l 1
 595 69 l 2
 647 69 663 80 685 114 c 1
 701 114 l 1
 650 0 l 1
 412 0 l 1
121 -14 m 1
 556 680 l 1
 614 680 l 1
 614 678 l 1
 179 -14 l 1
 121 -14 l 1
EndSplineSet
EndChar

StartChar: threequarters
Encoding: 268 190 123
Width: 750
Flags: HMW
HStem: -14 21G<141 141 141 199> 0 149<518 562 430 604 518 518> 88 61<386 562 430 545 648 676> 245 20G<53 144.5> 481 199 632 48 663 20G<180 235>
VStem: 200 84<378 417> 223 88<588.5 591.5>
LayerCount: 2
Fore
SplineSet
430 149 m 1
 562 149 l 1
 613 313 l 1
 612 313 l 1
 610 315 l 1
 430 149 l 1
386 88 m 1
 402 155 l 1
 680 410 l 1
 726 410 l 1
 648 149 l 1
 693 149 l 1
 676 88 l 1
 632 88 l 1
 604 0 l 1
 518 0 l 1
 545 88 l 1
 386 88 l 1
100 481 m 1
 102 495 l 1
 131 500 223 517 223 580 c 0
 223 603 210 632 170 632 c 0
 129 632 110 609 93 590 c 1
 79 603 l 1
 105 642 146 683 214 683 c 0
 256 683 311 657 311 601 c 0
 311 576 299 542 232 511 c 1
 261 492 284 470 284 421 c 0
 284 335 195 265 94 265 c 0
 12 265 7 304 7 311 c 0
 7 338 20 356 44 356 c 0
 62 356 75 347 102 309 c 0
 107 302 118 298 131 298 c 0
 169 298 200 340 200 387 c 0
 200 447 165 481 100 481 c 1
141 -14 m 1
 576 680 l 1
 634 680 l 1
 634 678 l 1
 199 -14 l 1
 141 -14 l 1
EndSplineSet
EndChar

StartChar: questiondown
Encoding: 191 191 124
Width: 500
Flags: HMW
HStem: -205 31<211.5 241 211.5 262.5> -205 196<133.5 337.5> 344 148<325.5 367.5 325.5 367.5>
VStem: 30 127<-84.5 -65 -125 -22> 273 148<397.5 438>
LayerCount: 2
Fore
SplineSet
273 418 m 0
 273 458 304 492 347 492 c 0
 388 492 421 459 421 418 c 0
 421 376 388 344 347 344 c 0
 303 344 273 377 273 418 c 0
304 271 m 1
 333 264 l 1
 330 231 323 181 262 105 c 0
 187 12 157 -38 157 -92 c 0
 157 -158 196 -174 227 -174 c 0
 255 -174 288 -157 288 -136 c 0
 288 -127 281 -119 274 -109 c 0
 267 -99 259 -87 259 -68 c 0
 259 -34 288 -9 320 -9 c 0
 355 -9 381 -39 381 -75 c 0
 381 -143 317 -205 208 -205 c 0
 59 -205 30 -108 30 -61 c 0
 30 17 89 66 222 153 c 0
 265 181 280 212 304 271 c 1
EndSplineSet
EndChar

StartChar: Agrave
Encoding: 269 192 125
Width: 667
Flags: HMW
HStem: 0 35<-67 -67 107.5 129 289 311.5> 208 40<161 346 161 353 138 346> 663 20G<388 413 413 413> 884 20G<288.5 315.5>
LayerCount: 2
Fore
SplineSet
161 248 m 1
 346 248 l 1
 309 491 l 1
 161 248 l 1
-67 0 m 1
 -67 35 l 1
 -39 42 -20 32 16 91 c 2
 388 683 l 1
 413 683 l 1
 509 91 l 2
 517 44 531 41 593 35 c 1
 593 0 l 1
 289 0 l 1
 289 35 l 1
 334 35 368 42 368 91 c 0
 368 111 368 101 353 208 c 1
 138 208 l 1
 69 91 l 2
 65 85 64 77 64 70 c 0
 64 48 86 35 129 35 c 1
 129 0 l 1
 -67 0 l 1
424 723 m 1
 291 812 l 2
 278 821 257 838 257 859 c 0
 257 880 275 904 302 904 c 0
 329 904 348 882 359 869 c 2
 469 723 l 1
 424 723 l 1
EndSplineSet
EndChar

StartChar: Aacute
Encoding: 270 193 126
Width: 667
Flags: HMW
HStem: 0 35<-67 -67 107.5 129 289 311.5> 208 40<161 346 161 353 138 346> 663 20G<388 413 413 413> 884 20G<491 512.5>
LayerCount: 2
Fore
SplineSet
161 248 m 1
 346 248 l 1
 309 491 l 1
 161 248 l 1
-67 0 m 1
 -67 35 l 1
 -39 42 -20 32 16 91 c 2
 388 683 l 1
 413 683 l 1
 509 91 l 2
 517 44 531 41 593 35 c 1
 593 0 l 1
 289 0 l 1
 289 35 l 1
 334 35 368 42 368 91 c 0
 368 111 368 101 353 208 c 1
 138 208 l 1
 69 91 l 2
 65 85 64 77 64 70 c 0
 64 48 86 35 129 35 c 1
 129 0 l 1
 -67 0 l 1
311 723 m 1
 433 854 l 2
 459 881 480 904 502 904 c 0
 523 904 551 889 551 857 c 0
 551 834 535 823 512 810 c 2
 360 723 l 1
 311 723 l 1
EndSplineSet
EndChar

StartChar: Acircumflex
Encoding: 271 194 127
Width: 667
Flags: HMW
HStem: 0 35<-67 -67 105.5 129> 208 40<161 346 161 353 138 346> 663 20G<388 413 413 413> 877 20G<387 468 468 468>
LayerCount: 2
Fore
SplineSet
161 248 m 1
 346 248 l 1
 309 491 l 1
 161 248 l 1
-67 0 m 1
 -67 35 l 1
 -38 44 -22 32 16 91 c 2
 388 683 l 1
 413 683 l 1
 509 91 l 2
 517 44 532 40 593 35 c 1
 593 0 l 1
 289 0 l 1
 289 35 l 1
 334 38 368 44 368 91 c 0
 368 111 369 102 353 208 c 1
 138 208 l 1
 69 91 l 2
 66 86 64 80 64 75 c 0
 64 52 82 35 129 35 c 1
 129 0 l 1
 -67 0 l 1
227 723 m 1
 387 897 l 1
 468 897 l 1
 554 723 l 1
 503 723 l 1
 415 818 l 1
 284 723 l 1
 227 723 l 1
EndSplineSet
EndChar

StartChar: Atilde
Encoding: 272 195 128
Width: 667
Flags: HMW
HStem: 0 35<105.5 129 -67 -67> 208 40<161 346 161 353 138 346> 669 20G 743 119<282.5 499> 787 75<288.5 321.5> 817 75
LayerCount: 2
Fore
SplineSet
309 491 m 1
 161 248 l 1
 346 248 l 1
 309 491 l 1
129 0 m 1
 -67 0 l 1
 -67 35 l 1
 -38 44 -22 32 16 91 c 2
 388 683 l 1
 413 683 l 1
 509 91 l 2
 517 44 532 40 593 35 c 1
 593 0 l 1
 289 0 l 1
 289 35 l 1
 334 38 368 44 368 91 c 0
 368 111 369 102 353 208 c 1
 138 208 l 1
 69 91 l 2
 66 86 64 80 64 75 c 0
 64 52 82 35 129 35 c 1
 129 0 l 1
255 744 m 1
 215 744 l 1
 215 747 233 862 332 862 c 0
 359 862 387 853 414 842 c 0
 441 831 465 820 480 820 c 0
 515 820 524 843 533 862 c 1
 574 862 l 1
 566 826 542 743 456 743 c 0
 429 743 409 757 382 769 c 0
 361 780 338 787 305 787 c 0
 272 787 263 763 255 744 c 1
EndSplineSet
EndChar

StartChar: Adieresis
Encoding: 273 196 129
Width: 667
Flags: HMW
HStem: 0 35<-67 -67 105.5 129> 208 40<161 346 161 353 138 346> 681 20G 728 134<271.5 308.5 483.5 520.5> 741 134
VStem: 236 134 420 134
LayerCount: 2
Fore
SplineSet
161 248 m 1
 346 248 l 1
 309 491 l 1
 161 248 l 1
-67 0 m 1
 -67 35 l 1
 -38 44 -22 32 16 91 c 2
 388 683 l 1
 413 683 l 1
 509 91 l 2
 517 44 532 40 593 35 c 1
 593 0 l 1
 289 0 l 1
 289 35 l 1
 334 38 368 44 368 91 c 0
 368 111 369 102 353 208 c 1
 138 208 l 1
 69 91 l 2
 66 86 64 80 64 75 c 0
 64 52 82 35 129 35 c 1
 129 0 l 1
 -67 0 l 1
435 795 m 0
 435 832 465 862 502 862 c 0
 539 862 569 832 569 795 c 0
 569 758 539 728 502 728 c 0
 465 728 435 758 435 795 c 0
223 795 m 0
 223 832 253 862 290 862 c 0
 327 862 357 832 357 795 c 0
 357 758 327 728 290 728 c 0
 253 728 223 758 223 795 c 0
EndSplineSet
EndChar

StartChar: Aring
Encoding: 274 197 130
Width: 667
Flags: HMW
HStem: 0 35<-67 -67 105.5 129> 208 40<161 346 161 353 138 346> 663 20G<388 413 413 413> 708 48<374 406 374 419.5> 865 49
VStem: 284 48<798 830 798 843.5> 448 49<798 830>
LayerCount: 2
Fore
SplineSet
161 248 m 1
 346 248 l 1
 309 491 l 1
 161 248 l 1
-67 0 m 1
 -67 35 l 1
 -38 44 -22 32 16 91 c 2
 388 683 l 1
 413 683 l 1
 509 91 l 2
 517 44 532 40 593 35 c 1
 593 0 l 1
 289 0 l 1
 289 35 l 1
 334 38 368 44 368 91 c 0
 368 111 369 102 353 208 c 1
 138 208 l 1
 69 91 l 2
 66 86 64 80 64 75 c 0
 64 52 82 35 129 35 c 1
 129 0 l 1
 -67 0 l 1
332 814 m 0
 332 782 358 756 390 756 c 0
 422 756 448 782 448 814 c 0
 448 846 422 872 390 872 c 0
 358 872 332 846 332 814 c 0
284 814 m 0
 284 873 331 921 390 921 c 0
 449 921 497 873 497 814 c 0
 497 755 449 708 390 708 c 0
 330 708 284 754 284 814 c 0
EndSplineSet
EndChar

StartChar: AE
Encoding: 225 198 131
Width: 944
Flags: HMW
HStem: 0 32<110 131 519 608.5> 255 39<225 388 388 388> 338 32<553 561> 637 32<661.5 727.5>
LayerCount: 2
Fore
SplineSet
398 294 m 1
 225 294 l 1
 478 617 l 1
 490 617 l 1
 398 294 l 1
-64 32 m 1
 -64 0 l 1
 131 0 l 1
 131 32 l 1
 89 32 68 45 68 71 c 0
 68 81 73 92 82 105 c 2
 196 255 l 1
 388 255 l 1
 342 103 l 2
 326 45 311 40 264 32 c 1
 264 0 l 1
 791 0 l 1
 850 196 l 1
 824 199 l 1
 752 79 684 32 533 32 c 0
 505 32 487 46 487 74 c 0
 487 80 488 88 490 97 c 2
 553 338 l 1
 676 341 696 298 683 204 c 1
 708 199 l 1
 781 472 l 1
 755 476 l 1
 715 380 662 367 561 370 c 1
 626 605 l 2
 631 626 635 637 688 637 c 0
 767 637 849 612 849 484 c 1
 873 479 l 1
 918 669 l 1
 329 669 l 1
 329 636 l 1
 380 636 410 628 410 607 c 0
 410 594 403 580 390 564 c 2
 24 109 l 2
 -32 37 -31 37 -64 32 c 1
EndSplineSet
EndChar

StartChar: Ccedilla
Encoding: 275 199 132
Width: 667
Flags: HMW
HStem: -218 41<256.5 286.5 256.5 297.5> 21 21G 56 52 647 35
VStem: 32 154<154 302.5 124.5 350.5> 286 45<-17 -16> 600 32 645 30
LayerCount: 2
Fore
SplineSet
235 -92 m 1
 286 -17 l 1
 161 -17 32 68 32 240 c 0
 32 461 208 685 451 685 c 0
 491 685 522 679 546 672 c 0
 574 664 594 656 607 656 c 0
 630 656 636 669 647 685 c 1
 677 685 l 1
 626 451 l 1
 594 457 l 1
 596 468 597 479 597 491 c 0
 597 588 539 650 451 650 c 0
 290 650 186 391 186 214 c 0
 186 35 316 35 330 35 c 0
 408 35 474 60 546 153 c 1
 576 131 l 1
 528 59 448 -16 331 -16 c 1
 300 -62 l 1
 307 -60 316 -59 327 -59 c 0
 365 -59 416 -80 416 -136 c 0
 416 -199 324 -218 271 -218 c 0
 220 -218 196 -201 180 -193 c 1
 202 -160 l 1
 225 -171 242 -177 271 -177 c 0
 302 -177 325 -163 325 -136 c 0
 325 -124 303 -99 274 -99 c 0
 266 -99 257 -100 248 -104 c 1
 235 -92 l 1
EndSplineSet
EndChar

StartChar: Egrave
Encoding: 276 200 133
Width: 667
Flags: HMW
HStem: 0 32<234 320 234 527> 338 32<275 320.5> 637 32<373 488.5> 884 20G<288.5 315.5>
LayerCount: 2
Fore
SplineSet
-27 0 m 1
 -27 35 l 1
 13 42 36 45 53 107 c 2
 186 592 l 1
 186 624 175 628 113 634 c 1
 113 669 l 1
 653 669 l 1
 610 479 l 1
 583 484 l 1
 583 558 583 637 394 637 c 0
 352 637 344 621 336 593 c 2
 275 370 l 1
 422 370 437 395 480 476 c 1
 508 472 l 1
 434 199 l 1
 406 204 l 1
 409 222 410 238 410 252 c 0
 410 312 375 338 266 338 c 1
 205 107 l 2
 200 87 192 70 192 57 c 0
 192 41 208 32 260 32 c 0
 380 32 492 73 561 199 c 1
 586 194 l 1
 527 0 l 1
 -27 0 l 1
424 723 m 1
 291 812 l 2
 278 821 257 838 257 859 c 0
 257 880 275 904 302 904 c 0
 329 904 347 883 358 870 c 2
 469 723 l 1
 424 723 l 1
EndSplineSet
EndChar

StartChar: Eacute
Encoding: 277 201 134
Width: 667
Flags: HMW
HStem: 0 32<233 320 233 527> 338 32<275 275 275 321.5> 637 32<375 490.5> 884 20G<491 512.5>
LayerCount: 2
Fore
SplineSet
-27 0 m 1
 -27 35 l 1
 13 42 36 45 53 107 c 2
 186 592 l 1
 186 624 175 626 113 634 c 1
 113 669 l 1
 653 669 l 1
 610 479 l 1
 583 484 l 1
 583 558 585 637 396 637 c 0
 354 637 344 621 336 593 c 2
 275 370 l 1
 422 369 437 395 480 476 c 1
 508 472 l 1
 434 199 l 1
 406 204 l 1
 408 221 410 236 410 249 c 0
 410 311 377 338 266 338 c 1
 205 107 l 2
 200 88 192 72 192 59 c 0
 192 42 206 32 260 32 c 0
 380 32 492 73 561 199 c 1
 586 194 l 1
 527 0 l 1
 -27 0 l 1
311 723 m 1
 433 854 l 2
 459 881 480 904 502 904 c 0
 523 904 551 889 551 857 c 0
 551 834 534 822 511 809 c 2
 360 723 l 1
 311 723 l 1
EndSplineSet
EndChar

StartChar: Ecircumflex
Encoding: 278 202 135
Width: 667
Flags: HMW
HStem: 0 32<233.5 320 233.5 527> 338 32<275 275 275 323> 637 32<373 488.5> 877 20G<387 468 468 468>
LayerCount: 2
Fore
SplineSet
-27 0 m 1
 -27 35 l 1
 13 42 36 45 53 107 c 2
 186 592 l 1
 186 624 175 626 113 634 c 1
 113 669 l 1
 653 669 l 1
 610 479 l 1
 583 484 l 1
 583 558 583 637 394 637 c 0
 352 637 344 621 336 593 c 2
 275 370 l 1
 422 369 437 395 480 476 c 1
 508 472 l 1
 434 199 l 1
 406 204 l 1
 408 218 410 231 410 243 c 0
 410 309 380 338 266 338 c 1
 203 107 l 2
 198 88 192 72 192 59 c 0
 192 42 207 32 260 32 c 0
 380 32 492 73 561 199 c 1
 586 194 l 1
 527 0 l 1
 -27 0 l 1
227 723 m 1
 387 897 l 1
 468 897 l 1
 554 723 l 1
 503 723 l 1
 415 818 l 1
 284 723 l 1
 227 723 l 1
EndSplineSet
EndChar

StartChar: Edieresis
Encoding: 279 203 136
Width: 667
Flags: HMW
HStem: 0 32<233.5 320 233.5 527> 338 32<275 275 275 321.5> 637 32<373 488.5> 727 135<290 328 502 540>
VStem: 242 135<775 813> 454 135<775 813>
LayerCount: 2
Fore
SplineSet
454 794 m 0
 454 832 483 862 521 862 c 0
 559 862 589 832 589 794 c 0
 589 756 559 727 521 727 c 0
 483 727 454 756 454 794 c 0
242 794 m 0
 242 832 271 862 309 862 c 0
 347 862 377 832 377 794 c 0
 377 756 347 727 309 727 c 0
 271 727 242 756 242 794 c 0
-27 0 m 1
 -27 35 l 1
 13 42 36 45 53 107 c 2
 186 592 l 1
 186 624 175 626 113 634 c 1
 113 669 l 1
 653 669 l 1
 610 479 l 1
 583 484 l 1
 583 558 583 637 394 637 c 0
 352 637 344 621 336 593 c 2
 275 370 l 1
 422 369 437 395 480 476 c 1
 508 472 l 1
 434 199 l 1
 406 204 l 1
 408 221 410 236 410 249 c 0
 410 311 377 338 266 338 c 1
 205 107 l 2
 200 87 192 71 192 58 c 0
 192 42 207 32 260 32 c 0
 380 32 492 73 561 199 c 1
 586 194 l 1
 527 0 l 1
 -27 0 l 1
EndSplineSet
EndChar

StartChar: Igrave
Encoding: 280 204 137
Width: 389
Flags: HMW
HStem: 0 35<-32 -32 231.5 264> 634 35<108 137.5 108 406> 884 20G<169.5 196.5>
LayerCount: 2
Fore
SplineSet
305 723 m 1
 172 812 l 2
 159 821 138 838 138 859 c 0
 138 880 156 904 183 904 c 0
 210 904 228 883 239 870 c 2
 350 723 l 1
 305 723 l 1
-32 0 m 1
 -32 35 l 1
 11 41 32 50 48 107 c 2
 176 565 l 2
 178 577 183 592 183 604 c 0
 183 621 167 634 108 634 c 1
 108 669 l 1
 406 669 l 1
 406 634 l 1
 368 629 341 625 324 562 c 2
 196 107 l 2
 193 97 187 84 187 72 c 0
 187 50 199 35 264 35 c 1
 264 0 l 1
 -32 0 l 1
EndSplineSet
EndChar

StartChar: Iacute
Encoding: 281 205 138
Width: 389
Flags: HMW
HStem: 0 35<-32 -32 233.5 264> 634 35<108 137.5 108 406> 884 20G<352 373.5>
LayerCount: 2
Fore
SplineSet
-32 0 m 1
 -32 35 l 1
 11 41 32 50 48 107 c 2
 176 565 l 2
 178 577 183 592 183 604 c 0
 183 622 167 634 108 634 c 1
 108 669 l 1
 406 669 l 1
 406 634 l 1
 368 629 341 625 324 562 c 2
 196 107 l 2
 193 96 187 81 187 68 c 0
 187 48 203 35 264 35 c 1
 264 0 l 1
 -32 0 l 1
192 723 m 1
 294 854 l 2
 320 881 341 904 363 904 c 0
 384 904 412 889 412 857 c 0
 412 834 393 817 371 804 c 2
 237 723 l 1
 192 723 l 1
EndSplineSet
EndChar

StartChar: Icircumflex
Encoding: 282 206 139
Width: 389
Flags: HMW
HStem: 0 35<-32 -32 233.5 264> 634 35<108 138 108 406> 877 20G<253 334 334 334>
LayerCount: 2
Fore
SplineSet
-32 0 m 1
 -32 35 l 1
 11 41 32 50 48 107 c 2
 176 565 l 2
 178 577 183 591 183 603 c 0
 183 621 168 634 108 634 c 1
 108 669 l 1
 406 669 l 1
 406 634 l 1
 368 629 341 625 324 562 c 2
 196 107 l 2
 193 96 187 81 187 68 c 0
 187 48 203 35 264 35 c 1
 264 0 l 1
 -32 0 l 1
119 723 m 1
 253 897 l 1
 334 897 l 1
 420 723 l 1
 369 723 l 1
 281 818 l 1
 176 723 l 1
 119 723 l 1
EndSplineSet
EndChar

StartChar: Idieresis
Encoding: 283 207 140
Width: 389
Flags: HMW
HStem: 0 35<-32 -32 231.5 264> 634 35<108 138 108 406> 728 134<146.5 188 146.5 188.5 353.5 395>
VStem: 103 135<783 808>
LayerCount: 2
Fore
SplineSet
-32 0 m 1
 -32 35 l 1
 11 41 32 50 48 107 c 2
 176 565 l 2
 178 577 183 591 183 603 c 0
 183 621 168 634 108 634 c 1
 108 669 l 1
 406 669 l 1
 406 634 l 1
 368 629 341 625 324 562 c 2
 196 107 l 2
 193 97 187 84 187 72 c 0
 187 50 199 35 264 35 c 1
 264 0 l 1
 -32 0 l 1
310 796 m 0
 310 820 331 862 376 862 c 0
 414 862 445 831 445 794 c 0
 445 758 415 728 376 728 c 0
 329 728 310 770 310 796 c 0
103 796 m 0
 103 820 124 862 169 862 c 0
 207 862 238 831 238 794 c 0
 238 758 208 728 169 728 c 0
 122 728 103 770 103 796 c 0
EndSplineSet
EndChar

StartChar: Eth
Encoding: 284 208 141
Width: 722
Flags: HMW
HStem: 0 34<230 255> 329 44<22 112 10 124 272 382> 638 31<383.5 399 399 471.5>
VStem: 553 147<402 477>
LayerCount: 2
Fore
SplineSet
-31 0 m 1
 -31 35 l 1
 2 40 32 46 60 140 c 0
 96 263 107 310 112 329 c 1
 10 329 l 1
 22 373 l 1
 124 373 l 1
 173 555 182 577 182 590 c 0
 182 623 171 625 109 634 c 1
 109 669 l 1
 399 669 l 2
 586 669 700 571 700 391 c 0
 700 224 573 6 255 0 c 1
 -31 0 l 1
260 329 m 1
 205 126 l 2
 199 105 195 88 195 73 c 0
 195 49 209 34 251 34 c 0
 510 34 553 351 553 453 c 0
 553 501 552 638 391 638 c 0
 376 638 344 641 333 600 c 2
 272 373 l 1
 394 373 l 1
 382 329 l 1
 260 329 l 1
EndSplineSet
EndChar

StartChar: Ntilde
Encoding: 285 209 142
Width: 722
Flags: HMW
HStem: -15 21G<475 503 475 475> 0 35<-27 -27 152.5 181> 634 35<111 306 539 566.5> 743 119<326 542.5> 787 75<331.5 362.5>
LayerCount: 2
Fore
SplineSet
258 744 m 1
 258 746 277 862 375 862 c 0
 402 862 431 852 457 842 c 0
 484 831 508 820 523 820 c 0
 557 820 567 843 576 862 c 1
 617 862 l 1
 608 827 586 743 499 743 c 0
 468 743 445 753 423 764 c 0
 400 775 377 787 348 787 c 0
 315 787 306 763 298 744 c 1
 258 744 l 1
-27 0 m 1
 -27 35 l 1
 23 47 34 39 74 178 c 2
 194 589 l 1
 175 633 164 629 111 634 c 1
 111 669 l 1
 306 669 l 1
 521 204 l 1
 601 491 l 2
 609 519 615 554 615 582 c 0
 615 615 594 634 539 634 c 1
 539 669 l 1
 748 669 l 1
 748 634 l 1
 695 621 685 629 646 491 c 2
 503 -15 l 1
 475 -15 l 1
 218 534 l 1
 119 178 l 2
 111 151 104 118 104 90 c 0
 104 54 124 35 181 35 c 1
 181 0 l 1
 -27 0 l 1
EndSplineSet
EndChar

StartChar: Ograve
Encoding: 286 210 143
Width: 722
Flags: HMW
HStem: -18 34<245.5 364 245.5 389.5> 649 34<350 494> 884 20G<316.5 343.5>
VStem: 27 144<160.5 198 102 331.5> 547 144<464 527 343 532.5>
LayerCount: 2
Fore
SplineSet
452 723 m 1
 319 812 l 2
 306 821 285 838 285 859 c 0
 285 880 303 904 330 904 c 0
 357 904 375 883 386 870 c 2
 497 723 l 1
 452 723 l 1
27 209 m 0
 27 454 230 683 449 683 c 0
 558 683 691 614 691 440 c 0
 691 246 514 -18 265 -18 c 0
 98 -18 27 112 27 209 c 0
171 152 m 0
 171 52 216 16 275 16 c 0
 453 16 547 406 547 522 c 0
 547 543 546 649 442 649 c 0
 258 649 171 244 171 152 c 0
EndSplineSet
EndChar

StartChar: Oacute
Encoding: 287 211 144
Width: 722
Flags: HMW
HStem: -18 34<245.5 364 245.5 389.5> 649 34<350 494> 884 20G<554 575.5>
VStem: 27 144<160.5 198 102 331.5> 547 144<464 527 343 532.5>
LayerCount: 2
Fore
SplineSet
374 723 m 1
 496 854 l 2
 522 881 543 904 565 904 c 0
 586 904 614 889 614 857 c 0
 614 834 598 823 575 810 c 2
 423 723 l 1
 374 723 l 1
27 209 m 0
 27 454 230 683 449 683 c 0
 558 683 691 614 691 440 c 0
 691 246 514 -18 265 -18 c 0
 98 -18 27 112 27 209 c 0
171 152 m 0
 171 52 216 16 275 16 c 0
 453 16 547 406 547 522 c 0
 547 543 546 649 442 649 c 0
 258 649 171 244 171 152 c 0
EndSplineSet
EndChar

StartChar: Ocircumflex
Encoding: 288 212 145
Width: 722
Flags: HMW
HStem: -18 34<245.5 364 245.5 389.5> 649 34<350 494> 877 20G<430 511 511 511>
VStem: 27 144<160.5 198 102 331.5> 547 144<464 527 343 532.5>
LayerCount: 2
Fore
SplineSet
270 723 m 1
 430 897 l 1
 511 897 l 1
 597 723 l 1
 546 723 l 1
 458 820 l 1
 327 723 l 1
 270 723 l 1
27 209 m 0
 27 454 230 683 449 683 c 0
 558 683 691 614 691 440 c 0
 691 246 514 -18 265 -18 c 0
 98 -18 27 112 27 209 c 0
171 152 m 0
 171 52 216 16 275 16 c 0
 453 16 547 406 547 522 c 0
 547 543 546 649 442 649 c 0
 258 649 171 244 171 152 c 0
EndSplineSet
EndChar

StartChar: Otilde
Encoding: 289 213 146
Width: 722
Flags: HMW
HStem: -18 34<245.5 364 245.5 389.5> 649 34<350 494> 743 119<331 547.5> 787 75<336.5 365.5>
VStem: 27 144<161.5 199 103 332.5> 547 144<463 526 342 531.5>
LayerCount: 2
Fore
SplineSet
263 744 m 1
 263 746 282 862 380 862 c 0
 407 862 435 852 461 842 c 0
 488 831 513 820 528 820 c 0
 562 820 572 843 581 862 c 1
 622 862 l 1
 613 827 591 743 504 743 c 0
 475 743 450 753 426 764 c 0
 401 775 378 787 353 787 c 0
 320 787 311 763 303 744 c 1
 263 744 l 1
27 210 m 0
 27 455 230 683 449 683 c 0
 558 683 691 613 691 439 c 0
 691 245 514 -18 265 -18 c 0
 98 -18 27 113 27 210 c 0
171 153 m 0
 171 53 216 16 275 16 c 0
 453 16 547 405 547 521 c 0
 547 542 546 649 442 649 c 0
 258 649 171 245 171 153 c 0
EndSplineSet
EndChar

StartChar: Odieresis
Encoding: 290 214 147
Width: 722
Flags: HMW
HStem: -18 34<245.5 364 245.5 389.5> 649 34<350 494> 728 134<339.5 376.5 550.5 587.5>
VStem: 27 144<161.5 199 103 332.5> 291 134<776.5 813.5> 502 134<776.5 813.5> 547 144<463 526 342 531.5>
LayerCount: 2
Fore
SplineSet
502 795 m 0
 502 832 532 862 569 862 c 0
 606 862 636 832 636 795 c 0
 636 758 606 728 569 728 c 0
 532 728 502 758 502 795 c 0
291 795 m 0
 291 832 321 862 358 862 c 0
 395 862 425 832 425 795 c 0
 425 758 395 728 358 728 c 0
 321 728 291 758 291 795 c 0
27 210 m 0
 27 455 230 683 449 683 c 0
 558 683 691 613 691 439 c 0
 691 245 514 -18 265 -18 c 0
 98 -18 27 113 27 210 c 0
171 153 m 0
 171 53 216 16 275 16 c 0
 453 16 547 405 547 521 c 0
 547 542 546 649 442 649 c 0
 258 649 171 245 171 153 c 0
EndSplineSet
EndChar

StartChar: multiply
Encoding: 291 215 148
Width: 570
Flags: HMW
HStem: 16 21G<92 92 475 475> 470 20G<94 94 472 472>
LayerCount: 2
Fore
SplineSet
48 60 m 1
 237 254 l 1
 48 443 l 1
 94 490 l 1
 284 300 l 1
 472 490 l 1
 522 447 l 1
 329 253 l 1
 522 63 l 1
 475 16 l 1
 284 208 l 1
 92 16 l 1
 48 60 l 1
EndSplineSet
EndChar

StartChar: Oslash
Encoding: 233 216 149
Width: 722
Flags: HMW
HStem: -125 21G<65 65 65 113> -18 34<262.5 364.5 262.5 389.5> 651 34<350.5 454.5 331.5 455.5> 744 20G<584 633 633 633>
VStem: 27 144<172.5 198 135 329.5> 547 144<469 499 347 533>
LayerCount: 2
Fore
SplineSet
65 -125 m 1
 144 11 l 1
 63 53 27 138 27 207 c 0
 27 452 222 685 441 685 c 0
 468 685 504 681 531 672 c 1
 584 764 l 1
 633 764 l 1
 570 656 l 1
 638 621 691 554 691 444 c 0
 691 250 514 -18 265 -18 c 0
 234 -18 207 -13 183 -5 c 1
 113 -125 l 1
 65 -125 l 1
208 38 m 1
 227 22 250 16 275 16 c 0
 454 16 547 414 547 524 c 0
 547 542 544 570 533 593 c 1
 208 38 l 1
182 77 m 1
 506 630 l 1
 491 643 470 651 441 651 c 0
 260 651 171 246 171 150 c 0
 171 120 174 97 182 77 c 1
EndSplineSet
EndChar

StartChar: Ugrave
Encoding: 292 217 150
Width: 722
Flags: HMW
HStem: -18 56<280.5 390.5> 634 35<98 129 98 409 536 564> 884 20G<316.5 343.5>
VStem: 37 138
LayerCount: 2
Fore
SplineSet
452 723 m 1
 319 812 l 2
 306 821 285 838 285 859 c 0
 285 880 303 904 330 904 c 0
 357 904 375 883 386 870 c 2
 497 723 l 1
 452 723 l 1
98 634 m 1
 98 669 l 1
 409 669 l 1
 409 634 l 1
 358 631 332 626 315 562 c 2
 233 272 l 2
 220 225 205 175 205 133 c 0
 205 79 233 38 328 38 c 0
 471 38 510 176 539 282 c 2
 597 491 l 2
 604 518 611 553 611 582 c 0
 611 617 592 634 536 634 c 1
 536 669 l 1
 744 669 l 1
 744 634 l 1
 694 623 682 630 642 491 c 2
 576 263 l 2
 536 124 495 -18 286 -18 c 0
 179 -18 67 34 67 154 c 0
 67 240 160 513 160 559 c 0
 160 591 160 634 98 634 c 1
EndSplineSet
EndChar

StartChar: Uacute
Encoding: 293 218 151
Width: 722
Flags: HMW
HStem: -18 56<282 390.5> 634 35<98 129 98 409 536 564> 884 20G<594 615.5>
VStem: 67 138<102 149.5 102 197>
LayerCount: 2
Fore
SplineSet
98 634 m 1
 98 669 l 1
 409 669 l 1
 409 634 l 1
 358 631 332 626 315 562 c 2
 233 272 l 2
 219 223 205 171 205 128 c 0
 205 76 236 38 328 38 c 0
 471 38 510 176 539 282 c 2
 597 491 l 2
 604 518 611 553 611 581 c 0
 611 616 592 634 536 634 c 1
 536 669 l 1
 744 669 l 1
 744 634 l 1
 694 623 682 630 642 491 c 2
 576 263 l 2
 536 124 495 -18 286 -18 c 0
 179 -18 67 34 67 154 c 0
 67 240 160 513 160 559 c 0
 160 591 160 634 98 634 c 1
414 723 m 1
 536 854 l 2
 562 881 583 904 605 904 c 0
 626 904 654 889 654 857 c 0
 654 834 638 823 615 810 c 2
 463 723 l 1
 414 723 l 1
EndSplineSet
EndChar

StartChar: Ucircumflex
Encoding: 294 219 152
Width: 722
Flags: HMW
HStem: -18 56<282.5 390.5> 634 35<98 129 98 409 536 562.5> 877 20G<430 511 511 511>
VStem: 67 138<101.5 148.5 101.5 197>
LayerCount: 2
Fore
SplineSet
98 634 m 1
 98 669 l 1
 409 669 l 1
 409 634 l 1
 358 631 332 626 315 562 c 2
 233 272 l 2
 219 223 205 170 205 127 c 0
 205 76 237 38 328 38 c 0
 471 38 510 176 539 282 c 2
 597 491 l 2
 605 520 611 557 611 586 c 0
 611 618 589 634 536 634 c 1
 536 669 l 1
 744 669 l 1
 744 634 l 1
 694 623 682 630 642 491 c 2
 576 263 l 2
 536 124 495 -18 286 -18 c 0
 179 -18 67 34 67 154 c 0
 67 240 160 513 160 559 c 0
 160 591 160 634 98 634 c 1
270 723 m 1
 430 897 l 1
 511 897 l 1
 597 723 l 1
 546 723 l 1
 458 816 l 1
 327 723 l 1
 270 723 l 1
EndSplineSet
EndChar

StartChar: Udieresis
Encoding: 295 220 153
Width: 722
Flags: HMW
HStem: -18 56<281 390.5> 634 35<98 129 98 409 536 564.5> 728 134<353.5 390.5 566.5 603.5>
VStem: 104 138 305 134<776.5 813.5> 486 134
LayerCount: 2
Fore
SplineSet
518 795 m 0
 518 832 548 862 585 862 c 0
 622 862 652 832 652 795 c 0
 652 758 622 728 585 728 c 0
 548 728 518 758 518 795 c 0
305 795 m 0
 305 832 335 862 372 862 c 0
 409 862 439 832 439 795 c 0
 439 758 409 728 372 728 c 0
 335 728 305 758 305 795 c 0
98 634 m 1
 98 669 l 1
 409 669 l 1
 409 634 l 1
 358 631 332 626 315 562 c 2
 233 272 l 2
 220 225 205 174 205 132 c 0
 205 78 234 38 328 38 c 0
 471 38 510 176 539 282 c 2
 597 491 l 2
 604 518 611 551 611 579 c 0
 611 615 593 634 536 634 c 1
 536 669 l 1
 744 669 l 1
 744 634 l 1
 694 623 682 630 642 491 c 2
 576 263 l 2
 536 124 495 -18 286 -18 c 0
 179 -18 67 34 67 154 c 0
 67 240 160 513 160 559 c 0
 160 591 160 634 98 634 c 1
EndSplineSet
EndChar

StartChar: Yacute
Encoding: 296 221 154
Width: 611
Flags: HMW
HStem: 0 35<73 73 369.5 395> 634 35<73 356 327 356 451 478.5> 884 20G<538 559.5>
LayerCount: 2
Fore
SplineSet
358 723 m 1
 480 854 l 2
 506 881 527 904 549 904 c 0
 570 904 598 889 598 857 c 0
 598 834 582 823 559 810 c 2
 407 723 l 1
 358 723 l 1
73 0 m 1
 73 35 l 1
 131 40 162 63 180 127 c 2
 234 313 l 1
 146 571 l 2
 128 626 121 627 73 634 c 1
 73 669 l 1
 356 669 l 1
 356 634 l 1
 298 634 289 594 289 571 c 0
 289 543 299 552 363 352 c 1
 518 565 l 2
 529 580 533 593 533 603 c 0
 533 621 506 634 451 634 c 1
 451 669 l 1
 659 669 l 1
 659 634 l 1
 616 626 594 601 568 565 c 2
 378 308 l 1
 326 127 l 2
 319 110 317 94 317 80 c 0
 317 48 344 35 395 35 c 1
 395 0 l 1
 73 0 l 1
EndSplineSet
EndChar

StartChar: Thorn
Encoding: 297 222 155
Width: 611
Flags: HMW
HStem: 0 35<-27 -27 235.5 267> 182 32<291.5 335.5 276.5 379> 502 32<322.5 360 360 384.5> 502 167<322.5 384.5>
VStem: 427 146<333 387.5>
LayerCount: 2
Fore
SplineSet
-27 0 m 1
 -27 35 l 1
 13 42 36 45 53 107 c 2
 176 546 l 2
 182 568 185 587 185 602 c 0
 185 622 165 634 113 634 c 1
 113 669 l 1
 407 669 l 1
 406 634 l 1
 366 628 342 624 312 534 c 1
 360 534 l 2
 466 534 573 503 573 377 c 0
 573 249 446 182 312 182 c 0
 271 182 256 183 219 187 c 1
 196 103 l 2
 194 95 192 86 192 77 c 0
 192 54 204 35 267 35 c 1
 267 0 l 1
 -27 0 l 1
229 219 m 1
 249 215 268 214 285 214 c 0
 386 214 427 289 427 377 c 0
 427 398 427 502 342 502 c 0
 303 502 297 479 293 458 c 2
 229 219 l 1
EndSplineSet
EndChar

StartChar: germandbls
Encoding: 251 223 156
Width: 500
Flags: HMW
HStem: -200 130<-173 -45> -7 34<200.5 247 200.5 268.5> 675 30<291 337.5>
VStem: 315 120<229 293.5> 362 111<554 596>
LayerCount: 2
Fore
SplineSet
142 15 m 1
 162 50 l 1
 173 35 192 27 209 27 c 0
 285 27 315 205 315 253 c 0
 315 334 284 378 241 384 c 1
 248 417 l 1
 344 417 362 523 362 585 c 0
 362 607 361 675 314 675 c 0
 268 675 239 620 214 509 c 2
 123 102 l 2
 82 -79 14 -200 -104 -200 c 0
 -169 -200 -200 -161 -200 -125 c 0
 -200 -117 -200 -70 -146 -70 c 0
 -133 -70 -101 -77 -101 -114 c 0
 -101 -125 -103 -131 -105 -136 c 0
 -110 -146 -118 -147 -118 -158 c 0
 -118 -167 -114 -171 -107 -171 c 0
 -92 -171 -66 -154 -57 -143 c 0
 -20 -96 10 40 76 403 c 0
 102 546 174 705 328 705 c 0
 413 705 473 658 473 585 c 0
 473 475 357 423 294 400 c 1
 294 398 l 1
 372 385 435 347 435 253 c 0
 435 127 328 -7 209 -7 c 0
 166 -7 155 6 142 15 c 1
EndSplineSet
EndChar

StartChar: agrave
Encoding: 298 224 157
Width: 500
Flags: HMW
HStem: -14 21G<294.5 334.5> -13 71<38.5 189.5> 420 42<224 270.5> 436 20G<346 455 455 455> 677 20G<190.5 217.5>
VStem: -21 123<100.5 147.5 92 190.5>
LayerCount: 2
Fore
SplineSet
326 516 m 1
 193 605 l 2
 180 614 159 631 159 652 c 0
 159 673 177 697 204 697 c 0
 231 697 249 676 260 663 c 2
 371 516 l 1
 326 516 l 1
102 115 m 0
 102 69 132 58 146 58 c 0
 233 58 303 297 303 371 c 0
 303 413 275 420 266 420 c 0
 182 420 102 180 102 115 c 0
248 114 m 1
 222 70 171 -13 88 -13 c 0
 -11 -13 -21 84 -21 117 c 0
 -21 264 128 462 250 462 c 0
 310 462 321 419 325 394 c 1
 327 394 l 1
 346 456 l 1
 455 456 l 1
 384 220 l 2
 370 173 350 108 350 72 c 0
 350 62 355 58 362 58 c 0
 383 58 424 99 434 127 c 1
 455 112 l 1
 422 60 365 -14 304 -14 c 0
 285 -14 237 0 237 52 c 0
 237 68 242 86 250 115 c 1
 248 114 l 1
EndSplineSet
EndChar

StartChar: aacute
Encoding: 299 225 158
Width: 500
Flags: HMW
HStem: -14 21G<294.5 334.5> -13 71<38.5 189.5> 420 37 442 20G<189 280> 677 20G<403 424.5>
VStem: -21 123<100.5 147.5 92 190.5>
LayerCount: 2
Fore
SplineSet
223 516 m 1
 345 647 l 2
 371 674 392 697 414 697 c 0
 435 697 463 682 463 650 c 0
 463 627 447 616 424 603 c 2
 272 516 l 1
 223 516 l 1
102 115 m 0
 102 69 132 58 146 58 c 0
 233 58 303 297 303 371 c 0
 303 413 275 420 266 420 c 0
 182 420 102 180 102 115 c 0
248 114 m 1
 222 70 171 -13 88 -13 c 0
 -11 -13 -21 84 -21 117 c 0
 -21 264 128 462 250 462 c 0
 310 462 321 419 325 394 c 1
 327 394 l 1
 344 459 l 1
 455 456 l 1
 384 220 l 2
 370 173 350 108 350 72 c 0
 350 63 353 58 359 58 c 0
 379 58 423 98 434 127 c 1
 455 112 l 1
 422 60 365 -14 304 -14 c 0
 285 -14 237 0 237 52 c 0
 237 68 242 86 250 115 c 1
 248 114 l 1
EndSplineSet
EndChar

StartChar: acircumflex
Encoding: 300 226 159
Width: 500
Flags: HMW
HStem: -14 21G<294.5 334.5> -13 71<38.5 189.5> 420 37 442 20G<189 280> 670 20G<284 365 365 365>
VStem: -21 123<100.5 147.5 92 190.5>
LayerCount: 2
Fore
SplineSet
124 516 m 1
 284 690 l 1
 365 690 l 1
 451 516 l 1
 400 516 l 1
 312 609 l 1
 181 516 l 1
 124 516 l 1
102 115 m 0
 102 69 132 58 146 58 c 0
 233 58 303 297 303 371 c 0
 303 413 275 420 266 420 c 0
 182 420 102 180 102 115 c 0
248 114 m 1
 222 70 171 -13 88 -13 c 0
 -11 -13 -21 84 -21 117 c 0
 -21 264 128 462 250 462 c 0
 310 462 321 419 325 394 c 1
 327 394 l 1
 344 459 l 1
 455 456 l 1
 384 220 l 2
 370 173 350 108 350 72 c 0
 350 62 354 58 360 58 c 0
 380 58 423 99 434 127 c 1
 455 112 l 1
 422 60 365 -14 304 -14 c 0
 285 -14 237 0 237 52 c 0
 237 68 242 86 250 115 c 1
 248 114 l 1
EndSplineSet
EndChar

StartChar: atilde
Encoding: 301 227 160
Width: 500
Flags: HMW
HStem: -14 21G<294.5 334.5> -13 71<38.5 189.5> 420 37 442 20G<189 280> 536 119<200 416.5> 580 75<205.5 235>
VStem: -21 123<100.5 147.5 92 190.5>
LayerCount: 2
Fore
SplineSet
132 537 m 1
 132 539 151 655 249 655 c 0
 274 655 301 647 326 637 c 0
 355 626 381 613 397 613 c 0
 431 613 441 636 450 655 c 1
 491 655 l 1
 482 620 460 536 373 536 c 0
 347 536 320 549 293 561 c 0
 271 571 248 580 222 580 c 0
 189 580 180 556 172 537 c 1
 132 537 l 1
102 115 m 0
 102 69 132 58 146 58 c 0
 233 58 303 297 303 371 c 0
 303 413 275 420 266 420 c 0
 182 420 102 180 102 115 c 0
248 114 m 1
 222 70 171 -13 88 -13 c 0
 -11 -13 -21 84 -21 117 c 0
 -21 264 128 462 250 462 c 0
 310 462 321 419 325 394 c 1
 327 394 l 1
 344 459 l 1
 455 456 l 1
 384 220 l 2
 370 173 350 108 350 72 c 0
 350 63 353 58 359 58 c 0
 378 58 423 98 434 127 c 1
 455 112 l 1
 422 60 365 -14 304 -14 c 0
 285 -14 237 0 237 52 c 0
 237 68 242 86 250 115 c 1
 248 114 l 1
EndSplineSet
EndChar

StartChar: adieresis
Encoding: 302 228 161
Width: 500
Flags: HMW
HStem: -14 21G<294.5 334.5> -13 71<38.5 189.5> 420 37 442 20G<189 280> 521 134<177.5 214.5 385.5 422.5>
VStem: -21 123<100.5 147.5 92 190.5> 129 134<569.5 606.5> 337 134<569.5 606.5>
LayerCount: 2
Fore
SplineSet
337 588 m 0
 337 625 367 655 404 655 c 0
 441 655 471 625 471 588 c 0
 471 551 441 521 404 521 c 0
 367 521 337 551 337 588 c 0
129 588 m 0
 129 625 159 655 196 655 c 0
 233 655 263 625 263 588 c 0
 263 551 233 521 196 521 c 0
 159 521 129 551 129 588 c 0
102 115 m 0
 102 69 132 58 146 58 c 0
 233 58 303 297 303 371 c 0
 303 413 275 420 266 420 c 0
 182 420 102 180 102 115 c 0
248 114 m 1
 222 70 171 -13 88 -13 c 0
 -11 -13 -21 84 -21 117 c 0
 -21 264 128 462 250 462 c 0
 310 462 321 419 325 394 c 1
 327 394 l 1
 344 459 l 1
 455 456 l 1
 384 220 l 2
 370 173 350 108 350 72 c 0
 350 63 353 58 359 58 c 0
 379 58 423 98 434 127 c 1
 455 112 l 1
 422 60 365 -14 304 -14 c 0
 285 -14 237 0 237 52 c 0
 237 68 242 86 250 115 c 1
 248 114 l 1
EndSplineSet
EndChar

StartChar: aring
Encoding: 303 229 162
Width: 500
Flags: HMW
HStem: -14 21G<294.5 334.5> -13 71<38.5 189.5> 420 37 420 42<224 270.5> 516 49<302 334 302 348.5> 516 165<302 334 302 348.5> 565 116<302 334> 565 164<302 334> 681 48<302 334>
VStem: -21 123<100.5 147.5 92 190.5> 213 163<607 639 607 651.5> 260 116<607 639> 260 166<607 639> 376 50<607 639>
LayerCount: 2
Fore
SplineSet
260 623 m 0
 260 655 286 681 318 681 c 0
 350 681 376 655 376 623 c 0
 376 591 350 565 318 565 c 0
 286 565 260 591 260 623 c 0
213 622 m 0
 213 563 260 516 319 516 c 0
 378 516 426 563 426 622 c 0
 426 681 378 729 319 729 c 0
 260 729 213 681 213 622 c 0
102 115 m 0
 102 69 132 58 146 58 c 0
 233 58 303 297 303 371 c 0
 303 413 275 420 266 420 c 0
 182 420 102 180 102 115 c 0
248 114 m 1
 222 70 171 -13 88 -13 c 0
 -11 -13 -21 84 -21 117 c 0
 -21 264 128 462 250 462 c 0
 310 462 321 419 325 394 c 1
 327 394 l 1
 344 459 l 1
 455 456 l 1
 384 220 l 2
 370 173 350 108 350 72 c 0
 350 62 354 58 360 58 c 0
 380 58 423 99 434 127 c 1
 455 112 l 1
 422 60 365 -14 304 -14 c 0
 285 -14 237 0 237 52 c 0
 237 68 242 86 250 115 c 1
 248 114 l 1
EndSplineSet
EndChar

StartChar: ae
Encoding: 241 230 163
Width: 722
Flags: HMW
HStem: -13 63<439 495.5> -13 71 -12 21G<82.5 155.5> 86 20G 194 20G<413 427> 419 40 429 30<556.5 566.5> 442 20G<205 298 374 374>
VStem: -5 126<102.5 165 102.5 189.5> 583 90<335.5 394>
LayerCount: 2
Fore
SplineSet
413 214 m 1
 441 214 583 266 583 387 c 0
 583 401 583 429 550 429 c 0
 476 429 434 285 418 231 c 2
 413 214 l 1
121 118 m 0
 121 87 135 58 171 58 c 0
 267 58 333 307 333 356 c 0
 333 393 319 419 282 419 c 0
 206 419 121 212 121 118 c 0
280 116 m 1
 254 72 203 -12 108 -12 c 0
 57 -12 -5 18 -5 119 c 0
 -5 260 143 462 267 462 c 0
 329 462 341 426 350 400 c 1
 353 400 l 1
 374 462 l 1
 473 459 l 1
 455 400 l 1
 457 398 l 1
 499 451 539 459 574 459 c 0
 630 459 673 432 673 371 c 0
 673 300 606 227 445 190 c 2
 406 181 l 1
 403 166 401 149 401 133 c 0
 401 108 410 50 468 50 c 0
 539 50 582 122 591 139 c 1
 619 122 l 2
 618 120 561 -13 430 -13 c 0
 306 -13 291 68 282 116 c 1
 280 116 l 1
EndSplineSet
EndChar

StartChar: ccedilla
Encoding: 304 231 164
Width: 444
Flags: HMW
HStem: -218 41<77.5 107.5 77.5 118.5> -100 151<93 199.5> -79 20G<142.5 159> -12 21G<79.5 111> 302 160<201 348> 429 33<226.5 274.5>
VStem: -24 128<122 197.5 122 231.5>
LayerCount: 2
Fore
SplineSet
111 -12 m 1
 48 -12 -24 51 -24 155 c 0
 -24 308 132 462 270 462 c 0
 349 462 392 418 392 374 c 0
 392 329 367 302 329 302 c 0
 302 302 272 320 272 354 c 0
 272 371 280 384 286 394 c 0
 290 401 293 407 293 412 c 0
 293 425 279 429 270 429 c 0
 183 429 104 233 104 162 c 0
 104 82 148 51 177 51 c 0
 222 51 278 83 318 141 c 1
 346 123 l 1
 305 65 241 1 156 -10 c 1
 121 -62 l 1
 130 -60 138 -59 147 -59 c 0
 171 -59 237 -76 237 -136 c 0
 237 -199 145 -218 92 -218 c 0
 40 -218 18 -200 1 -193 c 1
 23 -160 l 1
 45 -170 63 -177 92 -177 c 0
 123 -177 146 -162 146 -136 c 0
 146 -132 146 -100 100 -100 c 0
 86 -100 77 -102 69 -104 c 1
 56 -92 l 1
 111 -12 l 1
EndSplineSet
EndChar

StartChar: egrave
Encoding: 305 232 165
Width: 444
Flags: HMW
HStem: -13 64<192 209> 429 33<246 291.5> 677 20G<162.5 189.5>
VStem: 5 130<103.5 152.5 103.5 211> 306 92<369 399.5>
LayerCount: 2
Fore
SplineSet
298 516 m 1
 165 605 l 2
 152 614 131 631 131 652 c 0
 131 673 149 697 176 697 c 0
 203 697 221 676 232 663 c 2
 341 516 l 1
 298 516 l 1
148 214 m 1
 279 249 306 343 306 395 c 0
 306 404 306 429 277 429 c 0
 215 429 164 287 148 214 c 1
141 182 m 1
 137 164 135 162 135 143 c 0
 135 64 182 51 202 51 c 0
 256 51 292 105 317 142 c 1
 346 125 l 1
 315 74 263 -13 155 -13 c 0
 89 -13 5 31 5 143 c 0
 5 279 132 462 295 462 c 0
 330 462 398 444 398 372 c 0
 398 317 334 212 141 182 c 1
EndSplineSet
EndChar

StartChar: eacute
Encoding: 306 233 166
Width: 444
Flags: HMW
HStem: -13 64<192 209> 429 33<246 291.5> 677 20G<375 396.5>
VStem: 5 130<103.5 152.5 103.5 211> 306 92<369 399.5>
LayerCount: 2
Fore
SplineSet
199 516 m 1
 317 647 l 2
 343 674 364 697 386 697 c 0
 407 697 435 682 435 650 c 0
 435 627 419 616 396 603 c 2
 244 516 l 1
 199 516 l 1
148 214 m 1
 279 249 306 343 306 395 c 0
 306 404 306 429 277 429 c 0
 215 429 164 287 148 214 c 1
141 182 m 1
 137 164 135 162 135 143 c 0
 135 64 182 51 202 51 c 0
 256 51 292 105 317 142 c 1
 346 125 l 1
 315 74 263 -13 155 -13 c 0
 89 -13 5 31 5 143 c 0
 5 279 132 462 295 462 c 0
 330 462 398 444 398 372 c 0
 398 317 334 212 141 182 c 1
EndSplineSet
EndChar

StartChar: ecircumflex
Encoding: 307 234 167
Width: 444
Flags: HMW
HStem: -13 64<192 209> 429 33<246 291.5> 670 20G<256 337 337 337>
VStem: 5 130<103.5 152.5 103.5 211> 306 92<369 399.5>
LayerCount: 2
Fore
SplineSet
100 516 m 1
 256 690 l 1
 337 690 l 1
 423 516 l 1
 373 516 l 1
 284 609 l 1
 153 516 l 1
 100 516 l 1
148 214 m 1
 279 249 306 343 306 395 c 0
 306 404 306 429 277 429 c 0
 215 429 164 287 148 214 c 1
141 182 m 1
 137 164 135 162 135 143 c 0
 135 64 182 51 202 51 c 0
 256 51 292 105 317 142 c 1
 346 125 l 1
 315 74 263 -13 155 -13 c 0
 89 -13 5 31 5 143 c 0
 5 279 132 462 295 462 c 0
 330 462 398 444 398 372 c 0
 398 317 334 212 141 182 c 1
EndSplineSet
EndChar

StartChar: edieresis
Encoding: 308 235 168
Width: 444
Flags: HMW
HStem: -13 64<192 209> 429 33<246 291.5> 522 133<148.5 185.5 357.5 394.5>
VStem: 5 130<103.5 152.5 103.5 211> 101 133<569.5 606.5> 306 92<369 399.5> 306 137
LayerCount: 2
Fore
SplineSet
310 588 m 0
 310 625 339 655 376 655 c 0
 413 655 443 625 443 588 c 0
 443 551 413 522 376 522 c 0
 339 522 310 551 310 588 c 0
101 588 m 0
 101 625 130 655 167 655 c 0
 204 655 234 625 234 588 c 0
 234 551 204 522 167 522 c 0
 130 522 101 551 101 588 c 0
148 214 m 1
 279 249 306 343 306 395 c 0
 306 404 306 429 277 429 c 0
 215 429 164 287 148 214 c 1
141 182 m 1
 137 164 135 162 135 143 c 0
 135 64 182 51 202 51 c 0
 256 51 292 105 317 142 c 1
 346 125 l 1
 315 74 263 -13 155 -13 c 0
 89 -13 5 31 5 143 c 0
 5 279 132 462 295 462 c 0
 330 462 398 444 398 372 c 0
 398 317 334 212 141 182 c 1
EndSplineSet
EndChar

StartChar: igrave
Encoding: 309 236 169
Width: 278
Flags: HMW
HStem: -9 21G<42 108> 677 20G<78.5 105.5>
LayerCount: 2
Fore
SplineSet
215 516 m 1
 81 605 l 2
 68 614 47 631 47 652 c 0
 47 673 65 697 92 697 c 0
 119 697 137 676 148 663 c 2
 260 516 l 1
 215 516 l 1
216 141 m 1
 238 127 l 1
 187 49 145 -9 71 -9 c 0
 13 -9 2 34 2 58 c 0
 2 102 80 352 80 375 c 0
 80 407 50 408 21 407 c 1
 21 434 l 1
 61 437 155 446 223 462 c 1
 184 319 123 108 123 76 c 0
 123 66 127 62 133 62 c 0
 157 62 213 116 216 141 c 1
EndSplineSet
EndChar

StartChar: iacute
Encoding: 310 237 170
Width: 278
Flags: HMW
HStem: -9 21G<42 108> 677 20G<292 313.5>
LayerCount: 2
Fore
SplineSet
112 516 m 1
 234 647 l 2
 260 674 281 697 303 697 c 0
 324 697 352 682 352 650 c 0
 352 627 336 616 313 603 c 2
 161 516 l 1
 112 516 l 1
216 141 m 1
 238 127 l 1
 187 49 145 -9 71 -9 c 0
 13 -9 2 34 2 58 c 0
 2 102 80 352 80 375 c 0
 80 407 50 408 21 407 c 1
 21 434 l 1
 61 437 155 446 223 462 c 1
 184 319 123 108 123 76 c 0
 123 67 127 62 133 62 c 0
 156 62 213 116 216 141 c 1
EndSplineSet
EndChar

StartChar: icircumflex
Encoding: 311 238 171
Width: 278
Flags: HMW
HStem: -9 21G<42 108> 670 20G<157 238 238 238>
LayerCount: 2
Fore
SplineSet
-2 516 m 1
 157 690 l 1
 238 690 l 1
 325 516 l 1
 274 516 l 1
 185 609 l 1
 55 516 l 1
 -2 516 l 1
216 141 m 1
 238 127 l 1
 187 49 145 -9 71 -9 c 0
 13 -9 2 34 2 58 c 0
 2 102 80 352 80 375 c 0
 80 407 50 408 21 407 c 1
 21 434 l 1
 61 437 155 446 223 462 c 1
 184 319 123 108 123 76 c 0
 123 66 127 62 134 62 c 0
 158 62 213 116 216 141 c 1
EndSplineSet
EndChar

StartChar: idieresis
Encoding: 312 239 172
Width: 278
Flags: HMW
HStem: -9 21G<42 108> 521 134<65.5 102.5 274.5 311.5>
VStem: 17 134<569.5 606.5> 226 134<569.5 606.5>
LayerCount: 2
Fore
SplineSet
226 588 m 0
 226 625 256 655 293 655 c 0
 330 655 360 625 360 588 c 0
 360 551 330 521 293 521 c 0
 256 521 226 551 226 588 c 0
17 588 m 0
 17 625 47 655 84 655 c 0
 121 655 151 625 151 588 c 0
 151 551 121 521 84 521 c 0
 47 521 17 551 17 588 c 0
216 141 m 1
 238 127 l 1
 187 49 145 -9 71 -9 c 0
 13 -9 2 34 2 58 c 0
 2 102 80 352 80 375 c 0
 80 407 50 408 21 407 c 1
 21 434 l 1
 61 437 155 446 223 462 c 1
 184 319 123 108 123 76 c 0
 123 67 126 62 132 62 c 0
 155 62 213 115 216 141 c 1
EndSplineSet
EndChar

StartChar: eth
Encoding: 313 240 173
Width: 500
Flags: HMW
HStem: -13 29<142 216 142 234.5> 433 29<220 286 200 287> 679 20G<181 181>
VStem: -3 119<144 186 144 231> 322 119<331.5 394>
LayerCount: 2
Fore
SplineSet
343 420 m 1
 345 424 l 1
 345 477 318 530 283 574 c 1
 164 512 l 1
 131 543 l 1
 253 607 l 1
 217 642 175 666 137 672 c 1
 181 699 l 1
 228 693 274 671 313 639 c 1
 420 696 l 1
 454 664 l 1
 347 608 l 1
 404 547 441 465 441 380 c 0
 441 164 312 -13 157 -13 c 0
 75 -13 -3 58 -3 154 c 0
 -3 308 126 462 274 462 c 0
 298 462 326 450 343 420 c 1
116 154 m 0
 116 134 116 16 168 16 c 0
 264 16 322 294 322 369 c 0
 322 419 300 433 274 433 c 0
 166 433 116 218 116 154 c 0
EndSplineSet
EndChar

StartChar: ntilde
Encoding: 314 241 174
Width: 556
Flags: HMW
HStem: -9 21G<328 375> 0 21G<-6 -6 -6 115> 442 20G<354.5 410> 580 75<218.5 250>
LayerCount: 2
Fore
SplineSet
145 537 m 1
 145 539 164 655 262 655 c 0
 289 655 319 644 345 634 c 0
 372 623 395 613 410 613 c 0
 444 613 454 636 463 655 c 1
 504 655 l 1
 495 620 473 536 386 536 c 0
 358 536 334 548 309 560 c 0
 287 570 265 580 235 580 c 0
 202 580 193 556 185 537 c 1
 145 537 l 1
-6 0 m 1
 45 191 96 356 96 381 c 0
 96 407 69 407 42 407 c 1
 42 434 l 1
 64 434 163 443 242 461 c 1
 182 275 l 1
 185 273 l 1
 257 379 311 462 398 462 c 0
 422 462 474 460 474 383 c 0
 474 318 387 106 387 77 c 0
 387 66 391 60 397 60 c 0
 417 60 460 100 471 135 c 1
 493 122 l 1
 461 68 414 -9 336 -9 c 0
 320 -9 266 -9 266 56 c 0
 266 127 354 346 354 368 c 0
 354 380 342 390 329 390 c 0
 304 390 203 340 115 0 c 1
 -6 0 l 1
EndSplineSet
EndChar

StartChar: ograve
Encoding: 315 242 175
Width: 500
Flags: HMW
HStem: -13 29<142 216 142 237> 431 29<220 287> 677 20G<190.5 217.5>
VStem: -3 119<90 120 78 215> 322 119<327.5 371 229.5 390>
LayerCount: 2
Fore
SplineSet
326 516 m 1
 193 605 l 2
 180 614 159 631 159 652 c 0
 159 673 177 697 204 697 c 0
 231 697 249 676 260 663 c 2
 371 516 l 1
 326 516 l 1
-3 138 m 0
 -3 292 126 460 284 460 c 0
 322 460 441 438 441 304 c 0
 441 155 317 -13 157 -13 c 0
 75 -13 -3 42 -3 138 c 0
116 88 m 0
 116 68 116 16 168 16 c 0
 264 16 322 290 322 365 c 0
 322 415 300 431 274 431 c 0
 166 431 116 152 116 88 c 0
EndSplineSet
EndChar

StartChar: oacute
Encoding: 316 243 176
Width: 500
Flags: HMW
HStem: -13 29<142 216 142 237> 431 29<220 287> 677 20G<403 424.5>
VStem: -3 119<90 120 78 215> 322 119<331.5 375 233.5 394>
LayerCount: 2
Fore
SplineSet
223 516 m 1
 345 647 l 2
 371 674 392 697 414 697 c 0
 435 697 463 682 463 650 c 0
 463 627 447 616 424 603 c 2
 272 516 l 1
 223 516 l 1
-3 138 m 0
 -3 292 126 460 284 460 c 0
 322 460 441 442 441 308 c 0
 441 159 317 -13 157 -13 c 0
 75 -13 -3 42 -3 138 c 0
116 88 m 0
 116 68 116 16 168 16 c 0
 264 16 322 294 322 369 c 0
 322 419 300 431 274 431 c 0
 166 431 116 152 116 88 c 0
EndSplineSet
EndChar

StartChar: ocircumflex
Encoding: 317 244 177
Width: 500
Flags: HMW
HStem: -13 29<142 216 142 237> 431 29<220 287> 670 20G<284 365 365 365>
VStem: -3 119<90 120 78 215> 322 119<327.5 371 229.5 390>
LayerCount: 2
Fore
SplineSet
124 516 m 1
 284 690 l 1
 365 690 l 1
 451 516 l 1
 400 516 l 1
 312 609 l 1
 181 516 l 1
 124 516 l 1
-3 138 m 0
 -3 292 126 460 284 460 c 0
 322 460 441 438 441 304 c 0
 441 155 317 -13 157 -13 c 0
 75 -13 -3 42 -3 138 c 0
116 88 m 0
 116 68 116 16 168 16 c 0
 264 16 322 290 322 365 c 0
 322 415 300 431 274 431 c 0
 166 431 116 152 116 88 c 0
EndSplineSet
EndChar

StartChar: otilde
Encoding: 318 245 178
Width: 500
Flags: HMW
HStem: -13 29<142 216 142 237> 431 29<220 287> 536 119<200 416.5> 580 75<205.5 237>
VStem: -3 119<90 120 78 215> 322 119<327.5 371 229.5 390>
LayerCount: 2
Fore
SplineSet
132 537 m 1
 132 539 151 655 249 655 c 0
 276 655 306 644 333 634 c 0
 359 623 382 613 397 613 c 0
 431 613 441 636 450 655 c 1
 491 655 l 1
 482 620 460 536 373 536 c 0
 340 536 317 548 294 559 c 0
 273 570 252 580 222 580 c 0
 189 580 180 556 172 537 c 1
 132 537 l 1
-3 138 m 0
 -3 292 126 460 284 460 c 0
 322 460 441 438 441 304 c 0
 441 155 317 -13 157 -13 c 0
 75 -13 -3 42 -3 138 c 0
116 88 m 0
 116 68 116 16 168 16 c 0
 264 16 322 290 322 365 c 0
 322 415 300 431 274 431 c 0
 166 431 116 152 116 88 c 0
EndSplineSet
EndChar

StartChar: odieresis
Encoding: 319 246 179
Width: 500
Flags: HMW
HStem: -13 29<142 216 142 237> 431 29<220 287> 521 134<172.5 209.5 380.5 417.5>
VStem: -3 119<90 120 78 215> 124 134<569.5 606.5> 322 119<327.5 371 229.5 390> 332 134<569.5 606.5>
LayerCount: 2
Fore
SplineSet
332 588 m 0
 332 625 362 655 399 655 c 0
 436 655 466 625 466 588 c 0
 466 551 436 521 399 521 c 0
 362 521 332 551 332 588 c 0
124 588 m 0
 124 625 154 655 191 655 c 0
 228 655 258 625 258 588 c 0
 258 551 228 521 191 521 c 0
 154 521 124 551 124 588 c 0
-3 138 m 0
 -3 292 126 460 284 460 c 0
 322 460 441 438 441 304 c 0
 441 155 317 -13 157 -13 c 0
 75 -13 -3 42 -3 138 c 0
116 88 m 0
 116 68 116 16 168 16 c 0
 264 16 322 290 322 365 c 0
 322 415 300 431 274 431 c 0
 166 431 116 152 116 88 c 0
EndSplineSet
EndChar

StartChar: divide
Encoding: 320 247 180
Width: 570
Flags: HMW
HStem: -29 100<275 303> -29 148 211 86 212 69<33 537 33 537> 387 148 435 100<275 303>
VStem: 211 148 239 100<7 35 471 499>
LayerCount: 2
Fore
SplineSet
239 485 m 0
 239 513 261 535 289 535 c 0
 317 535 339 513 339 485 c 0
 339 457 317 435 289 435 c 0
 261 435 239 457 239 485 c 0
239 21 m 0
 239 49 261 71 289 71 c 0
 317 71 339 49 339 21 c 0
 339 -7 317 -29 289 -29 c 0
 261 -29 239 -7 239 21 c 0
33 212 m 1
 33 281 l 1
 537 281 l 1
 537 212 l 1
 33 212 l 1
EndSplineSet
EndChar

StartChar: oslash
Encoding: 249 248 181
Width: 500
Flags: HMW
HStem: -119 21G<2 42 2 2> -13 29<158 216 158 237> 62 20G<116 118 118 118> 434 29<220 279 195 280.5> 540 20G<387 424 424 424>
VStem: -3 119<82 213> 322 119<331.5 347.5 233.5 370.5>
LayerCount: 2
Fore
SplineSet
128 34 m 1
 136 23 148 16 168 16 c 0
 264 16 322 294 322 369 c 0
 322 372 322 376 321 377 c 1
 128 34 l 1
74 7 m 1
 29 30 -3 74 -3 136 c 0
 -3 290 116 463 274 463 c 0
 284 463 310 461 328 456 c 1
 387 560 l 1
 424 560 l 1
 359 444 l 1
 400 426 441 387 441 308 c 0
 441 159 317 -13 157 -13 c 0
 140 -13 122 -10 106 -5 c 1
 42 -119 l 1
 2 -119 l 1
 74 7 l 1
116 86 m 2
 116 82 l 1
 118 82 l 1
 307 419 l 1
 298 429 287 434 274 434 c 0
 166 434 116 150 116 86 c 2
EndSplineSet
EndChar

StartChar: ugrave
Encoding: 321 249 182
Width: 556
Flags: HMW
HStem: -9 72<53.5 177> 429 20G<370 488 488 488> 677 20G<218.5 245.5>
LayerCount: 2
Fore
SplineSet
354 516 m 1
 221 605 l 2
 208 614 187 631 187 652 c 0
 187 673 205 697 232 697 c 0
 259 697 277 676 288 663 c 2
 399 516 l 1
 354 516 l 1
286 155 m 1
 210 49 168 -9 92 -9 c 0
 15 -9 15 46 15 69 c 0
 15 138 90 320 90 378 c 0
 90 404 68 405 34 407 c 1
 34 434 l 1
 123 438 229 461 243 462 c 1
 149 154 l 2
 143 134 134 109 134 90 c 0
 134 75 139 63 157 63 c 0
 197 63 258 158 271 182 c 0
 316 263 339 342 370 449 c 1
 488 449 l 1
 468 379 385 110 385 78 c 0
 385 66 389 60 395 60 c 0
 418 60 473 121 471 133 c 1
 492 120 l 1
 473 86 417 -9 333 -9 c 0
 318 -9 266 -9 266 47 c 0
 266 90 278 124 288 154 c 1
 286 155 l 1
EndSplineSet
EndChar

StartChar: uacute
Encoding: 322 250 183
Width: 556
Flags: HMW
HStem: -9 72<53.5 177> 429 20G<370 488 488 488> 677 20G<431 452.5>
LayerCount: 2
Fore
SplineSet
251 516 m 1
 373 647 l 2
 399 674 420 697 442 697 c 0
 463 697 491 682 491 650 c 0
 491 627 475 616 452 603 c 2
 300 516 l 1
 251 516 l 1
286 155 m 1
 210 49 168 -9 92 -9 c 0
 15 -9 15 46 15 69 c 0
 15 138 90 320 90 378 c 0
 90 404 68 405 34 407 c 1
 34 434 l 1
 123 438 229 461 243 462 c 1
 149 154 l 2
 143 134 134 109 134 90 c 0
 134 74 139 63 157 63 c 0
 197 63 258 158 271 182 c 0
 316 263 339 342 370 449 c 1
 488 449 l 1
 468 379 385 110 385 78 c 0
 385 65 389 59 395 59 c 0
 418 59 473 121 471 133 c 1
 492 120 l 1
 473 86 417 -9 333 -9 c 0
 318 -9 266 -9 266 47 c 0
 266 90 278 124 288 154 c 1
 286 155 l 1
EndSplineSet
EndChar

StartChar: ucircumflex
Encoding: 323 251 184
Width: 556
Flags: HMW
HStem: -9 72<53.5 177> 429 20G<370 488 488 488> 670 20G<312 393 393 393>
LayerCount: 2
Fore
SplineSet
152 516 m 1
 312 690 l 1
 393 690 l 1
 479 516 l 1
 428 516 l 1
 340 609 l 1
 209 516 l 1
 152 516 l 1
286 155 m 1
 210 49 168 -9 92 -9 c 0
 15 -9 15 46 15 69 c 0
 15 138 90 320 90 378 c 0
 90 404 68 405 34 407 c 1
 34 434 l 1
 123 438 229 461 243 462 c 1
 149 154 l 2
 143 134 134 107 134 88 c 0
 134 73 139 63 157 63 c 0
 197 63 258 158 271 182 c 0
 316 263 339 342 370 449 c 1
 488 449 l 1
 468 379 385 110 385 78 c 0
 385 65 389 59 395 59 c 0
 418 59 473 121 471 133 c 1
 492 120 l 1
 473 86 417 -9 333 -9 c 0
 318 -9 266 -9 266 47 c 0
 266 90 278 124 288 154 c 1
 286 155 l 1
EndSplineSet
EndChar

StartChar: udieresis
Encoding: 324 252 185
Width: 556
Flags: HMW
HStem: -9 72<53.5 177> 429 20G<370 488 488 488> 521 134<200.5 237.5 408.5 445.5>
VStem: 152 134<569.5 606.5> 360 134<569.5 606.5>
LayerCount: 2
Fore
SplineSet
360 588 m 0
 360 625 390 655 427 655 c 0
 464 655 494 625 494 588 c 0
 494 551 464 521 427 521 c 0
 390 521 360 551 360 588 c 0
152 588 m 0
 152 625 182 655 219 655 c 0
 256 655 286 625 286 588 c 0
 286 551 256 521 219 521 c 0
 182 521 152 551 152 588 c 0
286 155 m 1
 210 49 168 -9 92 -9 c 0
 15 -9 15 46 15 69 c 0
 15 138 90 320 90 378 c 0
 90 404 68 405 34 407 c 1
 34 434 l 1
 123 438 229 461 243 462 c 1
 149 154 l 2
 143 134 134 108 134 89 c 0
 134 74 139 63 157 63 c 0
 197 63 258 158 271 182 c 0
 316 263 339 342 370 449 c 1
 488 449 l 1
 468 379 385 110 385 78 c 0
 385 65 389 59 395 59 c 0
 418 59 473 121 471 133 c 1
 492 120 l 1
 473 86 417 -9 333 -9 c 0
 318 -9 266 -9 266 47 c 0
 266 90 278 124 288 154 c 1
 286 155 l 1
EndSplineSet
EndChar

StartChar: yacute
Encoding: 325 253 186
Width: 444
Flags: HMW
HStem: -205 115<-53.5 -31 -61 14.5> 93 20G<241 243 243 243> 442 20G<313 345.5> 677 20G<375 396.5>
LayerCount: 2
Fore
SplineSet
195 516 m 1
 317 647 l 2
 343 674 364 697 386 697 c 0
 407 697 435 682 435 650 c 0
 435 627 419 616 396 603 c 2
 244 516 l 1
 195 516 l 1
241 113 m 1
 243 113 l 1
 287 198 328 277 328 313 c 0
 328 338 311 344 296 356 c 0
 284 365 273 378 273 406 c 0
 273 431 297 462 329 462 c 0
 362 462 392 433 392 400 c 0
 392 283 263 75 254 60 c 0
 152 -109 64 -205 -35 -205 c 0
 -72 -205 -94 -172 -94 -145 c 0
 -94 -127 -81 -90 -41 -90 c 0
 -21 -90 -6 -100 9 -109 c 0
 22 -117 35 -125 51 -125 c 0
 78 -125 142 -60 142 -6 c 0
 142 43 105 223 97 259 c 0
 63 411 53 411 14 411 c 1
 14 438 l 1
 72 443 126 452 163 462 c 1
 182 415 214 268 241 113 c 1
EndSplineSet
EndChar

StartChar: thorn
Encoding: 326 254 187
Width: 500
Flags: HMW
HStem: -205 37<-120 -103 111.5 129 -120 -103> -13 35<157.5 201.5 146 241> 391 71<261.5 365> 679 20G<280 280>
VStem: 321 125<300 352>
LayerCount: 2
Fore
SplineSet
101 9 m 1
 93 -24 74 -84 74 -106 c 0
 74 -138 94 -168 129 -168 c 1
 129 -205 l 1
 -120 -205 l 1
 -120 -168 l 1
 -86 -168 -64 -168 -48 -106 c 0
 15 138 137 596 137 609 c 0
 137 643 108 643 74 642 c 1
 74 669 l 1
 148 677 209 685 280 699 c 1
 185 359 l 1
 188 356 l 1
 237 435 292 462 335 462 c 0
 395 462 446 428 446 336 c 0
 446 181 312 -13 170 -13 c 0
 145 -13 132 -7 101 9 c 1
113 61 m 0
 113 29 139 22 153 22 c 0
 250 22 321 264 321 336 c 0
 321 368 303 391 281 391 c 0
 242 391 204 346 186 308 c 0
 163 260 113 86 113 61 c 0
EndSplineSet
EndChar

StartChar: ydieresis
Encoding: 327 255 188
Width: 444
Flags: HMW
HStem: -205 115<-53.5 -31.5 -61 14.5> 99 20G 442 20G<313 345.5> 521 134<144.5 181.5 352.5 389.5>
VStem: 96 134<569.5 606.5> 304 134<569.5 606.5> 328 64<295 416.5>
LayerCount: 2
Fore
SplineSet
304 588 m 0
 304 625 334 655 371 655 c 0
 408 655 438 625 438 588 c 0
 438 551 408 521 371 521 c 0
 334 521 304 551 304 588 c 0
96 588 m 0
 96 625 126 655 163 655 c 0
 200 655 230 625 230 588 c 0
 230 551 200 521 163 521 c 0
 126 521 96 551 96 588 c 0
241 113 m 1
 243 113 l 1
 287 198 328 277 328 313 c 0
 328 336 313 343 299 353 c 0
 286 362 273 375 273 406 c 0
 273 431 297 462 329 462 c 0
 362 462 392 433 392 400 c 0
 392 283 263 75 254 60 c 0
 152 -109 64 -205 -35 -205 c 0
 -72 -205 -94 -172 -94 -145 c 0
 -94 -127 -81 -90 -41 -90 c 0
 -22 -90 -9 -98 5 -107 c 0
 19 -116 33 -125 51 -125 c 0
 78 -125 142 -62 142 -6 c 0
 142 43 105 223 97 259 c 0
 63 411 53 411 14 411 c 1
 14 438 l 1
 72 443 126 452 163 462 c 1
 182 415 214 268 241 113 c 1
EndSplineSet
EndChar

StartChar: dotlessi
Encoding: 245 305 189
Width: 278
Flags: HMW
HStem: -9 21G<42 108> 442 20G
LayerCount: 2
Fore
SplineSet
216 141 m 1
 238 127 l 1
 187 49 145 -9 71 -9 c 0
 13 -9 2 34 2 58 c 0
 2 102 80 352 80 375 c 0
 80 407 50 408 21 407 c 1
 21 434 l 1
 61 437 155 446 223 462 c 1
 184 319 123 108 123 76 c 0
 123 66 127 62 133 62 c 0
 157 62 213 116 216 141 c 1
EndSplineSet
EndChar

StartChar: Lslash
Encoding: 232 321 190
Width: 611
Flags: HMW
HStem: 0 32<238.5 325 238.5 531> 634 35<118 435 118 435>
LayerCount: 2
Fore
SplineSet
-22 0 m 1
 -22 35 l 1
 21 41 42 40 58 97 c 2
 92 219 l 1
 -12 163 l 1
 10 233 l 1
 110 286 l 1
 187 562 l 2
 189 570 189 578 189 586 c 0
 189 609 165 627 118 634 c 1
 118 669 l 1
 435 669 l 1
 435 634 l 1
 379 631 351 622 334 562 c 2
 274 351 l 1
 424 432 l 1
 403 362 l 1
 255 279 l 1
 205 94 l 2
 201 81 198 69 198 60 c 0
 198 43 212 32 265 32 c 0
 385 32 497 74 566 199 c 1
 590 194 l 1
 531 0 l 1
 -22 0 l 1
EndSplineSet
EndChar

StartChar: lslash
Encoding: 248 322 191
Width: 278
Flags: HMW
HStem: -9 21G<24 98> 679 20G<284 284>
LayerCount: 2
Fore
SplineSet
210 141 m 1
 232 127 l 1
 188 60 138 -9 58 -9 c 0
 -10 -9 -4 44 -4 58 c 0
 -4 85 26 194 64 331 c 1
 -13 288 l 1
 6 358 l 1
 84 401 l 1
 110 493 138 592 138 613 c 0
 138 644 105 644 75 642 c 1
 75 669 l 1
 155 676 205 684 284 699 c 1
 215 449 l 1
 301 496 l 1
 282 428 l 1
 196 381 l 1
 139 176 l 2
 133 154 117 96 117 76 c 0
 117 67 121 62 127 62 c 0
 150 62 207 115 210 141 c 1
EndSplineSet
EndChar

StartChar: OE
Encoding: 234 338 192
Width: 944
Flags: HMW
HStem: -8 32<231 287> 0 32<580.5 676 580.5 818> 336 34<589 598> 637 32<690.5 797> 645 32<436 445.5>
VStem: 23 141<171 220 143 397>
LayerCount: 2
Fore
SplineSet
392 123 m 2
 500 514 l 2
 502 522 512 558 512 581 c 0
 512 645 455 645 436 645 c 0
 248 644 164 281 164 159 c 0
 164 127 175 24 287 24 c 0
 351 24 375 62 392 123 c 2
589 336 m 1
 525 91 l 2
 523 81 522 72 522 65 c 0
 522 35 549 32 612 32 c 0
 740 32 815 130 851 199 c 1
 878 194 l 1
 818 0 l 1
 522 0 l 1
 448 -1 l 1
 287 -8 l 1
 119 -8 23 111 23 231 c 0
 23 563 332 677 476 677 c 0
 485 677 509 675 536 673 c 0
 562 671 592 669 611 669 c 2
 946 669 l 1
 900 478 l 1
 875 484 l 1
 875 546 885 637 709 637 c 0
 672 637 668 623 659 590 c 2
 598 370 l 1
 736 369 762 418 787 473 c 1
 814 470 l 1
 742 198 l 1
 715 203 l 1
 716 217 719 249 719 257 c 0
 719 324 672 335 589 336 c 1
EndSplineSet
EndChar

StartChar: oe
Encoding: 250 339 193
Width: 722
Flags: HMW
HStem: -13 29<157 183> -13 63<449.5 472.5> 433 29<256 308>
VStem: 6 117<79 151.5 79 209.5>
LayerCount: 2
Fore
SplineSet
123 104 m 0
 123 54 134 16 180 16 c 0
 279 16 337 306 337 359 c 0
 337 380 336 433 280 433 c 0
 232 433 205 379 185 333 c 1
 185 333 123 199 123 104 c 0
314 44 m 1
 270 -2 201 -13 165 -13 c 0
 139 -13 6 -8 6 157 c 0
 6 262 118 462 299 462 c 0
 372 462 399 425 416 400 c 1
 451 428 494 462 560 462 c 0
 615 462 674 442 674 368 c 0
 674 247 516 207 414 184 c 1
 409 171 406 157 406 144 c 0
 406 95 428 50 471 50 c 0
 531 50 558 88 591 139 c 1
 619 124 l 1
 576 37 518 -13 427 -13 c 0
 399 -13 354 -3 314 44 c 1
421 218 m 1
 586 257 586 388 586 390 c 0
 586 417 571 432 552 432 c 0
 528 432 492 432 421 218 c 1
EndSplineSet
EndChar

StartChar: Scaron
Encoding: 328 352 194
Width: 556
Flags: HMW
HStem: -18 34<211 282 205 303.5> 650 35<266 330.5 250 374> 661 20G<496 526 526 526> 877 20G<206 256 256 256 470 526 526 526>
VStem: 102 121<517 538.5> 347 121<132 176>
LayerCount: 2
Fore
SplineSet
294 723 m 1
 206 897 l 1
 256 897 l 1
 347 798 l 1
 470 897 l 1
 526 897 l 1
 376 723 l 1
 294 723 l 1
2 -18 m 1
 38 206 l 1
 67 204 l 1
 68 32 184 16 226 16 c 0
 338 16 347 122 347 142 c 0
 347 210 279 258 215 311 c 0
 157 359 102 411 102 488 c 0
 102 589 183 685 317 685 c 0
 344 685 369 678 391 671 c 0
 415 663 436 655 452 655 c 0
 456 655 484 655 496 681 c 1
 526 681 l 1
 486 480 l 1
 459 484 l 1
 453 540 431 650 317 650 c 0
 215 650 223 554 223 543 c 0
 223 491 283 443 344 388 c 0
 406 333 468 272 468 194 c 0
 468 62 381 -18 226 -18 c 0
 196 -18 169 -13 147 -6 c 0
 113 4 89 17 72 17 c 0
 47 17 42 5 32 -18 c 1
 2 -18 l 1
EndSplineSet
EndChar

StartChar: scaron
Encoding: 329 353 195
Width: 389
Flags: HMW
HStem: -13 21G<-19 8 -19 -19 111.5 153> 429 33<162.5 201 156.5 218.5> 441 20G<304 333 333 333> 670 20G<107 157 157 157 383 439 439 439>
VStem: 172 107<72.5 81>
LayerCount: 2
Fore
SplineSet
195 516 m 1
 107 690 l 1
 157 690 l 1
 248 589 l 1
 383 690 l 1
 439 690 l 1
 277 516 l 1
 195 516 l 1
8 -13 m 1
 -19 -13 l 1
 3 153 l 1
 30 150 l 1
 45 17 112 17 121 17 c 0
 158 17 172 37 172 64 c 0
 172 98 152 143 127 175 c 0
 78 238 47 276 47 337 c 0
 47 426 124 462 189 462 c 0
 213 462 227 456 238 451 c 0
 250 445 259 440 276 440 c 0
 291 440 294 444 304 461 c 1
 333 461 l 1
 310 308 l 1
 283 310 l 1
 275 360 248 429 189 429 c 0
 136 429 142 380 142 375 c 0
 142 341 182 299 219 252 c 0
 250 212 279 168 279 121 c 0
 279 24 185 -13 121 -13 c 0
 102 -13 88 -9 76 -5 c 0
 61 1 50 7 37 7 c 0
 33 7 13 4 8 -13 c 1
EndSplineSet
EndChar

StartChar: Ydieresis
Encoding: 330 376 196
Width: 611
Flags: HMW
HStem: 0 25<73 73 375.5 395> 644 25<73 356 327 356> 727 135<272 310 484 522>
VStem: 224 135<775 813> 436 135<775 813>
LayerCount: 2
Fore
SplineSet
436 794 m 0
 436 832 465 862 503 862 c 0
 541 862 571 832 571 794 c 0
 571 756 541 727 503 727 c 0
 465 727 436 756 436 794 c 0
224 794 m 0
 224 832 253 862 291 862 c 0
 329 862 359 832 359 794 c 0
 359 756 329 727 291 727 c 0
 253 727 224 756 224 794 c 0
73 0 m 1
 73 25 l 1
 131 30 156 33 174 97 c 2
 234 313 l 1
 146 591 l 2
 128 646 121 637 73 644 c 1
 73 669 l 1
 356 669 l 1
 356 644 l 1
 298 644 286 614 286 591 c 0
 286 563 299 552 363 352 c 1
 492 538 l 2
 509 563 520 586 520 604 c 0
 520 627 500 642 451 644 c 1
 451 669 l 1
 659 669 l 1
 659 644 l 1
 616 636 594 611 568 575 c 2
 378 308 l 1
 326 97 l 2
 322 86 320 76 320 68 c 0
 320 35 356 25 395 25 c 1
 395 0 l 1
 73 0 l 1
EndSplineSet
EndChar

StartChar: Zcaron
Encoding: 331 381 197
Width: 611
Flags: HMW
HStem: 0 35<156 226 226 277.5> 634 35<273 345 345 423> 877 20G<218 268 268 268 494 550 550 550>
LayerCount: 2
Fore
SplineSet
306 723 m 1
 218 897 l 1
 268 897 l 1
 359 798 l 1
 494 897 l 1
 550 897 l 1
 388 723 l 1
 306 723 l 1
-11 0 m 1
 -11 39 l 1
 423 634 l 1
 345 634 l 2
 201 634 140 553 93 487 c 1
 65 491 l 1
 122 669 l 1
 590 669 l 1
 590 630 l 1
 156 35 l 1
 226 35 l 2
 329 35 465 67 527 199 c 1
 554 194 l 1
 495 0 l 1
 -11 0 l 1
EndSplineSet
EndChar

StartChar: zcaron
Encoding: 332 382 198
Width: 389
Flags: HMW
HStem: -78 21G<213 277> 353 96<83.5 104 104 249> 670 20G<92 142 142 142 368 424 424 424>
LayerCount: 2
Fore
SplineSet
180 516 m 1
 92 690 l 1
 142 690 l 1
 233 591 l 1
 368 690 l 1
 424 690 l 1
 262 516 l 1
 180 516 l 1
-25 -22 m 1
 -43 -1 l 1
 249 353 l 1
 104 353 l 2
 63 353 50 316 41 292 c 1
 13 295 l 1
 56 449 l 1
 368 449 l 1
 368 439 l 1
 87 104 l 1
 150 79 174 37 191 3 c 0
 206 -26 216 -49 242 -49 c 0
 255 -49 263 -41 263 -34 c 0
 263 -26 256 -21 251 -13 c 0
 247 -7 243 2 243 15 c 0
 243 38 264 65 292 65 c 0
 310 65 346 52 346 11 c 0
 346 -22 315 -78 239 -78 c 0
 187 -78 148 -55 115 -33 c 0
 86 -14 61 5 35 5 c 0
 20 5 13 6 -25 -22 c 1
EndSplineSet
EndChar

StartChar: florin
Encoding: 166 402 199
Width: 500
Flags: HMW
HStem: -156 147<-52.5 79.5> 396 44<78 193 86 183 325 434> 559 148<343.5 505> 677 30<396.5 435>
VStem: 424 113<617 619>
LayerCount: 2
Fore
SplineSet
78 396 m 1
 86 440 l 1
 193 440 l 1
 218 515 257 707 430 707 c 0
 490 707 537 669 537 622 c 0
 537 612 537 559 473 559 c 0
 455 559 424 572 424 609 c 0
 424 629 434 639 442 647 c 0
 448 652 453 657 453 662 c 0
 453 672 441 677 429 677 c 0
 364 677 348 579 325 440 c 1
 443 440 l 1
 434 396 l 1
 318 396 l 1
 291 242 l 2
 237 -66 137 -156 22 -156 c 0
 -34 -156 -87 -131 -87 -64 c 0
 -87 -50 -76 -9 -29 -9 c 0
 10 -9 23 -42 23 -59 c 0
 23 -70 18 -80 12 -88 c 0
 4 -99 -5 -107 -5 -113 c 0
 -5 -122 3 -126 13 -126 c 0
 28 -126 48 -120 57 -114 c 0
 111 -80 107 -2 183 396 c 1
 78 396 l 1
EndSplineSet
EndChar

StartChar: circumflex
Encoding: 195 710 200
Width: 333
Flags: HMW
HStem: 516 21G<40 40 40 97 316 316 316 367> 670 20G<200 281 281 281>
LayerCount: 2
Fore
SplineSet
40 516 m 1
 200 690 l 1
 281 690 l 1
 367 516 l 1
 316 516 l 1
 228 607 l 1
 97 516 l 1
 40 516 l 1
EndSplineSet
EndChar

StartChar: caron
Encoding: 207 711 201
Width: 333
Flags: HMW
HStem: 516 21G<167 167 167 249> 670 20G<79 129 129 129 355 411 411 411>
LayerCount: 2
Fore
SplineSet
167 516 m 1
 79 690 l 1
 129 690 l 1
 220 589 l 1
 355 690 l 1
 411 690 l 1
 249 516 l 1
 167 516 l 1
EndSplineSet
EndChar

StartChar: breve
Encoding: 198 728 202
Width: 333
Flags: HMW
HStem: 516 72<187 268 187 294.5> 516 162<72 294.5>
LayerCount: 2
Fore
SplineSet
72 678 m 1
 72 634 74 516 213 516 c 0
 376 516 387 672 387 678 c 1
 348 678 l 1
 332 644 313 588 223 588 c 0
 151 588 120 626 115 678 c 1
 72 678 l 1
EndSplineSet
EndChar

StartChar: dotaccent
Encoding: 199 729 203
Width: 333
Flags: HMW
HStem: 525 130<210 246>
VStem: 195 130
LayerCount: 2
Fore
SplineSet
163 590 m 0
 163 626 192 655 228 655 c 0
 264 655 293 626 293 590 c 0
 293 554 264 525 228 525 c 0
 192 525 163 554 163 590 c 0
EndSplineSet
EndChar

StartChar: ring
Encoding: 202 730 204
Width: 333
Flags: HMW
HStem: 521 49 689 48
VStem: 114 48 291 49<607 639>
LayerCount: 2
Fore
SplineSet
175 623 m 0
 175 591 201 565 233 565 c 0
 265 565 291 591 291 623 c 0
 291 655 265 681 233 681 c 0
 201 681 175 655 175 623 c 0
127 623 m 0
 127 682 175 729 234 729 c 0
 292 729 340 681 340 623 c 0
 340 564 292 516 234 516 c 0
 175 516 127 563 127 623 c 0
EndSplineSet
EndChar

StartChar: ogonek
Encoding: 206 731 205
Width: 333
Flags: HMW
HStem: -173 69<51 120.5> 24 20G<28 61 61 61>
VStem: -40 84<-124.5 -26.5>
LayerCount: 2
Fore
SplineSet
28 44 m 1
 61 44 l 1
 57 25 44 -14 44 -39 c 0
 44 -86 69 -104 109 -104 c 0
 132 -104 145 -94 163 -84 c 1
 189 -98 l 1
 167 -146 105 -173 71 -173 c 0
 31 -173 -40 -159 -40 -90 c 0
 -40 -45 -12 0 28 44 c 1
EndSplineSet
EndChar

StartChar: tilde
Encoding: 196 732 206
Width: 333
Flags: HMW
HStem: 537 21G 542 107<57 252> 543 21G<-4 -4 -4 32> 580 75 581 68<62 90>
LayerCount: 2
Fore
SplineSet
-4 543 m 1
 -4 545 13 649 101 649 c 0
 125 649 150 640 173 631 c 0
 198 621 221 611 234 611 c 0
 265 611 274 632 282 649 c 1
 319 649 l 1
 311 617 291 542 213 542 c 0
 187 542 166 552 145 562 c 0
 125 572 103 581 77 581 c 0
 47 581 39 560 32 543 c 1
 -4 543 l 1
EndSplineSet
EndChar

StartChar: hungarumlaut
Encoding: 205 733 207
Width: 333
Flags: HMW
HStem: 516 181<69 270.5 69 270.5 260 270.5 249 307 260 260>
LayerCount: 2
Fore
SplineSet
260 516 m 1
 380 647 l 2
 406 674 427 697 449 697 c 0
 470 697 498 682 498 650 c 0
 498 627 482 616 459 603 c 2
 307 516 l 1
 260 516 l 1
69 516 m 1
 191 647 l 2
 217 674 238 697 260 697 c 0
 281 697 309 682 309 650 c 0
 309 627 293 616 270 603 c 2
 117 516 l 1
 69 516 l 1
EndSplineSet
EndChar

StartChar: endash
Encoding: 177 8211 208
Width: 500
Flags: HMW
HStem: 178 60<-11 438 -11 438> 178 91
LayerCount: 2
Fore
SplineSet
-11 178 m 1
 -11 238 l 1
 438 238 l 1
 438 178 l 1
 -11 178 l 1
EndSplineSet
EndChar

StartChar: emdash
Encoding: 208 8212 209
Width: 1000
Flags: HMW
HStem: 178 61<0 959 0 959> 178 91
LayerCount: 2
Fore
SplineSet
0 178 m 1
 0 239 l 1
 959 239 l 1
 959 178 l 1
 0 178 l 1
EndSplineSet
EndChar

StartChar: quoteleft
Encoding: 96 8216 210
Width: 333
Flags: HMW
HStem: 369 21G<200.5 234.5> 665 20G<319 319>
VStem: 128 86<425 572> 128 156<425 458 422 531.5>
LayerCount: 2
Fore
SplineSet
332 661 m 1
 313 651 214 600 214 544 c 0
 214 522 234 513 252 500 c 0
 269 488 284 473 284 443 c 0
 284 401 255 369 214 369 c 0
 187 369 128 385 128 465 c 0
 128 598 304 681 319 685 c 1
 332 661 l 1
EndSplineSet
EndChar

StartChar: quoteright
Encoding: 39 8217 211
Width: 333
Flags: HMW
HStem: 369 21G<111 111> 665 20G<195.5 229.5>
VStem: 146 156<595 629 522.5 632> 216 86<482 629>
LayerCount: 2
Fore
SplineSet
111 369 m 1
 98 393 l 1
 117 403 216 454 216 510 c 0
 216 531 198 541 180 553 c 0
 163 565 146 579 146 611 c 0
 146 653 175 685 216 685 c 0
 243 685 302 669 302 589 c 0
 302 456 126 373 111 369 c 1
EndSplineSet
EndChar

StartChar: quotesinglbase
Encoding: 184 8218 212
Width: 333
Flags: HMW
HStem: -182 21G<8 8> 114 20G<92.5 126.5>
VStem: 43 156<46 78 -28.5 81> 113 86<-69 78>
LayerCount: 2
Fore
SplineSet
-5 -158 m 1
 14 -148 113 -97 113 -41 c 0
 113 -17 90 -9 71 6 c 0
 56 17 43 32 43 60 c 0
 43 102 72 134 113 134 c 0
 140 134 199 118 199 38 c 0
 199 -95 23 -178 8 -182 c 1
 -5 -158 l 1
EndSplineSet
EndChar

StartChar: quotedblleft
Encoding: 170 8220 213
Width: 500
Flags: HMW
HStem: 369 21G<122.5 156.5 378.5 412.5> 665 20G<244 244 500 500>
VStem: 53 86<425 572> 53 156<425 459 422 531.5> 309 86<425 572> 309 156<425 457.5 422 531.5>
LayerCount: 2
Fore
SplineSet
513 661 m 1
 494 651 395 600 395 544 c 0
 395 521 415 513 434 499 c 0
 450 487 465 472 465 443 c 0
 465 401 433 369 392 369 c 0
 365 369 309 385 309 465 c 0
 309 598 485 681 500 685 c 1
 513 661 l 1
257 661 m 1
 238 651 139 600 139 544 c 0
 139 523 156 514 174 502 c 0
 191 490 209 475 209 443 c 0
 209 401 177 369 136 369 c 0
 109 369 53 385 53 465 c 0
 53 598 229 681 244 685 c 1
 257 661 l 1
EndSplineSet
EndChar

StartChar: quotedblright
Encoding: 186 8221 214
Width: 500
Flags: HMW
HStem: 369 21G<66 66 322 322> 665 20G<150.5 184.5 406.5 440.5>
VStem: 101 156<598 629 522.5 634> 171 86<482 629> 357 156<597.5 629 522.5 634> 427 86<482 629>
LayerCount: 2
Fore
SplineSet
66 369 m 1
 53 393 l 1
 72 403 171 454 171 510 c 0
 171 532 151 542 132 556 c 0
 116 568 101 583 101 613 c 0
 101 655 130 685 171 685 c 0
 198 685 257 669 257 589 c 0
 257 456 81 373 66 369 c 1
322 369 m 1
 309 393 l 1
 328 403 427 454 427 510 c 0
 427 531 409 541 391 554 c 0
 374 566 357 582 357 613 c 0
 357 655 386 685 427 685 c 0
 454 685 513 669 513 589 c 0
 513 456 337 373 322 369 c 1
EndSplineSet
EndChar

StartChar: quotedblbase
Encoding: 185 8222 215
Width: 500
Flags: HMW
HStem: -182 21G<-44 -44 212 212> 114 20G<40.5 74.5 296.5 330.5>
VStem: -9 156<45.5 78 -28.5 82> 61 86<-69 78> 247 156<44.5 78 -28.5 82> 317 86<-69 78>
LayerCount: 2
Fore
SplineSet
-57 -158 m 1
 -38 -148 61 -97 61 -41 c 0
 61 -19 42 -10 24 3 c 0
 7 15 -9 30 -9 61 c 0
 -9 103 20 134 61 134 c 0
 88 134 147 118 147 38 c 0
 147 -95 -29 -178 -44 -182 c 1
 -57 -158 l 1
199 -158 m 1
 218 -148 317 -97 317 -41 c 0
 317 -20 300 -11 283 1 c 0
 265 13 247 28 247 61 c 0
 247 103 276 134 317 134 c 0
 344 134 403 118 403 38 c 0
 403 -95 227 -178 212 -182 c 1
 199 -158 l 1
EndSplineSet
EndChar

StartChar: dagger
Encoding: 178 8224 216
Width: 500
Flags: HMW
HStem: -145 21G<156 156 156 179> 402 104<427 442> 443 24 665 20G<310 350>
LayerCount: 2
Fore
SplineSet
156 -145 m 1
 201 162 l 1
 191 280 l 1
 244 324 275 407 278 443 c 1
 247 444 227 436 210 427 c 0
 190 416 173 404 141 404 c 0
 110 404 91 427 91 452 c 0
 91 504 132 506 142 506 c 0
 169 506 187 495 208 484 c 0
 227 475 249 466 282 467 c 1
 293 492 294 516 289 541 c 0
 283 567 272 595 272 626 c 0
 272 661 293 685 327 685 c 0
 373 685 384 649 384 631 c 0
 384 601 364 575 337 541 c 0
 318 518 312 485 308 467 c 1
 337 467 357 474 374 482 c 0
 398 493 415 506 439 506 c 0
 494 506 494 459 494 454 c 0
 494 407 447 402 437 402 c 0
 414 402 396 417 373 429 c 0
 355 438 333 445 303 443 c 1
 299 432 297 417 297 401 c 0
 297 350 313 283 323 269 c 1
 254 178 217 -7 179 -145 c 1
 156 -145 l 1
EndSplineSet
EndChar

StartChar: daggerdbl
Encoding: 179 8225 217
Width: 500
Flags: HMW
HStem: -216 21G<115.5 154> -21 105<35 46 29.5 74 349 363.5> 377 105<136.5 151 454 465> 657 20G<346 384.5>
VStem: 78 126<-150 -132> 240 20<221.5 239.5 194.5 266.5> 296 126<593 611>
CounterMasks: 1 0e
LayerCount: 2
Fore
SplineSet
182 22 m 1
 133 23 97 -21 51 -21 c 0
 19 -21 -8 -2 -8 31 c 0
 -8 65 13 84 46 84 c 1
 80 91 146 40 187 40 c 1
 190 52 192 63 192 75 c 0
 192 109 176 126 153 147 c 1
 196 166 240 194 240 249 c 0
 240 284 222 306 195 325 c 1
 243 346 275 370 292 421 c 1
 241 421 182 376 151 377 c 0
 122 377 96 399 96 430 c 0
 96 459 118 482 148 482 c 0
 201 482 246 440 300 439 c 1
 303 455 307 472 307 489 c 0
 307 523 296 556 296 590 c 0
 296 632 323 677 369 677 c 0
 400 677 422 653 422 622 c 0
 422 564 342 514 318 439 c 1
 367 438 403 482 449 482 c 0
 481 482 508 463 508 430 c 0
 508 396 487 377 454 377 c 1
 420 370 354 421 313 421 c 1
 310 409 308 398 308 386 c 0
 308 352 324 335 347 314 c 1
 304 295 260 267 260 212 c 0
 260 177 278 155 305 136 c 1
 257 115 225 91 208 40 c 1
 259 40 318 85 349 84 c 0
 378 84 404 62 404 31 c 0
 404 2 382 -21 352 -21 c 0
 299 -21 254 21 200 22 c 1
 197 6 193 -11 193 -28 c 0
 193 -62 204 -95 204 -129 c 0
 204 -171 177 -216 131 -216 c 0
 100 -216 78 -192 78 -161 c 0
 78 -103 158 -53 182 22 c 1
EndSplineSet
EndChar

StartChar: bullet
Encoding: 183 8226 218
Width: 350
Flags: HMW
HStem: 175 21G 459 20G<133.5 212> 505 20G
LayerCount: 2
Fore
SplineSet
33 338 m 0
 33 416 94 479 173 479 c 0
 251 479 316 414 316 336 c 0
 316 258 253 196 175 196 c 0
 97 196 33 259 33 338 c 0
EndSplineSet
EndChar

StartChar: ellipsis
Encoding: 188 8230 219
Width: 1000
Flags: HMW
HStem: -13 148<94.5 136.5 94.5 136.5 425.5 467.5 754.5 796.5>
VStem: 40 150<40.5 81> 371 150<40.5 81> 702 150<40.5 81>
CounterMasks: 1 70
LayerCount: 2
Fore
SplineSet
702 61 m 0
 702 101 733 135 776 135 c 0
 817 135 852 102 852 61 c 0
 852 19 817 -13 776 -13 c 0
 732 -13 702 20 702 61 c 0
371 61 m 0
 371 101 404 135 447 135 c 0
 488 135 521 102 521 61 c 0
 521 19 488 -13 447 -13 c 0
 403 -13 371 20 371 61 c 0
40 61 m 0
 40 101 73 135 116 135 c 0
 157 135 190 102 190 61 c 0
 190 19 157 -13 116 -13 c 0
 72 -13 40 20 40 61 c 0
EndSplineSet
EndChar

StartChar: perthousand
Encoding: 189 8240 220
Width: 1000
Flags: HMW
HStem: -15 21G<32 32 32 92> -14 26<443 475 443 510 784 816> 318 26<176 208 176 243 507.5 541.5 848.5 882.5> 650 26<240.5 274.5> 657 20G<629 689 689 689>
LayerCount: 2
Fore
SplineSet
32 -15 m 1
 629 677 l 1
 689 677 l 1
 92 -15 l 1
 32 -15 l 1
188 536 m 0
 178 502 155 415 155 382 c 0
 155 363 165 344 187 344 c 0
 229 344 247 420 256 451 c 0
 266 485 294 574 294 606 c 0
 294 627 287 650 262 650 c 0
 219 650 198 569 188 536 c 0
71 448 m 0
 71 554 152 676 260 676 c 0
 338 676 378 620 378 545 c 0
 378 441 300 318 186 318 c 0
 110 318 71 376 71 448 c 0
796 204 m 0
 786 170 763 83 763 50 c 0
 763 31 773 12 795 12 c 0
 837 12 855 88 864 119 c 0
 874 153 902 242 902 274 c 0
 902 295 895 318 870 318 c 0
 827 318 806 237 796 204 c 0
679 116 m 0
 679 222 760 344 868 344 c 0
 946 344 986 288 986 213 c 0
 986 109 908 -14 794 -14 c 0
 718 -14 679 44 679 116 c 0
455 204 m 0
 445 170 422 83 422 50 c 0
 422 31 432 12 454 12 c 0
 496 12 514 88 523 119 c 0
 533 153 561 242 561 274 c 0
 561 295 554 318 529 318 c 0
 486 318 465 237 455 204 c 0
338 116 m 0
 338 222 419 344 527 344 c 0
 605 344 645 288 645 213 c 0
 645 109 567 -14 453 -14 c 0
 377 -14 338 44 338 116 c 0
EndSplineSet
EndChar

StartChar: guilsinglleft
Encoding: 172 8249 221
Width: 333
Flags: HMW
HStem: 32 21G<217 223.5> 395 20G<285 296.5>
LayerCount: 2
Fore
SplineSet
32 217 m 1
 32 226 l 1
 82 262 163 322 213 358 c 0
 234 373 276 415 294 415 c 0
 299 415 303 412 303 403 c 0
 303 367 216 286 157 220 c 1
 230 48 l 1
 230 36 226 32 221 32 c 0
 213 32 202 40 192 51 c 0
 143 104 86 162 32 217 c 1
EndSplineSet
EndChar

StartChar: guilsinglright
Encoding: 173 8250 222
Width: 333
Flags: HMW
HStem: 32 21G<15.5 27> 395 20G<89.5 96>
LayerCount: 2
Fore
SplineSet
156 227 m 1
 83 399 l 1
 83 411 87 415 92 415 c 0
 100 415 112 407 121 396 c 0
 170 343 227 285 281 230 c 1
 281 221 l 1
 231 185 150 125 100 89 c 0
 79 73 36 32 18 32 c 0
 13 32 10 35 10 44 c 0
 10 80 97 161 156 227 c 1
EndSplineSet
EndChar

StartChar: fraction
Encoding: 164 8260 223
Width: 167
Flags: HMW
HStem: -14 21G<-169 -109 -169 -169> 663 20G<264 324 324 324>
LayerCount: 2
Fore
SplineSet
-109 -14 m 1
 -169 -14 l 1
 264 683 l 1
 324 683 l 1
 324 681 l 1
 -109 -14 l 1
EndSplineSet
EndChar

StartChar: Euro
Encoding: 333 8364 224
Width: 667
Flags: HMW
HStem: 0 47<300 345.5> 251 41<-54 40 -67 43 190 483> 392 41<-54 61 -67 77 223 511> 646 37<398.5 474.5 398.5 482>
VStem: 112 146 533 35
LayerCount: 2
Fore
SplineSet
40 251 m 1
 -67 251 l 1
 -54 292 l 1
 43 292 l 1
 45 321 53 363 61 392 c 1
 -67 392 l 1
 -54 433 l 1
 77 433 l 1
 143 629 370 683 427 683 c 0
 522 683 540 656 580 637 c 1
 580 495 l 1
 545 495 l 1
 545 588 539 646 425 646 c 0
 323 646 235 507 223 433 c 1
 525 433 l 1
 511 392 l 1
 210 392 l 1
 201 364 190 318 190 292 c 1
 495 292 l 1
 483 251 l 1
 186 251 l 1
 185 103 239 47 361 47 c 0
 413 47 523 97 563 153 c 1
 593 131 l 1
 535 48 405 0 286 0 c 0
 174 0 40 78 40 251 c 1
EndSplineSet
EndChar

StartChar: trademark
Encoding: 334 8482 225
Width: 1000
Flags: HMW
HStem: 263 21G<670 681 670 670> 265 21<118 118 118 296> 647 22<99 119 119 168 246 246 246 295>
VStem: 168 78<338 647> 495 27<338 565> 834 78<338 567 567 567>
LayerCount: 2
Fore
SplineSet
443 265 m 1
 443 286 l 1
 488 290 495 291 495 338 c 2
 495 597 l 1
 482 628 454 649 425 649 c 1
 425 669 l 1
 552 669 l 1
 702 367 l 1
 859 669 l 1
 968 669 l 1
 968 649 l 1
 923 649 912 629 912 595 c 2
 912 338 l 2
 912 292 911 291 962 286 c 1
 962 265 l 1
 784 265 l 1
 784 286 l 1
 836 291 834 292 834 338 c 2
 834 567 l 1
 832 567 l 1
 681 263 l 1
 670 263 l 1
 524 565 l 1
 522 565 l 1
 522 338 l 2
 522 291 529 290 574 286 c 1
 574 265 l 1
 443 265 l 1
118 265 m 1
 118 286 l 1
 169 291 168 292 168 338 c 2
 168 647 l 1
 119 647 l 2
 79 647 61 617 53 581 c 1
 32 581 l 1
 32 669 l 1
 382 669 l 1
 382 581 l 1
 361 581 l 1
 353 617 335 647 295 647 c 2
 246 647 l 1
 246 338 l 2
 246 292 245 291 296 286 c 1
 296 265 l 1
 118 265 l 1
EndSplineSet
EndChar

StartChar: minus
Encoding: 335 8722 226
Width: 606
Flags: HMW
HStem: 209 62<51 555 51 555> 209 88
LayerCount: 2
Fore
SplineSet
51 209 m 1
 51 271 l 1
 555 271 l 1
 555 209 l 1
 51 209 l 1
EndSplineSet
EndChar

StartChar: fi
Encoding: 174 64257 227
Width: 556
Flags: HMW
HStem: -205 34<-98 -66 -98 -41> -9 21G<321.5 378.5> 407 42<17 103 27 92 221 339 339 351.5> 551 152<281 464.5> 673 30<339.5 401.5>
LayerCount: 2
Fore
SplineSet
17 407 m 1
 27 449 l 1
 103 449 l 1
 143 566 190 703 372 703 c 0
 440 703 507 669 507 608 c 0
 507 571 479 551 450 551 c 0
 413 551 392 579 392 605 c 0
 392 617 395 625 399 632 c 0
 405 643 414 649 414 656 c 0
 414 661 414 673 389 673 c 0
 290 673 259 592 221 449 c 1
 339 449 l 2
 364 449 473 458 494 459 c 1
 421 176 l 2
 418 162 402 113 402 84 c 0
 402 70 406 61 417 61 c 0
 440 61 484 128 492 140 c 1
 514 127 l 1
 453 31 411 -9 346 -9 c 0
 297 -9 281 23 281 61 c 0
 281 87 286 115 292 138 c 2
 361 407 l 1
 211 407 l 1
 109 -4 l 2
 92 -78 8 -205 -90 -205 c 0
 -145 -205 -188 -173 -188 -130 c 0
 -188 -80 -152 -73 -141 -73 c 0
 -112 -73 -88 -92 -88 -122 c 0
 -88 -133 -91 -139 -95 -144 c 0
 -100 -151 -107 -154 -107 -162 c 0
 -107 -165 -107 -171 -89 -171 c 0
 -43 -171 -30 -137 0 -4 c 2
 92 407 l 1
 17 407 l 1
EndSplineSet
EndChar

StartChar: fl
Encoding: 175 64258 228
Width: 556
Flags: HMW
HStem: -205 35<-88.5 -59 -88.5 -40> -9 21G<321 386> 407 42<20 104 30 94 221 360> 675 29<321 375.5 271.5 379.5>
LayerCount: 2
Fore
SplineSet
221 449 m 1
 372 449 l 1
 402 568 l 1
 394 574 381 585 381 609 c 0
 381 619 385 628 389 635 c 0
 395 645 402 652 402 656 c 0
 402 662 391 675 368 675 c 0
 274 675 242 537 221 449 c 1
20 407 m 1
 30 449 l 1
 104 449 l 1
 141 567 183 704 360 704 c 0
 391 704 450 689 454 689 c 2
 553 701 l 1
 402 99 l 2
 400 93 398 86 398 80 c 0
 398 70 402 62 416 62 c 0
 441 62 480 120 491 137 c 1
 511 126 l 1
 466 56 424 -9 348 -9 c 0
 294 -9 277 20 277 55 c 0
 277 65 279 76 281 86 c 2
 360 407 l 1
 213 407 l 1
 114 5 l 1
 82 -158 12 -205 -92 -205 c 0
 -110 -205 -186 -197 -186 -123 c 0
 -186 -71 -139 -71 -133 -71 c 0
 -105 -71 -87 -91 -87 -117 c 0
 -87 -128 -90 -134 -94 -140 c 0
 -98 -147 -103 -152 -103 -158 c 0
 -103 -164 -97 -170 -80 -170 c 0
 -38 -170 -23 -106 2 5 c 2
 94 407 l 1
 20 407 l 1
EndSplineSet
EndChar
